<?xml version="1.0" encoding="UTF-8" standalone="no"?><svg xmlns="http://www.w3.org/2000/svg" xmlns:xlink="http://www.w3.org/1999/xlink" fill="#034086" height="78.4" preserveAspectRatio="xMidYMid meet" version="1" viewBox="0.9 0.8 76.1 78.4" width="76.1" zoomAndPan="magnify"><g id="change1_1"><path d="M 15.3125 0.800781 C 13.488281 0.800781 11.996094 2.292969 11.996094 4.113281 L 11.996094 15.523438 C 11.996094 17.347656 13.488281 18.835938 15.3125 18.835938 L 17.886719 18.835938 L 17.886719 23.34375 C 17.886719 24.015625 18.667969 24.382812 19.183594 23.957031 L 25.363281 18.835938 L 31.957031 18.835938 L 31.957031 21.25 C 31.957031 23.382812 33.695312 25.128906 35.828125 25.128906 L 48.945312 25.128906 L 54.640625 29.855469 C 53.011719 31.625 52.007812 33.980469 52.007812 36.570312 C 52.007812 42.042969 56.460938 46.496094 61.933594 46.496094 C 67.40625 46.496094 71.859375 42.042969 71.859375 36.570312 C 71.859375 31.097656 67.40625 26.644531 61.933594 26.644531 C 60.472656 26.644531 59.089844 26.964844 57.839844 27.535156 L 57.839844 25.128906 L 61.160156 25.128906 C 63.292969 25.128906 65.03125 23.382812 65.03125 21.25 L 65.03125 7.289062 C 65.03125 5.15625 63.292969 3.414062 61.160156 3.414062 L 39.292969 3.414062 C 38.96875 1.925781 37.636719 0.800781 36.054688 0.800781 Z M 15.3125 2.386719 L 36.054688 2.386719 C 36.75 2.386719 37.21875 2.839844 37.496094 3.414062 L 35.828125 3.414062 C 33.695312 3.414062 31.957031 5.15625 31.957031 7.289062 L 31.957031 17.25 L 25.078125 17.25 C 24.894531 17.25 24.714844 17.3125 24.570312 17.433594 L 19.472656 21.65625 L 19.472656 18.042969 C 19.472656 17.605469 19.117188 17.25 18.679688 17.25 L 15.3125 17.25 C 14.339844 17.25 13.585938 16.496094 13.585938 15.523438 L 13.585938 4.113281 C 13.585938 3.144531 14.339844 2.386719 15.3125 2.386719 Z M 35.828125 5.003906 L 61.160156 5.003906 C 62.4375 5.003906 63.445312 6.007812 63.445312 7.289062 L 63.445312 21.25 C 63.445312 22.53125 62.4375 23.539062 61.160156 23.539062 L 57.046875 23.539062 C 56.609375 23.539062 56.253906 23.894531 56.253906 24.332031 L 56.253906 28.441406 C 56.105469 28.546875 55.960938 28.65625 55.816406 28.765625 L 49.738281 23.722656 C 49.597656 23.605469 49.417969 23.539062 49.230469 23.539062 L 35.828125 23.539062 C 34.550781 23.539062 33.542969 22.53125 33.542969 21.25 L 33.542969 7.289062 C 33.542969 7.128906 33.558594 6.972656 33.589844 6.824219 C 33.800781 5.773438 34.710938 5.003906 35.828125 5.003906 Z M 38.457031 13.214844 C 37.382812 13.199219 37.382812 14.820312 38.457031 14.804688 L 58.53125 14.804688 C 59.605469 14.820312 59.605469 13.199219 58.53125 13.214844 Z M 38.457031 17.6875 C 37.382812 17.671875 37.382812 19.292969 38.457031 19.277344 L 51.003906 19.277344 C 52.078125 19.292969 52.078125 17.671875 51.003906 17.6875 Z M 56.023438 17.6875 C 54.949219 17.671875 54.949219 19.292969 56.023438 19.277344 L 58.53125 19.277344 C 59.605469 19.292969 59.605469 17.671875 58.53125 17.6875 Z M 16.089844 26.644531 C 10.617188 26.644531 6.164062 31.097656 6.164062 36.570312 C 6.164062 42.042969 10.617188 46.496094 16.089844 46.496094 C 21.5625 46.496094 26.015625 42.042969 26.015625 36.570312 C 26.015625 31.097656 21.5625 26.644531 16.089844 26.644531 Z M 16.089844 28.230469 C 20.707031 28.230469 24.429688 31.957031 24.429688 36.570312 C 24.429688 41.183594 20.707031 44.90625 16.089844 44.90625 C 11.476562 44.90625 7.753906 41.183594 7.753906 36.570312 C 7.753906 31.957031 11.476562 28.230469 16.089844 28.230469 Z M 61.933594 28.230469 C 66.546875 28.230469 70.269531 31.957031 70.269531 36.570312 C 70.269531 41.183594 66.546875 44.90625 61.933594 44.90625 C 57.316406 44.90625 53.59375 41.183594 53.59375 36.570312 C 53.59375 34.148438 54.625 31.980469 56.265625 30.457031 C 56.296875 30.4375 56.328125 30.414062 56.351562 30.390625 C 56.703125 30.070312 57.078125 29.78125 57.476562 29.527344 C 57.480469 29.523438 57.488281 29.519531 57.496094 29.511719 C 58.78125 28.703125 60.296875 28.230469 61.933594 28.230469 Z M 10.617188 47.613281 C 8.050781 47.640625 5.734375 48.949219 4.042969 50.917969 C 2.113281 53.167969 0.929688 56.289062 0.929688 59.550781 L 0.929688 78.40625 C 0.929688 78.84375 1.285156 79.199219 1.726562 79.199219 L 30.433594 79.199219 C 30.871094 79.199219 31.226562 78.84375 31.226562 78.40625 L 31.226562 59.550781 C 31.226562 53.03125 26.496094 47.671875 20.535156 47.671875 C 20.5 47.671875 20.464844 47.675781 20.433594 47.679688 L 16.082031 48.261719 L 11.726562 47.679688 C 11.351562 47.628906 10.984375 47.609375 10.617188 47.613281 Z M 56.457031 47.613281 C 53.894531 47.640625 51.578125 48.949219 49.886719 50.917969 C 47.953125 53.167969 46.773438 56.289062 46.773438 59.550781 L 46.773438 78.40625 C 46.773438 78.84375 47.128906 79.199219 47.566406 79.199219 L 76.273438 79.199219 C 76.714844 79.199219 77.070312 78.84375 77.070312 78.40625 L 77.070312 59.550781 C 77.070312 53.03125 72.339844 47.671875 66.378906 47.671875 C 66.34375 47.671875 66.308594 47.675781 66.273438 47.679688 L 61.921875 48.261719 L 57.570312 47.679688 C 57.195312 47.628906 56.824219 47.609375 56.457031 47.613281 Z M 10.628906 49.199219 C 10.921875 49.199219 11.21875 49.214844 11.515625 49.253906 L 15.976562 49.851562 C 16.042969 49.859375 16.117188 49.859375 16.1875 49.851562 L 20.570312 49.261719 C 25.558594 49.285156 29.640625 53.804688 29.640625 59.550781 L 29.640625 77.613281 L 2.519531 77.613281 L 2.519531 59.550781 C 2.519531 56.675781 3.582031 53.890625 5.25 51.953125 C 6.703125 50.257812 8.574219 49.214844 10.628906 49.199219 Z M 56.46875 49.199219 C 56.761719 49.199219 57.058594 49.214844 57.359375 49.253906 L 61.816406 49.851562 C 61.886719 49.859375 61.957031 49.859375 62.027344 49.851562 L 66.410156 49.261719 C 71.402344 49.28125 75.480469 53.804688 75.480469 59.550781 L 75.480469 77.613281 L 48.359375 77.613281 L 48.359375 59.550781 C 48.359375 56.675781 49.425781 53.890625 51.089844 51.953125 C 52.546875 50.257812 54.414062 49.214844 56.46875 49.199219 Z M 56.46875 49.199219" fill="inherit"/></g></svg>