<?xml version="1.0" encoding="UTF-8" standalone="no"?><svg xmlns="http://www.w3.org/2000/svg" xmlns:xlink="http://www.w3.org/1999/xlink" fill="#eefaff" height="126.2" preserveAspectRatio="xMidYMid meet" version="1" viewBox="0.0 -0.2 124.0 126.2" width="124" zoomAndPan="magnify"><g id="change1_1"><path d="M118.285,19.929c-1.628-0.098-3.173,0.455-4.375,1.531v-6.663c0-3.346-2.512-6.095-5.718-6.259 c-1.63-0.07-3.172,0.467-4.372,1.541V6.937c0-3.554-2.683-6.587-6.104-6.905c-1.917-0.187-3.828,0.445-5.238,1.726 c-1.391,1.264-2.188,3.061-2.188,4.93v3.52c-1.119-1.033-2.614-1.67-4.26-1.67c-1.581,0-3.088,0.583-4.241,1.639 c-1.173,1.063-1.889,2.504-2.015,4.06c-0.464,5.608-0.805,11.194-1.013,16.603c-0.299,7.71-0.35,16.39-0.161,24.539 c-0.696-1.324-1.481-2.581-2.358-3.757c-1.52-2.04-3.159-3.648-4.602-4.52c-0.836-0.522-2.887-1.687-4.895-2.013l-2.585-4.25v-31.3 c0-5.105-4.204-9.26-9.37-9.26H9.37C4.204,0.277,0,4.432,0,9.537v31.85c0,5.106,4.204,9.261,9.37,9.261h44.99l7.379,2.428 c2.698,6.502,5.392,13.003,8.087,19.507l4.687,11.309c0.819,2.026,1.938,3.907,3.33,5.596c0.711,0.852,1.51,1.65,2.358,2.397v8.81 c-0.626-0.013-1.241,0.17-1.762,0.556c-0.743,0.55-1.168,1.394-1.168,2.316v21.43c0,0.553,0.448,1,1,1h42.31c0.552,0,1-0.447,1-1 v-21.41c0-0.927-0.426-1.773-1.168-2.324c-0.63-0.467-1.399-0.634-2.182-0.508v-1.308c1.867-3.109,3.311-6.462,4.293-9.97 c0.927-3.317,1.424-6.754,1.477-10.229v-53.07C124,22.894,121.435,20.091,118.285,19.929z M54.52,48.647H9.37 c-4.064,0-7.37-3.257-7.37-7.261V9.537c0-4.003,3.306-7.26,7.37-7.26h45.42c4.064,0,7.37,3.257,7.37,7.26v31.58 c0,0.184,0.051,0.363,0.146,0.521l7.241,11.9l-6.744-2.222c0,0,0,0-0.001,0l-7.97-2.619C54.731,48.664,54.626,48.647,54.52,48.647z M79.628,102.858c0.228-0.168,0.511-0.217,0.769-0.139c0.167,0.053,0.345,0.105,0.517,0.155c6.21,1.859,12.647,2.754,19.116,2.702 c0,0,0,0,0.001,0c3.116,0,5.65,2.517,5.65,5.61c0,2.959-2.329,5.382-5.264,5.58c-7.105,0.026-14.223-0.704-21.146-2.193v-11.007 C79.27,103.285,79.4,103.026,79.628,102.858z M79.27,123.997v-7.38c6.805,1.434,13.781,2.17,20.76,2.17 c6.581,0,13.15-0.652,19.55-1.922v7.132H79.27z M119.22,102.869c0.229,0.17,0.36,0.432,0.36,0.718v11.238 c-4.668,0.946-9.429,1.548-14.221,1.804c1.429-1.382,2.321-3.309,2.321-5.441c0-2.349-1.076-4.451-2.763-5.848 c4.269-0.363,8.487-1.139,12.591-2.331l0.922-0.273C118.705,102.652,118.992,102.7,119.22,102.869z M122,79.231 c-0.05,3.289-0.522,6.555-1.403,9.706c-0.958,3.422-2.378,6.688-4.221,9.709c-0.096,0.156-0.146,0.337-0.146,0.521v2.116 c-5.265,1.461-10.713,2.238-16.21,2.294c-6.038,0.051-12.016-0.758-17.819-2.419v-7.703c0.458,0.315,0.92,0.616,1.387,0.887 c0.158,0.092,0.331,0.136,0.501,0.136c0.345,0,0.68-0.178,0.866-0.498c0.277-0.478,0.115-1.089-0.362-1.366 c-0.929-0.54-1.846-1.182-2.728-1.906c-0.008-0.007-0.011-0.017-0.019-0.024c-0.899-0.76-1.73-1.594-2.464-2.473 c-1.258-1.526-2.272-3.231-3.018-5.077l-4.69-11.316c-2.476-5.974-4.951-11.945-7.428-17.917l7.251,2.386 c0.103,0.033,0.208,0.05,0.313,0.05c0.299,0,0.59-0.135,0.783-0.378c0.261-0.328,0.29-0.783,0.072-1.142l-4.383-7.206 c0.743,0.304,1.531,0.703,2.312,1.191c0.718,0.435,2.198,1.532,4.045,4.012c1.802,2.417,3.204,5.19,4.168,8.243 c0.008,0.024,0.023,0.042,0.032,0.065c0.015,0.039,0.034,0.073,0.054,0.109c0.038,0.068,0.081,0.13,0.133,0.187 c0.026,0.029,0.051,0.058,0.08,0.084c0.067,0.059,0.141,0.105,0.221,0.144c0.023,0.011,0.043,0.028,0.068,0.038 c0.099,0.039,0.204,0.065,0.315,0.071c3.481,0.175,6.729,1.088,9.655,2.715c7.962,4.426,10.466,12.607,11.043,15.01 c0.11,0.459,0.52,0.767,0.971,0.767c0.078,0,0.156-0.009,0.235-0.027c0.537-0.13,0.868-0.67,0.738-1.206 c-0.626-2.604-3.342-11.47-12.016-16.291c-2.935-1.632-6.163-2.601-9.606-2.897c-0.332-9.325-0.324-19.801,0.029-28.91 c0.208-5.379,0.546-10.936,1.008-16.517c0.085-1.048,0.57-2.021,1.369-2.744c0.787-0.721,1.815-1.117,2.895-1.117 c2.349,0,4.26,1.884,4.26,4.2v34.63c0,0.553,0.448,1,1,1s1-0.447,1-1v-34.63v-8.05c0-1.307,0.559-2.564,1.533-3.449 c1.008-0.916,2.324-1.347,3.705-1.215c2.407,0.224,4.292,2.383,4.292,4.914v41.01c0,0.553,0.448,1,1,1s1-0.447,1-1V14.517 c0-1.091,0.44-2.11,1.239-2.869c0.817-0.775,1.899-1.174,3.03-1.111c2.107,0.107,3.821,2.019,3.821,4.261v37.42 c0,0.553,0.448,1,1,1s1-0.447,1-1V25.897c0-1.094,0.441-2.113,1.242-2.871c0.816-0.772,1.888-1.17,3.026-1.101 c2.107,0.108,3.822,2.016,3.822,4.251V79.231z" fill="inherit"/><path d="M47.82,14.507H20.25c-0.552,0-1,0.447-1,1s0.448,1,1,1h27.57c0.552,0,1-0.447,1-1S48.372,14.507,47.82,14.507z" fill="inherit"/><path d="M44.48,28.727H27.77c-0.552,0-1,0.447-1,1s0.448,1,1,1h16.71c0.552,0,1-0.447,1-1S45.032,28.727,44.48,28.727z" fill="inherit"/><path d="M66.19,95.167h-1.574l-2.602-15.502c1.167-0.466,2.288-1.19,3.338-2.187C66.009,76.85,66.37,76,66.37,75.087 c0-1.11-0.547-2.159-1.47-2.812c-1.333-0.925-3.114-0.781-4.328,0.347c-0.325,0.3-0.639,0.524-0.938,0.67 c-0.186,0.093-0.372,0.155-0.577,0.191c-0.878,0.162-1.873-0.385-4.492-1.997c-1.604-0.991-3.802-2.348-6.708-3.733 c-1.045-0.493-2.107-0.94-3.169-1.363c0.057-0.216,0.05-0.447-0.044-0.66c-0.161-0.36-0.519-0.593-0.914-0.593H30.62 c-0.395,0-0.753,0.232-0.914,0.593c-0.095,0.213-0.101,0.444-0.044,0.66c-1.064,0.424-2.126,0.872-3.172,1.365 c-2.908,1.386-5.103,2.741-6.704,3.73c-2.618,1.613-3.614,2.165-4.5,1.997c-0.198-0.035-0.383-0.098-0.577-0.193 c-0.292-0.143-0.605-0.367-0.928-0.664c-1.216-1.132-2.998-1.276-4.338-0.345c-0.916,0.646-1.463,1.696-1.463,2.807 c0,0.913,0.361,1.763,1.019,2.393c1.044,1,2.171,1.725,3.338,2.187l-2.602,15.5H8.16c-0.292,0-0.57,0.128-0.76,0.351 c-0.19,0.222-0.273,0.516-0.228,0.805c0.723,4.592,4.784,8.055,9.448,8.055c4.669,0,8.735-3.463,9.458-8.055 c0.045-0.289-0.038-0.583-0.228-0.805c-0.19-0.223-0.468-0.351-0.76-0.351h-1.591l-3.055-16.181 c0.914-0.472,1.851-1.043,2.928-1.716l0.205-0.125c1.619-0.987,3.453-2.106,5.852-3.244c1.467-0.695,2.919-1.301,4.332-1.812 v39.215l-11.712,9.31c-0.333,0.265-0.462,0.711-0.322,1.112c0.14,0.402,0.519,0.671,0.944,0.671h29.01 c0.425,0,0.804-0.269,0.944-0.671c0.14-0.401,0.011-0.848-0.322-1.112l-11.712-9.31V72.089c1.414,0.511,2.865,1.117,4.332,1.811 c2.444,1.16,4.297,2.296,5.932,3.299l0.108,0.066c1.085,0.677,2.025,1.25,2.945,1.722l-3.055,16.179H49.26 c-0.292,0-0.57,0.128-0.76,0.351c-0.19,0.222-0.273,0.517-0.228,0.805c0.723,4.592,4.785,8.055,9.448,8.055 c4.669,0,8.735-3.463,9.458-8.055c0.045-0.289-0.038-0.583-0.228-0.805C66.76,95.295,66.482,95.167,66.19,95.167z M63.753,73.913 c0.392,0.277,0.617,0.705,0.617,1.174c0,0.257-0.07,0.63-0.398,0.944c-0.745,0.708-1.503,1.23-2.299,1.605l-0.494-2.944 c0.25-0.173,0.501-0.371,0.752-0.602C62.445,73.612,63.215,73.54,63.753,73.913z M38.59,110.787h-1.42h-1.41V73.283l0.67,0.737 c0.189,0.208,0.458,0.327,0.74,0.327s0.55-0.119,0.74-0.327l0.68-0.747V110.787z M10.382,76.035 c-0.332-0.318-0.402-0.691-0.402-0.948c0-0.469,0.225-0.896,0.61-1.169c0.545-0.378,1.315-0.306,1.833,0.175 c0.249,0.23,0.5,0.427,0.749,0.599l-0.494,2.945C11.881,77.262,11.111,76.733,10.382,76.035z M11.762,95.167l2.511-14.955 c0.449,0.072,0.893,0.115,1.347,0.115c0.963,0,1.92-0.172,2.942-0.524l2.901,15.364H11.762z M28.571,72.094 c-2.495,1.184-4.376,2.332-6.037,3.345l-0.213,0.13c-1.288,0.804-2.356,1.456-3.38,1.931c-0.01,0.004-0.018,0.009-0.028,0.014 c-0.003,0.001-0.005,0.003-0.008,0.004c-1.637,0.744-2.943,0.936-4.301,0.718l0.465-2.77c1.661,0.243,3.138-0.657,5.766-2.277 c1.564-0.966,3.705-2.288,6.511-3.626c1.195-0.564,2.415-1.075,3.633-1.543l2.018,2.219C31.551,70.764,30.068,71.386,28.571,72.094 z M51.899,75.494c-1.678-1.028-3.58-2.195-6.121-3.401c-1.496-0.708-2.979-1.329-4.426-1.856l2.019-2.219 c1.217,0.468,2.435,0.978,3.63,1.541c2.805,1.338,4.949,2.661,6.516,3.629c2.63,1.62,4.109,2.523,5.765,2.276l0.465,2.77 c-1.372,0.219-2.666,0.026-4.3-0.718c-0.001,0-0.001-0.001-0.002-0.001c-0.013-0.006-0.025-0.013-0.039-0.019 c-1.032-0.474-2.099-1.125-3.391-1.932L51.899,75.494z M55.787,79.803c1.022,0.352,1.979,0.524,2.943,0.524 c0.453,0,0.896-0.043,1.347-0.115l2.511,14.955h-9.702L55.787,79.803z" fill="inherit"/><path d="M40.59,60.137c0-1.88-1.534-3.409-3.42-3.409c-1.88,0-3.41,1.529-3.41,3.409c0,1.875,1.53,3.4,3.41,3.4 C39.056,63.537,40.59,62.012,40.59,60.137z" fill="inherit"/><path d="M97.61,115.187c2.222,0,4.03-1.794,4.03-4c0-2.212-1.808-4.011-4.03-4.011c-2.217,0-4.02,1.799-4.02,4.011 C93.59,113.393,95.393,115.187,97.61,115.187z" fill="inherit"/></g></svg>