<?xml version="1.0" encoding="UTF-8" standalone="no"?><svg xmlns="http://www.w3.org/2000/svg" xmlns:xlink="http://www.w3.org/1999/xlink" fill="#ffffff" height="109.9" preserveAspectRatio="xMidYMid meet" version="1" viewBox="-2.1 8.2 130.5 109.9" width="130.5" zoomAndPan="magnify"><g id="change1_1"><path d="M80.6,90.6c2.2-1.4,3.2-3.9,2.8-6.5L83,82.5c-0.2-1.2-0.2-2.9,0.1-3.7c0,0,0.7-1.9,0.7-1.9c0.3-0.9,0.1-2-0.6-2.7l-0.5-0.5 c0.5-0.2,0.9-0.3,1.3-0.7c0.7-0.7,1.2-1.7,0.9-2.6l-1.2-3.5c1.9-0.6,3.2-1.5,3.8-3c1.1-2.3-0.1-4.5-0.2-4.8c0-0.1-7.4-11.1-7.4-11.5 c0-0.4,0.5-2.3,0.6-2.8C81.9,34,73.2,21,64.2,15.6c-10.5-6.2-25.7-7.4-38.8-3c-11.1,3.8-19.3,10.9-23,20.2 C-2.1,44.4-0.3,58,7.3,68.6c6.2,8.7,9.3,17.3,9.5,26.2c0,1.1,0.9,2,2,2c1.1,0,2-0.9,2-2c-0.2-9.8-3.6-19.1-10.3-28.5 c-6.8-9.5-8.4-21.7-4.4-31.9c3.3-8.2,10.6-14.6,20.5-17.9c12-4.1,25.9-3,35.4,2.6c7.8,4.6,15.5,16.4,14.4,25.2 c0,0.3-0.3,1.5-0.4,1.7H74c-1.1,0-2,0.9-2,2c0,1.1,0.9,2,2,2h2.4c0.3,0.6,7.4,11.1,7.4,11.1c0.9,1.3-0.9,1.9-1.8,2.1 c-1.4,0.3-2.9,1.4-2.5,3.6c0,0.1,1.1,3.5,1.1,3.5s-1.7,0.6-1.7,0.6c-0.7,0.1-1.3,1.2-1.4,1.8c-0.2,0.8,0.1,1.7,0.7,2.3l1.5,1.4 l-0.4,1c-0.6,1.8-0.6,4.2-0.3,5.8c0.3,1.4,0.8,3-0.7,4c-2.3,1.5-5.2,1.3-7.9,1.3c-7.5,0-13.7,3.6-16.3,9.4c-2,4.6-1.7,10.3-1.2,14.4 c0.2,1.1,1.2,1.8,2.3,1.7c1.1-0.2,1.8-1.2,1.7-2.3c-0.5-3.5-0.8-8.5,0.9-12.2c2.4-5.3,8.3-7.1,13.1-7C75.2,92.7,78.4,92,80.6,90.6z" fill="inherit"/></g><g id="change1_2"><path d="M125.8,52.9c-2-3-5.1-5-8.7-5.6c-0.8-0.2-1.7-0.2-2.5-0.2c-6.4,0-11.9,4.4-13.2,10.5c-0.3,1.6-0.3,3.1,0,4.7l-3.2,6.3 c-0.3,0.6-0.3,1.4,0.1,2c0.4,0.6,1.1,0.9,1.8,0.9l7.2-0.5c1.5,0.9,3.1,1.5,4.8,1.9c0.8,0.2,1.7,0.2,2.5,0.2 c6.4,0,11.9-4.4,13.2-10.5C128.4,59.1,127.7,55.7,125.8,52.9z M123.8,61.7c-0.8,4.2-4.7,7.3-9.2,7.3c-0.6,0-1.2-0.1-1.8-0.2 c-1.4-0.3-2.6-0.8-3.8-1.6c-0.3-0.2-0.7-0.4-1.2-0.4c0,0-0.1,0-0.1,0l-4.3,0.3l1.9-3.8c0.2-0.4,0.3-0.9,0.2-1.4 c-0.3-1.2-0.3-2.5-0.1-3.7c0.7-3.6,4-6.7,7.6-7.2c3.7-0.5,7.4,0.9,9.5,4C123.8,57.1,124.3,59.4,123.8,61.7z" fill="inherit"/></g><g id="change1_3"><path d="M106.5,78.9c-1.7,0-3.4,0.3-5.1,1l-6.9-1.9c-0.7-0.2-1.4,0-1.9,0.5c-0.5,0.5-0.7,1.2-0.5,1.9l1.9,7.1 c-0.6,1.6-0.9,3.2-0.9,4.9c0,7.5,6,13.5,13.5,13.5c7.4,0,13.5-6.1,13.5-13.5C120,85,114,78.9,106.5,78.9z M106.5,102 c-5.2,0-9.5-4.3-9.5-9.5c0-1.3,0.3-2.7,0.8-3.9c0.2-0.4,0.2-0.9,0.1-1.3l-1.2-4.4l4.3,1.2c0.5,0.1,0.9,0.1,1.4-0.1 c1.3-0.6,2.6-0.9,4-0.9c5.2,0,9.5,4.3,9.5,9.5C116,97.7,111.8,102,106.5,102z" fill="inherit"/></g><g id="change1_4"><path d="M97.8,40.8l-1.6,2.7c-0.6,1-0.2,2.2,0.7,2.7c0.9,0.6,2.2,0.2,2.7-0.7l4.3-7.2c1-1.7,1.3-3.6,0.8-5.5 c-0.5-1.8-1.7-3.4-3.3-4.3c-3.4-2-7.8-0.8-9.9,2.7l-4.3,7.2c-0.6,1-0.2,2.2,0.7,2.7c0.9,0.6,2.2,0.2,2.7-0.7l1.6-2.7L97.8,40.8z M99.5,31.9c0.7,0.4,1.2,1.1,1.4,1.9c0.2,0.8,0.1,1.7-0.4,2.5l-0.7,1.1l-5.5-3.1l0.6-1.1C95.9,31.6,97.9,31,99.5,31.9z" fill="inherit"/></g><g id="change1_5"><path d="M87.6,111.3l-3.8-1.3c0.7-3,0.5-5.8,0.1-7.8l1.1-0.3c1.1-0.3,1.6-1.5,1.3-2.5c-0.3-1.1-1.5-1.6-2.5-1.3l-13.5,4.2 c-1.1,0.3-1.6,1.5-1.3,2.5c0.3,1,1.5,1.6,2.5,1.3l1.5-0.5l-0.1,3.4c0,0.9,0.5,1.7,1.4,2l4.1,1.4c-0.5,0.7-1,1.4-1.7,2.1 c-0.8,0.8-0.8,2-0.1,2.8c0.8,0.8,2,0.8,2.8,0.1c1.2-1.2,2.2-2.4,2.9-3.7l4,1.3c1,0.3,2.2-0.2,2.5-1.3 C89.3,112.8,88.7,111.7,87.6,111.3z M77.1,107.7l0.1-3.3l3-0.9c0.2,1.4,0.3,3.3-0.1,5.3L77.1,107.7z" fill="inherit"/></g></svg>