<?xml version="1.0" encoding="UTF-8" standalone="no"?><svg xmlns="http://www.w3.org/2000/svg" xmlns:xlink="http://www.w3.org/1999/xlink" fill="#000000" height="1829.4" preserveAspectRatio="xMidYMid meet" version="1" viewBox="-42.7 -10.6 1852.1 1829.4" width="1852.1" zoomAndPan="magnify"><g><g id="change1_1"><path d="M 742.171875 170.839844 C 859.402344 170.761719 985.035156 249.785156 977.847656 352.453125 C 970.902344 451.5625 855.929688 512.683594 788.1875 592.226562 C 723.425781 668.28125 710.363281 792.746094 799.230469 846.90625 C 857.363281 882.328125 936.472656 874.445312 1003.640625 854.84375 C 1070.808594 835.253906 1135.363281 805.273438 1205.90625 800.222656 C 1276.460938 795.171875 1357.878906 825.261719 1375.039062 885.515625 C 1387.90625 930.683594 1360.9375 977.535156 1326.429688 1012.902344 C 1291.917969 1048.265625 1249.007812 1077.476562 1219.886719 1116.394531 C 1145.933594 1215.148438 1187.320312 1361.195312 1296.644531 1430.195312 C 1405.992188 1499.191406 1563.972656 1493.046875 1676.808594 1428.542969 C 1722.550781 1402.394531 1762.933594 1366.308594 1781.320312 1321.214844 C 1799.726562 1276.109375 1809.367188 1184.613281 1754.828125 1186.757812 C 1698.066406 1188.988281 1682.375 1265.699219 1632.0625 1288.855469 C 1581.75 1312.011719 1514.082031 1313.859375 1472.738281 1279.667969 C 1424.742188 1239.980469 1430.949219 1170.28125 1458.765625 1117.820312 C 1486.585938 1065.347656 1531.582031 1020.425781 1554.300781 966.105469 C 1588.445312 884.464844 1564.324219 786.425781 1494.84375 724.40625 C 1425.375 662.394531 1314.070312 639.546875 1220.4375 668.089844 C 1187.53125 678.128906 1156.632812 693.941406 1122.257812 698.941406 C 1087.882812 703.925781 1046.949219 694.21875 1032.429688 666.433594 C 1008.609375 620.816406 1067.980469 578.589844 1110.144531 544.699219 C 1225.320312 452.113281 1241.796875 284.628906 1159.746094 168.003906 C 1077.710938 51.367188 912.445312 -10.648438 756.964844 2.601562 C 683.949219 8.820312 613.390625 30.441406 550.167969 62.773438 C 506.875 84.917969 377.558594 155.257812 372.398438 203.871094 C 363.089844 291.339844 471.378906 249.742188 511.164062 231.785156 C 583.535156 199.144531 659.304688 170.894531 742.171875 170.839844" fill="#034086"/></g><g id="change2_1"><path d="M 270.269531 318 C 352.746094 297.960938 445.207031 298.261719 519.609375 335.359375 C 594.011719 372.460938 643.773438 451.941406 621.972656 524.550781 C 602.578125 589.140625 536.320312 632.550781 484.945312 681.851562 C 425.101562 739.28125 381.277344 813.617188 383.121094 891.417969 C 384.96875 969.21875 440.84375 1048.359375 526.15625 1069.628906 C 595.742188 1086.96875 669.707031 1065.054688 735.828125 1039.320312 C 801.949219 1013.578125 868.898438 983.109375 941.238281 982.710938 C 1013.578125 982.3125 1092.679688 1024.621094 1097.039062 1087.976562 C 1100.070312 1132.03125 1067.761719 1171.046875 1039.808594 1207.738281 C 966.683594 1303.71875 916.292969 1437.390625 995.714844 1529.441406 C 1037.289062 1577.636719 1107.21875 1602.375 1175.988281 1605.976562 C 1244.75 1609.585938 1313 1594.359375 1378.328125 1575.1875 C 1408.941406 1566.210938 1442.289062 1556.296875 1472.609375 1565.984375 C 1521.941406 1581.726562 1533.351562 1643.632812 1506.511719 1683.199219 C 1479.660156 1722.769531 1428.539062 1743.980469 1379.128906 1759.496094 C 1239.480469 1803.359375 1080.179688 1818.710938 945.308594 1764.53125 C 810.441406 1710.347656 713.855469 1571.761719 757.324219 1447.328125 C 772.5 1403.878906 802.621094 1365.460938 818.988281 1322.355469 C 835.359375 1279.246094 834.398438 1225.582031 795.726562 1195.359375 C 756.910156 1165.019531 696.316406 1170.414062 648.144531 1187.558594 C 599.964844 1204.691406 555.792969 1231.683594 504.773438 1240.4375 C 395.636719 1259.15625 286.261719 1183.546875 251.824219 1090.761719 C 217.386719 997.976562 243.066406 895.59375 288.226562 806.425781 C 320.578125 742.539062 363.554688 679.710938 366.320312 609.851562 C 369.097656 539.980469 310.402344 461.621094 231 467.308594 C 193.300781 470.011719 160.839844 490.441406 126.75 504.839844 C 55.300781 535.03125 -42.722656 494.351562 20.527344 423.089844 C 64.804688 373.210938 204.234375 334.039062 270.269531 318" fill="#3b82f6"/></g></g></svg>