<?xml version="1.0" encoding="UTF-8" standalone="no"?><svg xmlns="http://www.w3.org/2000/svg" xmlns:xlink="http://www.w3.org/1999/xlink" fill="#eefaff" height="426.3" preserveAspectRatio="xMidYMid meet" version="1" viewBox="32.1 57.6 451.1 426.3" width="451.1" zoomAndPan="magnify"><g id="change1_1"><path d="M302.1,445.2c3.6-1.3,7.6,0.5,9,4.2c1.3,3.6-0.6,7.6-4.2,9c-70.1,25.5-148,7.9-200.4-44.4c-42.9-42.9-63.5-104-53.4-165.9 c0.6-3.8,4.2-6.4,8-5.8c3.8,0.6,6.4,4.2,5.8,8c-17.5,107.4,65.2,205.6,174.7,205.6C262.4,455.8,282.8,452.2,302.1,445.2L302.1,445.2 z M241.6,101.9c-3.9,0-7-3.1-7-7c0-3.9,3.1-7,7-7c100.6,0,183.8,78.2,190.5,178c0.3,3.9-2.7,7.2-6.5,7.5c-3.8,0.3-7.2-2.7-7.4-6.5 C411.9,174.3,334.9,101.9,241.6,101.9L241.6,101.9z M452.8,318.5c-30.4-30.4-79.7-30.4-110.1,0c-30.4,30.4-30.4,79.7,0,110 c30.4,30.4,79.7,30.4,110.1,0C483.2,398.2,483.2,348.9,452.8,318.5L452.8,318.5z M408.1,339.9c-9.2-9.2-24.9-2.7-24.9,10.3 c0,13,15.7,19.5,24.9,10.3C413.8,354.8,413.8,345.6,408.1,339.9L408.1,339.9z M414.5,383h-33.4c-6.2,0-11.2,5.1-11.2,11.2v17.3h55.9 v-17.3C425.7,388,420.7,383,414.5,383L414.5,383z M419,369.4c11.8,2.1,20.7,12.5,20.7,24.8v24.3c0,3.9-3.1,7-7,7h-69.9 c-3.9,0-7-3.1-7-7v-24.3c0-12.3,8.9-22.7,20.7-24.8c-16.6-18.3-3.5-47.8,21.2-47.8C422.5,321.6,435.6,351,419,369.4L419,369.4z M172.5,88c-30.4-30.4-79.7-30.4-110,0c-30.4,30.4-30.4,79.7,0,110.1c30.4,30.4,79.7,30.4,110,0S202.9,118.4,172.5,88L172.5,88z M127.8,109.4c-9.2-9.2-24.9-2.6-24.9,10.3c0,13,15.8,19.5,24.9,10.3C133.5,124.3,133.5,115.1,127.8,109.4L127.8,109.4z M134.2,152.5h-33.4c-6.2,0-11.2,5-11.2,11.2V181h55.8v-17.3C145.4,157.5,140.3,152.5,134.2,152.5L134.2,152.5z M138.6,138.9 c11.8,2.1,20.7,12.5,20.7,24.8V188c0,3.9-3.1,7-7,7H82.5c-3.9,0-7-3.1-7-7v-24.3c0-12.3,8.9-22.7,20.7-24.8 c-16.6-18.3-3.5-47.8,21.2-47.8S155.2,120.6,138.6,138.9L138.6,138.9z M306.1,219.6c3.3-1.9,7.6-0.8,9.5,2.6 c1.9,3.3,0.8,7.6-2.6,9.5l-8.2,4.8c-3.3,1.9-7.6,0.8-9.5-2.6c-1.9-3.3-0.8-7.6,2.6-9.5L306.1,219.6z M274.7,193.3 c2-3.3,6.2-4.5,9.6-2.5c3.3,1.9,4.5,6.2,2.6,9.5l-4.8,8.2c-1.9,3.3-6.2,4.5-9.6,2.5c-3.3-1.9-4.5-6.2-2.5-9.5L274.7,193.3z M234.3,187.5c0-3.9,3.1-7,7-7c3.9,0,7,3.1,7,7v8.2c0,3.9-3.1,7-7,7c-3.9,0-7-3.1-7-7V187.5z M195.9,200.3c-2-3.3-0.8-7.6,2.5-9.5 c3.3-2,7.6-0.8,9.6,2.5l4.8,8.2c1.9,3.3,0.8,7.6-2.6,9.5c-3.3,2-7.6,0.8-9.6-2.5L195.9,200.3z M169.6,231.7 c-3.3-1.9-4.5-6.2-2.6-9.6c1.9-3.3,6.2-4.5,9.5-2.5l8.2,4.7c3.3,1.9,4.5,6.2,2.6,9.6c-2,3.3-6.2,4.5-9.6,2.6L169.6,231.7z M162.5,272.1c-3.9,0-7-3.1-7-7c0-3.9,3.1-7,7-7h9.5c3.9,0,7,3.1,7,7c0,3.9-3.1,7-7,7H162.5z M320.2,258.1c3.9,0,7,3.1,7,7 c0,3.9-3.1,7-7,7h-9.5c-3.9,0-7-3.1-7-7c0-3.9,3.1-7,7-7H320.2z M229.1,353.8c8.2,12.3,16.3,12.3,24.5,0H229.1z M265.6,331.4h-48.5 c-3.5,0-3.5,8.5,0,8.5h48.5C269.1,339.9,269.1,331.4,265.6,331.4L265.6,331.4z M255.9,269.8c1.9-4.9,5.9-3.7,7.7-5.6 c2.2-2.4-1.9-5-5.8-3.6c-1,0.4-1.9,1.1-1.9,2.3V269.8z M226.7,269.6v-6.7c0-3.5-8.3-3.5-8.3,0c0,1.3,1.7,2.4,3.1,2.6 C224,265.9,225.9,267.5,226.7,269.6L226.7,269.6z M240.8,310.5c0,3.4-2.5,6.3-5.7,6.9h12.6c-3.2-0.6-5.7-3.5-5.7-6.9v-47.7 c0-22.1,36.3-22.1,36.3,0c0,8.2-6.5,14.8-14.4,16.3c-3.4,0.7-6.7-1.2-7.9-4.3v35.7c0,3.4-2.4,6.3-5.7,6.9h10 c5.4-27.1,24.2-25.2,24.2-54c0-23.8-19.3-43-43-43c-23.8,0-43,19.2-43,43c0,28.7,18.8,26.6,24.2,54h10c-3.3-0.6-5.7-3.5-5.7-6.9V275 c-1.2,3-4.4,4.8-7.7,4.2c-17.4-3.2-20.2-25.9-3.3-31.8c10.9-3.8,25,2,25,15.4V310.5z"/></g></svg>