<?xml version="1.0" encoding="UTF-8"?><svg xmlns="http://www.w3.org/2000/svg" xmlns:xlink="http://www.w3.org/1999/xlink" height="472.2" preserveAspectRatio="xMidYMid meet" version="1.0" viewBox="78.3 49.0 666.0 472.2" width="666.0" zoomAndPan="magnify"><g><g><g id="change1_3"><path d="M78.9,51.6c16.6,50.2,41.8,97.3,74.1,139.1c32.3,41.7,71.6,78,116,106.5c49.6,31.8,104.8,54.1,161.5,69.6 c29.7,8.1,59.8,13.9,90.1,19.5c30.7,5.7,61.5,11.4,91.2,21.2c49.2,16.1,98.3,45.8,121.8,93.8c2.9,5.9,5.2,11.9,7.2,18.1 c0.6,1.8,3.5,1.1,2.9-0.8c-15.1-47.5-55.6-81.7-99.8-101.9c-55.6-25.4-117.6-30.7-176.7-43.9c-58.3-13-115.6-32.3-168.1-61.1 c-48.6-26.7-92.2-61.8-128.4-103.9c-35.2-40.9-63.4-87.9-82.5-138.5c-2.3-6.2-4.5-12.4-6.6-18.6C81.2,49,78.3,49.7,78.9,51.6 L78.9,51.6z" fill="#fff9d3"/></g></g><g><g id="change1_1"><path d="M189.9,136.4C227.4,230,320.4,284,414,308.3c30,7.8,60.7,13,91.4,17c1.9,0.2,1.9-2.8,0-3 c-99.3-12.9-203.2-41.9-271.4-120.1c-17.2-19.8-31.4-42.2-41.2-66.6C192.1,133.8,189.2,134.6,189.9,136.4L189.9,136.4z" fill="#fff9d3"/></g></g><g><g id="change1_2"><path d="M263.8,170.2c13.8,24.4,33.7,44.7,57.8,59c1.7,1,3.2-1.6,1.5-2.6c-23.7-14-43.2-33.9-56.7-57.9 C265.5,167,262.9,168.5,263.8,170.2L263.8,170.2z" fill="#fff9d3"/></g></g></g></svg>