<?xml version="1.0" encoding="UTF-8" standalone="no"?><svg xmlns="http://www.w3.org/2000/svg" xmlns:xlink="http://www.w3.org/1999/xlink" fill="#ffffff" height="378" preserveAspectRatio="xMidYMid meet" version="1" viewBox="73.9 67.0 364.2 378.0" width="364.2" zoomAndPan="magnify"><g id="change1_1"><path d="M313.646,173.597c4.221,7.271,2.962,16.462-3.063,22.352c-1.268,1.239-2.691,2.282-4.245,3.105 c-2.359,1.258-5.048,1.987-7.771,2.11c-5.216,0.232-10.313-1.776-13.962-5.508c-2.278-2.331-3.899-5.229-4.687-8.376 c-1.573-6.315,0.335-13.06,4.979-17.601c5.039-4.928,12.572-6.549,19.195-4.125l4.123-11.27 c-10.938-4.002-23.384-1.327-31.71,6.814c-7.677,7.507-10.832,18.65-8.231,29.087c1.305,5.215,3.983,10.008,7.75,13.858 c5.719,5.85,13.572,9.137,21.731,9.137c0.446,0,0.896-0.01,1.344-0.029c4.5-0.203,8.953-1.416,12.867-3.502 c2.559-1.355,4.914-3.079,7.004-5.122c9.955-9.733,12.031-24.931,5.05-36.957L313.646,173.597z" fill="inherit"/><path d="M419.553,147.067c-10.233,0-18.561,8.327-18.561,18.562c0,8.133,5.266,15.045,12.561,17.547v21.657h-47.176v12h59.176 v-33.657c7.295-2.502,12.562-9.414,12.562-17.547C438.113,155.395,429.787,147.067,419.553,147.067z M419.553,172.19 c-3.617,0-6.561-2.943-6.561-6.562s2.942-6.562,6.561-6.562s6.562,2.943,6.562,6.562S423.17,172.19,419.553,172.19z" fill="inherit"/><path d="M351.414,201.196l18.293-6.374l0.4-3.127c0.391-3.033,0.592-6.126,0.592-9.186c0-3.067-0.201-6.16-0.592-9.193l-0.4-3.127 l-18.293-6.374c-0.775-2.215-1.689-4.379-2.733-6.475l8.329-17.152l-1.967-2.488c-1.076-1.354-2.204-2.668-3.373-3.945v-18.384 h41.079c2.503,7.296,9.414,12.562,17.548,12.562c10.234,0,18.562-8.327,18.562-18.562c0-10.235-8.326-18.562-18.562-18.562 c-8.134,0-15.045,5.267-17.548,12.562H339.67v19.741l-0.458-0.349l-17.519,8.154c-2.142-1.022-4.353-1.917-6.614-2.676l-6.51-17.91 l-3.186-0.393c-0.543-0.065-1.088-0.119-1.632-0.174V79.537h-67.188c-2.502-7.295-9.414-12.561-17.546-12.561 c-10.234,0-18.561,8.326-18.561,18.561c0,10.235,8.327,18.562,18.561,18.562c8.133,0,15.044-5.266,17.546-12.562h55.188v17.955 c-1.727,0.094-3.443,0.239-5.148,0.447l-3.193,0.393l-6.502,17.91c-2.271,0.759-4.481,1.653-6.622,2.676l-17.519-8.154 l-2.533,1.934c-0.515,0.392-1.018,0.792-1.521,1.195c-0.572-0.145-1.14-0.303-1.715-0.438c-8.819-2.093-17.959-3.171-27.286-3.171 c-12.561,0-24.934,1.986-36.773,5.906c-16.613,5.486-32.14,14.876-44.906,27.151c-8.792,8.427-16.266,18.128-22.208,28.854 c-9.986,18.013-15.322,38.519-15.438,59.302c-0.009,0.24-0.009,0.489-0.009,0.748c0,7.59,0.686,15.18,2.049,22.571l-22.083,52.007 l-6.458,15.225l35.606,9.728l19.856,62.678h49.636l11.981,38.572l147.261-42.18l-18.448-92.227 c5.211-8.204,9.434-16.971,12.551-26.083c3.492-10.138,5.64-20.747,6.388-31.525c0.205-2.878,0.313-5.826,0.313-8.766 c0-0.196,0-0.383-0.01-0.57c0.01-0.16,0-0.32,0-0.481c-0.002-0.349-0.015-0.695-0.019-1.043l0.212,0.099l2.542-1.934 c4.96-3.767,9.434-8.146,13.289-13.003l1.967-2.487l-8.329-17.152C349.725,205.575,350.639,203.411,351.414,201.196z M410.297,102.81c3.617,0,6.562,2.943,6.562,6.562s-2.943,6.562-6.562,6.562c-3.619,0-6.563-2.943-6.563-6.562 S406.678,102.81,410.297,102.81z M219.018,92.099c-3.618,0-6.561-2.943-6.561-6.562c0-3.617,2.943-6.561,6.561-6.561 s6.561,2.943,6.561,6.561C225.579,89.155,222.636,92.099,219.018,92.099z M328.053,252.262c-0.686,9.851-2.646,19.535-5.834,28.798 c-3.012,8.803-7.145,17.238-12.285,25.096c-0.106,0.16-0.213,0.32-0.319,0.49l-1.167,1.816l17.361,86.818l-127.733,36.585 l-7.896-25.417h21.639V395.76H182.92v0.002h-45.741L117.928,335l-29.433-8.045l25.032-58.936l-0.33-1.746 c-0.053-0.275-0.107-0.554-0.151-0.838l-0.026-0.106c-1.292-6.896-1.951-13.994-1.951-21.085v-0.401l0.009-0.205 c0.089-19.027,4.962-37.788,14.102-54.259c5.417-9.781,12.231-18.636,20.257-26.332c5.808-5.586,12.249-10.512,19.125-14.672 c6.868-4.16,14.173-7.546,21.727-10.04c10.761-3.563,22.003-5.362,33.423-5.362c6.298,0,12.507,0.543,18.573,1.604 c0.373,0.064,0.743,0.142,1.114,0.21c-0.509,0.58-1.017,1.16-1.506,1.755c-0.331,0.384-0.644,0.767-0.949,1.159l-1.976,2.488 l8.329,17.152c-1.036,2.096-1.958,4.26-2.732,6.475l-18.293,6.374l-0.4,3.127c-0.039,0.303-0.067,0.608-0.103,0.912h-30.931 c-2.502-7.296-9.414-12.562-17.547-12.562c-10.234,0-18.561,8.327-18.561,18.562s8.327,18.562,18.561,18.562 c8.133,0,15.044-5.266,17.546-12.562h30.554c0.093,1.83,0.247,3.659,0.48,5.467l0.4,3.127l18.293,6.374 c0.774,2.215,1.697,4.379,2.732,6.476l-5.969,12.292h-24.312v41.967c-7.295,2.502-12.561,9.414-12.561,17.547 c0,10.233,8.327,18.561,18.561,18.561s18.561-8.326,18.561-18.561c0-8.133-5.266-15.045-12.561-17.547v-29.967h15.736v-0.231 c2.901,3.118,6.07,5.997,9.48,8.582l2.533,1.934l17.519-8.154c2.141,1.022,4.351,1.918,6.622,2.676l6.502,17.911l3.192,0.392 c3.099,0.383,6.258,0.57,9.392,0.57c3.133,0,6.292-0.188,9.391-0.57l3.186-0.392l6.51-17.911c2.263-0.758,4.474-1.653,6.614-2.676 l4.028,1.875l2.375,1.105c0.029,0.483,0.066,0.966,0.089,1.451c0.08,1.594,0.135,3.197,0.144,4.801v0.107 c0.009,0.275,0.009,0.534,0.009,0.811C328.338,246.935,328.24,249.634,328.053,252.262z M179.853,180.229 c0,3.618-2.943,6.562-6.561,6.562s-6.561-2.943-6.561-6.562s2.943-6.562,6.561-6.562S179.853,176.61,179.853,180.229z M225.579,279.477c0,3.619-2.943,6.562-6.561,6.562s-6.561-2.942-6.561-6.562c0-3.306,2.46-6.041,5.644-6.488h1.834 C223.119,273.436,225.579,276.171,225.579,279.477z M337.811,230.277l-2.122-0.988l-11.228-5.232l-3.029-1.405l-2.34,1.252 c-2.994,1.61-6.205,2.905-9.529,3.859l-2.56,0.733l-6.083,16.743c-3.281,0.238-6.58,0.238-9.852,0l-6.084-16.743l-2.56-0.733 c-3.331-0.954-6.534-2.249-9.528-3.859l-2.342-1.252l-16.378,7.626c-2.498-2.104-4.83-4.38-6.971-6.825l7.78-16.036l-1.279-2.292 c-1.636-2.939-2.968-6.075-3.942-9.339l-0.749-2.505l-17.101-5.947c-0.122-1.61-0.183-3.221-0.183-4.823 c0-1.61,0.061-3.221,0.183-4.831l17.101-5.947l0.749-2.505c0.975-3.264,2.306-6.399,3.942-9.339l1.279-2.292l-7.78-16.035 c0.713-0.81,1.445-1.603,2.202-2.378c1.506-1.56,3.098-3.042,4.769-4.447l16.378,7.626l2.342-1.253 c1.147-0.613,2.342-1.192,3.551-1.713c1.932-0.844,3.926-1.559,5.979-2.146l2.559-0.733l6.084-16.743 c3.281-0.247,6.57-0.247,9.853,0l6.083,16.743l2.56,0.733c3.324,0.954,6.535,2.258,9.529,3.859l2.34,1.253l16.38-7.626 c2.497,2.104,4.829,4.379,6.971,6.825l-7.789,16.044l1.279,2.283c1.646,2.939,2.969,6.075,3.942,9.339l0.748,2.505l17.103,5.947 c0.121,1.61,0.19,3.221,0.19,4.831c0,1.603-0.069,3.213-0.19,4.823l-17.103,5.947l-0.748,2.505 c-0.975,3.264-2.298,6.399-3.942,9.339l-1.279,2.283l7.789,16.045C342.641,225.897,340.309,228.173,337.811,230.277z" fill="inherit"/></g></svg>