<?xml version="1.0" encoding="UTF-8" standalone="no"?><svg xmlns="http://www.w3.org/2000/svg" xmlns:xlink="http://www.w3.org/1999/xlink" data-name="Layer 18" fill="#000000" height="416.8" preserveAspectRatio="xMidYMid meet" version="1" viewBox="33.8 163.3 829.4 416.8" width="829.4" zoomAndPan="magnify"><g id="change1_1"><path d="M756.88,502.15c-17.85,0-35.46-5.9-47.34-20.08-9.82-11.73-13.89-26.86-17.82-41.5-2.05-7.62-4.17-15.5-7.07-22.84-10.17-25.68-31.66-46.88-57.47-56.71-25.81-9.83-55.96-8.29-80.64,4.12-8.04,4.04-15.63,9.24-22.96,14.26-8.36,5.72-17.01,11.64-26.39,15.91-17.45,7.93-41.02,9.26-54.33-5.63-10.34-11.57-10.3-27.85-10.26-43.6,.01-5.56,.03-11.31-.42-16.73-2.65-31.97-24.63-60.97-54.7-72.14-30.07-11.18-65.66-3.58-88.54,18.9-6.66,6.54-12.27,14.26-17.69,21.72-5.17,7.11-10.52,14.46-16.78,20.83-12.73,12.93-33.1,22.37-49.9,14.28-11.93-5.74-20.07-19.88-21.77-37.82-.72-7.55-.45-15.25-.19-22.69,.25-7.36,.52-14.98-.18-22.41-3.05-32.74-25.78-62.51-56.56-74.07s-67.49-4.11-91.33,18.53l-.69-.73c24.12-22.9,61.24-30.43,92.37-18.74,31.13,11.69,54.12,41.8,57.21,74.91,.7,7.5,.43,15.14,.18,22.54-.26,7.41-.52,15.08,.19,22.56,1.67,17.59,9.6,31.42,21.21,37.01,16.35,7.87,36.26-1.4,48.75-14.08,6.22-6.31,11.54-13.63,16.69-20.71,5.45-7.49,11.08-15.24,17.8-21.84,23.16-22.75,59.16-30.44,89.59-19.13,30.43,11.31,52.67,40.65,55.35,73,.45,5.47,.44,11.24,.42,16.82-.04,15.56-.08,31.64,10,42.93,12.97,14.52,36.05,13.17,53.17,5.39,9.3-4.23,17.91-10.12,26.24-15.82,7.36-5.04,14.98-10.25,23.08-14.33,24.92-12.53,55.37-14.09,81.44-4.16,26.07,9.93,47.77,31.34,58.05,57.28,2.93,7.39,5.05,15.3,7.11,22.95,3.9,14.53,7.94,29.56,17.62,41.11,20.96,25.03,60.1,23.8,86.28,9.93,28.34-15.02,48.27-42.36,65.85-66.48l.81,.59c-17.65,24.21-37.65,51.65-66.19,66.77-11.73,6.21-26.03,9.92-40.17,9.92Z" fill="#034086"/></g><g id="change1_2"><path d="M750.49,505.46c-17.67,0-35.16-5.62-47.07-19.16-9.94-11.29-14.37-25.91-18.65-40.04-2.21-7.29-4.49-14.82-7.5-21.85-1.54-3.59-3.33-7.15-5.31-10.58-11.65-20.11-30.64-36.46-52.08-44.86-25.28-9.9-54.81-9.21-79,1.86-7.86,3.6-15.28,8.27-22.45,12.79-8.17,5.15-16.62,10.47-25.75,14.21-16.99,6.96-39.85,7.41-52.62-7.29-10.05-11.61-10.16-27.74-10.27-43.33-.04-5.49-.08-11.17-.56-16.54-2.8-31.47-24.21-60.4-53.3-72-28.95-11.43-63.65-5.06-86.36,15.85-6.59,6.07-12.19,13.27-17.61,20.23-5.16,6.64-10.5,13.5-16.73,19.45-11.72,11.2-31.62,21.34-49.15,13.04-10.75-5.09-18.59-16.87-21.5-32.3-.25-1.31-.46-2.65-.63-3.99-.92-7.22-.91-14.57-.89-21.68,.01-7.03,.02-14.3-.87-21.39-3.94-31.29-26.82-59.57-56.93-70.38-30.2-10.85-66.38-3.58-90.03,18.09l-.68-.74c23.92-21.91,60.5-29.26,91.04-18.29,30.46,10.94,53.6,39.55,57.59,71.2,.9,7.15,.89,14.45,.88,21.51-.01,7.08-.02,14.4,.89,21.55,.17,1.32,.38,2.64,.62,3.93,2.85,15.12,10.49,26.63,20.95,31.58,17.07,8.09,36.54-1.87,48.03-12.85,6.17-5.89,11.49-12.73,16.63-19.34,5.44-7,11.07-14.23,17.72-20.36,22.98-21.17,58.1-27.61,87.4-16.05,29.43,11.73,51.1,41,53.93,72.84,.48,5.41,.52,11.11,.56,16.63,.11,15.42,.22,31.36,10.03,42.69,12.44,14.32,34.82,13.85,51.48,7.02,9.05-3.71,17.46-9.01,25.6-14.13,7.2-4.54,14.64-9.23,22.56-12.85,24.43-11.18,54.26-11.88,79.78-1.88,21.65,8.48,40.82,24.99,52.58,45.29,2.01,3.47,3.81,7.06,5.37,10.69,3.04,7.08,5.32,14.65,7.54,21.96,4.25,14.03,8.64,28.54,18.44,39.67,21.04,23.9,59.79,22.71,85.57,9.45,28.41-14.6,48.37-41,65.99-64.29l.8,.6c-17.68,23.38-37.72,49.87-66.33,64.58-11.55,5.94-25.69,9.48-39.7,9.48Z" fill="#034086"/></g><g id="change1_3"><path d="M743.87,508.99c-17.37,0-34.5-5.44-46.57-18.46-10.07-10.86-14.86-24.96-19.5-38.61-2.36-6.94-4.8-14.12-7.91-20.85-1.6-3.46-3.45-6.91-5.48-10.22-12.08-19.74-30.49-35.35-51.84-43.96-24.74-9.97-53.66-10.12-77.37-.39-7.67,3.15-14.91,7.29-21.92,11.31-7.99,4.58-16.25,9.31-25.13,12.53-16.53,5.99-38.69,5.55-50.91-8.95-9.76-11.65-10.03-27.62-10.29-43.07-.09-5.43-.19-11.04-.7-16.36-2.95-31.09-23.81-59.96-51.89-71.85-27.75-11.74-61.57-6.6-84.18,12.8-6.52,5.6-12.12,12.29-17.53,18.77-5.15,6.16-10.48,12.53-16.65,18.05-11.64,10.42-31.3,19.76-48.4,11.79-14.42-6.72-19.82-22.27-21.76-30.95-.28-1.25-.53-2.53-.73-3.81-1.12-6.88-1.36-13.89-1.59-20.66-.23-6.7-.47-13.62-1.56-20.37-4.83-29.82-27.86-56.63-57.3-66.7-29.61-10.14-65.27-3.04-88.73,17.65l-.66-.75c23.72-20.92,59.77-28.09,89.71-17.84,29.78,10.19,53.08,37.31,57.97,67.48,1.1,6.81,1.34,13.76,1.57,20.49,.23,6.74,.47,13.71,1.58,20.54,.2,1.25,.45,2.52,.72,3.75,1.9,8.5,7.17,23.72,21.21,30.26,16.67,7.77,35.9-1.41,47.31-11.63,6.12-5.47,11.42-11.81,16.55-17.95,5.44-6.5,11.07-13.23,17.65-18.89,22.88-19.64,57.13-24.85,85.22-12.97,28.41,12.03,49.51,41.23,52.5,72.67,.51,5.35,.61,10.99,.7,16.44,.26,15.27,.52,31.07,10.06,42.44,11.91,14.13,33.59,14.52,49.8,8.65,8.8-3.18,17.02-7.9,24.97-12.45,7.03-4.03,14.3-8.19,22.03-11.36,23.94-9.82,53.15-9.67,78.12,.39,21.55,8.69,40.14,24.44,52.32,44.36,2.05,3.35,3.91,6.83,5.53,10.33,3.14,6.77,5.58,13.98,7.95,20.95,4.81,14.16,9.35,27.54,19.28,38.25,21.34,23.02,58.84,21.94,84.86,8.98,26.35-13.12,45.54-35.89,66.13-62.1l.79,.62c-20.67,26.31-39.94,49.16-66.48,62.38-11.68,5.82-25.65,9.27-39.47,9.27Z" fill="#034086"/></g><g id="change1_4"><path d="M737.47,512.3c-17.18,0-34.2-5.17-46.29-17.54-10.21-10.43-15.37-24.03-20.36-37.19-2.5-6.6-5.09-13.42-8.3-19.83-1.67-3.34-3.57-6.66-5.64-9.87-12.33-19.07-30.66-34.36-51.61-43.05-24.55-10.18-52.16-11.14-75.73-2.65-7.47,2.69-14.53,6.31-21.35,9.81-7.82,4.01-15.9,8.16-24.54,10.85-14.92,4.66-36.75,4.67-49.19-10.61-9.5-11.67-9.91-27.49-10.31-42.79-.14-5.37-.29-10.92-.83-16.19-3.11-30.65-23.4-59.47-50.49-71.7-26.58-12-59.53-8.08-82,9.76-6.46,5.14-12.06,11.33-17.48,17.32-5.14,5.68-10.45,11.55-16.56,16.64-11.55,9.64-30.97,18.19-47.65,10.55-14.12-6.46-19.86-21.32-22.02-29.6-.31-1.19-.59-2.41-.84-3.63-1.32-6.55-1.81-13.2-2.29-19.63-.47-6.37-.96-12.96-2.26-19.36-5.73-28.36-28.9-53.68-57.67-63.02-29.03-9.43-64.16-2.51-87.42,17.2l-.65-.76c23.88-20.24,58.58-27.07,88.38-17.39,29.1,9.44,52.55,35.07,58.35,63.77,1.31,6.47,1.8,13.09,2.27,19.49,.47,6.4,.96,13.02,2.27,19.5,.24,1.2,.52,2.4,.83,3.57,2.12,8.11,7.72,22.65,21.47,28.94,16.26,7.45,35.26-.95,46.6-10.41,6.06-5.04,11.35-10.89,16.46-16.54,5.45-6.02,11.08-12.24,17.6-17.43,22.75-18.06,56.12-22.04,83.03-9.88,27.41,12.37,47.93,41.51,51.07,72.51,.54,5.3,.69,10.88,.83,16.26,.4,15.13,.81,30.79,10.09,42.19,12.12,14.89,33.5,14.85,48.12,10.29,8.56-2.67,16.6-6.79,24.38-10.79,6.85-3.51,13.93-7.15,21.47-9.87,23.81-8.58,51.68-7.61,76.46,2.66,21.13,8.76,39.62,24.19,52.06,43.43,2.09,3.24,4.01,6.59,5.7,9.96,3.23,6.46,5.83,13.3,8.34,19.92,5.18,13.66,10.08,26.56,20.14,36.84,21.41,21.89,58.54,20.85,84.15,8.5,26.45-12.74,45.66-34.67,66.28-59.92l.78,.63c-20.69,25.34-39.98,47.35-66.62,60.18-11.5,5.54-25.31,8.83-39.01,8.83Z" fill="#034086"/></g><g id="change1_5"><path d="M731.14,515.72c-2.04,0-4.07-.07-6.08-.22-16.2-1.17-30.03-6.88-40-16.52-10.36-10.01-15.9-23.11-21.26-35.79-2.64-6.24-5.37-12.7-8.66-18.79-1.74-3.22-3.69-6.42-5.81-9.51-12.59-18.41-30.83-33.38-51.37-42.14-24-10.24-51.01-12.03-74.1-4.9-7.26,2.24-14.12,5.33-20.75,8.32-7.66,3.45-15.57,7.02-23.99,9.19-14.49,3.75-35.62,2.78-47.48-12.27-9.22-11.7-9.79-27.37-10.33-42.53-.19-5.31-.39-10.79-.96-16-3.31-30.7-22.58-58.79-49.08-71.55-25.42-12.24-57.5-9.55-79.82,6.71-6.4,4.67-12.01,10.37-17.44,15.88-5.12,5.19-10.4,10.56-16.45,15.21-12.03,9.29-30.66,16.61-46.9,9.31-13.82-6.21-19.89-20.36-22.27-28.24-.35-1.14-.66-2.3-.94-3.44-1.52-6.21-2.26-12.5-2.98-18.58-.71-6.05-1.45-12.3-2.95-18.37-6.63-26.88-29.96-50.73-58.05-59.34-28.89-8.86-62.69-2.28-86.12,16.76l-.63-.78c23.68-19.25,57.85-25.9,87.04-16.94,28.41,8.71,52.01,32.84,58.72,60.05,1.52,6.13,2.26,12.41,2.98,18.49,.72,6.05,1.46,12.31,2.96,18.46,.28,1.13,.59,2.27,.93,3.39,2.34,7.72,8.27,21.57,21.73,27.62,15.84,7.12,34.08-.08,45.88-9.19,5.99-4.61,11.26-9.96,16.35-15.12,5.46-5.54,11.1-11.27,17.57-15.99,22.61-16.47,55.09-19.2,80.84-6.8,26.81,12.91,46.29,41.31,49.64,72.34,.58,5.25,.77,10.75,.97,16.08,.54,14.99,1.1,30.5,10.12,41.94,11.56,14.67,32.24,15.59,46.44,11.92,8.34-2.15,16.21-5.7,23.83-9.13,6.66-3,13.54-6.1,20.86-8.36,23.32-7.19,50.58-5.39,74.79,4.94,20.71,8.84,39.11,23.93,51.8,42.5,2.13,3.12,4.11,6.35,5.86,9.6,3.31,6.13,6.05,12.61,8.7,18.88,5.56,13.16,10.82,25.59,21.03,35.46,21.48,20.77,58.24,19.76,83.45,8.03,26.53-12.35,46.56-34.35,66.42-57.73l.76,.65c-19.93,23.46-40.04,45.55-66.76,57.99-11.94,5.56-25.4,8.52-38.48,8.52Z" fill="#034086"/></g><g id="change1_6"><path d="M724.29,519.1c-16.39,0-32.9-4.52-45.35-15.88-10.53-9.59-16.19-21.65-22.19-34.41-2.77-5.88-5.62-11.96-8.99-17.73-1.8-3.09-3.81-6.17-5.97-9.15-12.84-17.75-31-32.39-51.13-41.23-23.44-10.29-49.86-12.91-72.48-7.16-7.04,1.79-13.68,4.34-20.1,6.81-7.51,2.89-15.27,5.88-23.48,7.52-14.74,2.97-34.5,.87-45.76-13.92-8.94-11.74-9.66-27.26-10.35-42.26-.24-5.24-.5-10.66-1.1-15.82-3.47-30.28-22.18-58.31-47.68-71.41-24.27-12.46-55.47-10.99-77.64,3.66-6.36,4.22-11.74,9.19-17.44,14.46-5.08,4.7-10.34,9.56-16.31,13.77-11.94,8.47-30.34,15.04-46.15,8.06-13.51-5.95-19.91-19.4-22.53-26.89-.38-1.08-.73-2.17-1.05-3.26-1.71-5.86-2.71-11.78-3.67-17.52-.96-5.73-1.95-11.65-3.66-17.39-7.65-25.8-30.58-47.64-58.42-55.66-28.29-8.16-61.59-1.75-84.82,16.32l-.61-.79c23.48-18.26,57.12-24.74,85.71-16.49,28.15,8.11,51.35,30.22,59.1,56.33,1.72,5.8,2.72,11.75,3.69,17.51,.96,5.7,1.94,11.6,3.64,17.4,.31,1.07,.66,2.15,1.03,3.21,2.56,7.33,8.82,20.5,21.99,26.3,15.43,6.8,33.45,.35,45.17-7.96,5.92-4.18,11.15-9.01,16.21-13.69,5.48-5.06,11.14-10.3,17.57-14.56,22.46-14.85,54.07-16.34,78.65-3.72,25.78,13.24,44.71,41.58,48.21,72.18,.61,5.19,.86,10.63,1.1,15.89,.69,14.85,1.4,30.22,10.15,41.71,10.98,14.43,30.33,16.46,44.77,13.55,8.13-1.63,15.51-4.47,23.32-7.48,6.45-2.48,13.12-5.05,20.22-6.85,22.83-5.8,49.48-3.17,73.12,7.21,20.29,8.91,38.59,23.67,51.54,41.56,2.18,3.01,4.2,6.12,6.02,9.24,3.39,5.8,6.25,11.9,9.03,17.8,5.96,12.67,11.58,24.64,21.96,34.1,22.56,20.58,58.7,18.34,82.74,7.55,26.67-11.96,46.7-33.1,66.56-55.54l.75,.66c-19.93,22.53-40.04,43.74-66.9,55.79-11.09,4.98-24.74,8.15-38.47,8.15Z" fill="#034086"/></g><g id="change1_7"><path d="M718.44,522.47c-17.58,0-34.09-5.12-45.62-15.02-10.71-9.18-16.76-20.78-23.17-33.07-2.88-5.51-5.85-11.21-9.27-16.63-1.88-2.97-3.94-5.93-6.14-8.8-13.1-17.09-31.17-31.41-50.89-40.33-22.88-10.34-48.7-13.78-70.85-9.42-6.79,1.34-13.2,3.36-19.4,5.31-7.72,2.44-15.02,4.74-23.04,5.86-6.93,.97-30.58,2.73-44.04-15.58-8.66-11.78-9.53-27.15-10.38-42.01-.29-5.18-.6-10.53-1.23-15.62-3.62-29.87-21.79-57.84-46.27-71.26-23.12-12.67-53.44-12.42-75.46,.62-6.33,3.76-11.74,8.28-17.48,13.06-5.04,4.2-10.25,8.55-16.13,12.32-5.76,3.71-26.04,15.18-45.39,6.82-12.54-5.42-19.31-16.87-22.78-25.53-.41-1.01-.79-2.05-1.15-3.08-1.9-5.5-3.14-11.06-4.34-16.44-1.21-5.42-2.46-11.02-4.37-16.43-8.58-24.29-31.66-44.69-58.79-51.98-27.7-7.46-60.48-1.22-83.52,15.88l-.6-.8c23.27-17.28,56.39-23.58,84.38-16.04,27.45,7.38,50.79,28.03,59.48,52.61,1.94,5.47,3.19,11.1,4.41,16.55,1.19,5.35,2.43,10.88,4.31,16.33,.35,1.02,.73,2.04,1.13,3.03,3.4,8.48,10.03,19.71,22.25,24.99,18.9,8.17,38.8-3.1,44.46-6.74,5.82-3.74,11.01-8.06,16.03-12.24,5.51-4.59,11.21-9.34,17.61-13.15,22.31-13.21,53.04-13.46,76.45-.63,24.76,13.57,43.12,41.84,46.78,72.01,.63,5.13,.94,10.5,1.24,15.69,.84,14.72,1.7,29.94,10.18,41.47,13.13,17.86,36.3,16.14,43.09,15.18,7.94-1.11,15.19-3.4,22.88-5.82,6.23-1.96,12.66-3.99,19.5-5.34,22.35-4.4,48.39-.94,71.45,9.49,19.86,8.98,38.07,23.41,51.27,40.63,2.21,2.89,4.3,5.87,6.19,8.87,3.44,5.45,6.42,11.17,9.31,16.7,6.36,12.2,12.37,23.71,22.93,32.77,19.4,16.65,53.13,19.57,82.04,7.08,26.81-11.57,47.65-32.7,66.7-53.35l.73,.68c-19.12,20.73-40.04,41.94-67.04,53.59-12.1,5.23-25.05,7.78-37.46,7.78Z" fill="#034086"/></g><g id="change1_8"><path d="M711.28,525.91c-15.94,0-31.99-4.09-44.58-14.23-10.91-8.78-17.37-19.94-24.2-31.75-2.97-5.13-6.04-10.43-9.49-15.5-1.93-2.84-4.05-5.68-6.3-8.44-13.36-16.43-31.35-30.43-50.66-39.42-22.31-10.38-47.54-14.64-69.23-11.67-6.51,.89-12.67,2.38-18.62,3.83-7.62,1.85-14.81,3.59-22.67,4.18-6.7,.51-29.56,.76-42.32-17.24-8.38-11.82-9.4-27.04-10.4-41.76-.34-5.11-.7-10.39-1.36-15.43-3.84-29.93-21.03-57.18-44.87-71.12-22.32-13.05-51.08-14-73.29-2.43-6.32,3.31-11.78,7.37-17.57,11.67-4.98,3.7-10.13,7.52-15.89,10.84-15.27,8.86-31.95,10.94-44.64,5.58-12.23-5.17-19.28-16-23.03-24.17-.44-.95-.86-1.93-1.25-2.9-2.09-5.14-3.57-10.32-5-15.33-1.46-5.11-2.97-10.4-5.11-15.5-9.51-22.76-32.73-41.72-59.17-48.31-27.52-6.87-59.03-.95-82.22,15.44l-.58-.82c23.43-16.55,55.24-22.53,83.04-15.59,26.73,6.66,50.23,25.85,59.85,48.89,2.16,5.16,3.68,10.47,5.15,15.61,1.42,4.98,2.9,10.14,4.96,15.23,.39,.96,.8,1.92,1.24,2.86,3.68,8.01,10.58,18.62,22.51,23.67,12.4,5.24,28.75,3.18,43.75-5.52,5.71-3.29,10.84-7.1,15.79-10.78,5.82-4.32,11.31-8.4,17.7-11.75,22.5-11.73,51.65-10.77,74.25,2.45,24.1,14.09,41.48,41.62,45.35,71.85,.66,5.07,1.02,10.36,1.37,15.49,.98,14.58,2,29.66,10.22,41.25,12.46,17.57,34.86,17.32,41.43,16.82,7.78-.58,14.93-2.31,22.51-4.15,5.98-1.45,12.16-2.95,18.72-3.84,21.87-2.99,47.3,1.29,69.78,11.76,19.44,9.05,37.55,23.15,51.01,39.69,2.26,2.79,4.4,5.65,6.35,8.51,3.48,5.1,6.55,10.42,9.53,15.56,6.79,11.73,13.2,22.81,23.96,31.48,22.83,18.4,57.3,16.57,81.33,6.61,27.01-11.19,47.83-31.41,66.84-51.16l.72,.69c-19.09,19.83-40,40.13-67.18,51.39-11.09,4.6-24.38,7.48-37.76,7.48Z" fill="#034086"/></g><g id="change1_9"><path d="M705.3,529.27c-17,0-33.01-4.54-44.72-13.36-11.14-8.38-18.02-19.12-25.31-30.48-3.03-4.74-6.17-9.63-9.64-14.33-2-2.71-4.18-5.43-6.47-8.08-13.62-15.78-31.53-29.46-50.42-38.51-21.73-10.42-46.37-15.5-67.6-13.93-6.2,.45-12.06,1.43-17.73,2.37-7.54,1.25-14.67,2.43-22.4,2.47-8.33,.06-28.85-1.7-40.59-18.89-8.1-11.86-9.28-26.93-10.42-41.51-.4-5.04-.8-10.24-1.49-15.22-4-29.54-20.65-56.73-43.46-70.97-21.16-13.21-49.08-15.36-71.12-5.48-6.33,2.86-11.87,6.47-17.73,10.29-4.9,3.19-9.96,6.49-15.58,9.36-7.28,3.75-26.14,11.67-43.88,4.33-11.92-4.93-19.24-15.13-23.28-22.81-.48-.91-.93-1.82-1.36-2.72-2.26-4.77-3.97-9.56-5.63-14.19-1.72-4.82-3.5-9.8-5.87-14.6-10.6-21.56-33.42-38.66-59.55-44.63-26.92-6.17-57.92-.42-80.92,15l-.56-.83c23.22-15.57,54.53-21.37,81.7-15.14,26.42,6.04,49.5,23.35,60.22,45.17,2.39,4.85,4.18,9.86,5.91,14.7,1.65,4.61,3.35,9.38,5.59,14.1,.42,.89,.87,1.78,1.34,2.68,3.96,7.54,11.13,17.54,22.78,22.35,17.35,7.18,35.88-.62,43.04-4.3,5.58-2.84,10.62-6.13,15.49-9.31,5.89-3.84,11.46-7.47,17.86-10.36,22.33-10.02,50.62-7.85,72.06,5.54,23.06,14.39,39.89,41.86,43.92,71.68,.69,5,1.1,10.23,1.5,15.28,1.13,14.45,2.3,29.38,10.25,41.03,11.47,16.8,31.61,18.54,39.76,18.46,7.65-.04,14.74-1.21,22.24-2.46,5.69-.94,11.58-1.92,17.82-2.38,21.4-1.58,46.23,3.54,68.11,14.03,19.01,9.12,37.03,22.88,50.74,38.76,2.31,2.67,4.5,5.41,6.52,8.15,3.49,4.73,6.64,9.64,9.68,14.38,7.24,11.29,14.07,21.95,25.07,30.23,19.83,14.95,52.24,17.42,80.63,6.13,27.22-10.8,48.85-30.95,66.98-48.98l.71,.71c-18.2,18.1-39.92,38.32-67.32,49.2-11.99,4.76-24.69,7.1-36.88,7.1Z" fill="#034086"/></g><g id="change1_10"><path d="M698.6,532.74c-16.63,0-32.27-4.27-44.14-12.6-11.41-8-18.74-18.33-26.51-29.26-3.07-4.33-6.25-8.8-9.7-13.12-2.08-2.6-4.31-5.2-6.63-7.73-13.9-15.13-31.72-28.49-50.18-37.61-20.88-10.31-44.61-16.2-65.24-16.2-.25,0-.5,0-.75,0-5.84,.04-11.37,.51-16.71,.96-7.52,.64-14.63,1.24-22.27,.7-9.93-.69-28.18-4.27-38.86-20.54-7.82-11.91-9.15-26.84-10.45-41.27-.44-4.96-.9-10.09-1.62-15.01-4.23-29.6-19.95-56.08-42.06-70.83-20.03-13.36-47.09-16.7-68.95-8.52-6.38,2.41-12.02,5.57-17.99,8.92-4.78,2.68-9.72,5.45-15.17,7.87-7.24,3.24-25.94,10.03-43.12,3.09-9.32-3.76-17.23-10.98-23.53-21.45-.51-.85-1-1.69-1.46-2.54-2.42-4.38-4.35-8.78-6.22-13.02-2.09-4.75-4.06-9.23-6.66-13.73-11.54-19.99-34.51-35.69-59.93-40.96-26.31-5.47-56.82,.11-79.63,14.56l-.54-.84c23.02-14.59,53.81-20.22,80.36-14.69,25.69,5.33,48.91,21.21,60.59,41.44,2.63,4.55,4.71,9.26,6.71,13.82,1.86,4.23,3.78,8.6,6.18,12.94,.46,.83,.94,1.66,1.44,2.5,6.18,10.28,13.93,17.36,23.05,21.04,16.82,6.79,35.21,.11,42.34-3.08,5.4-2.39,10.33-5.15,15.09-7.82,6-3.37,11.67-6.55,18.12-8.98,22.15-8.29,49.57-4.91,69.85,8.62,22.34,14.9,38.23,41.64,42.49,71.52,.72,4.94,1.18,10.09,1.63,15.06,1.28,14.31,2.61,29.12,10.29,40.81,10.45,15.91,28.35,19.42,38.09,20.09,7.57,.53,14.63-.07,22.12-.7,5.37-.46,10.92-.93,16.79-.97,.25,0,.5,0,.75,0,20.78,0,44.67,5.92,65.68,16.3,18.57,9.17,36.5,22.61,50.48,37.83,2.34,2.55,4.59,5.16,6.68,7.78,3.47,4.34,6.65,8.82,9.73,13.16,7.71,10.86,15,21.12,26.27,29.02,20.21,14.2,51.58,16.42,79.93,5.66,26.17-9.92,47.72-28.35,67.12-46.79l.69,.72c-19.48,18.51-41.13,37.02-67.46,47-12.05,4.57-24.64,6.82-36.72,6.82Z" fill="#034086"/></g><g id="change1_11"><path d="M692.14,536.07c-16.41,0-31.92-3.96-43.79-11.69-11.72-7.62-19.54-17.57-27.83-28.1-3.07-3.9-6.24-7.93-9.63-11.84-2.14-2.46-4.42-4.95-6.8-7.37-14.17-14.49-31.91-27.52-49.95-36.7-20.82-10.59-43.67-17.14-64.36-18.46-5.4-.34-10.53-.34-15.5-.34-7.57,0-14.71,0-22.34-1.16-9.54-1.43-27.06-6.22-37.13-22.19-7.54-11.96-9.03-26.74-10.48-41.04-.49-4.89-1-9.94-1.75-14.79-4.4-29.24-19.59-55.67-40.66-70.68-19.2-13.69-44.79-18.12-66.78-11.57-6.47,1.95-12.26,4.67-18.38,7.55-4.62,2.17-9.4,4.42-14.62,6.38-8.95,3.39-26.35,8.15-42.35,1.85-9.06-3.57-17.05-10.32-23.77-20.09-.54-.79-1.07-1.57-1.56-2.35-2.56-3.98-4.69-7.96-6.75-11.81-2.39-4.47-4.65-8.68-7.52-12.9-12.49-18.42-35.6-32.71-60.31-37.29-26.09-4.86-55.37,.42-78.33,14.12l-.51-.86c23.16-13.82,52.7-19.15,79.02-14.24,24.96,4.64,48.32,19.09,60.96,37.71,2.9,4.26,5.17,8.5,7.58,12.99,2.05,3.83,4.17,7.79,6.71,11.74,.49,.77,1.01,1.55,1.55,2.32,6.6,9.6,14.45,16.24,23.32,19.73,15.69,6.18,32.82,1.49,41.64-1.85,5.18-1.94,9.95-4.18,14.55-6.35,6.16-2.89,11.98-5.63,18.52-7.6,22.29-6.64,48.21-2.15,67.65,11.71,21.28,15.17,36.63,41.84,41.06,71.35,.75,4.87,1.26,9.94,1.76,14.84,1.43,14.18,2.91,28.85,10.33,40.61,9.85,15.64,27.06,20.33,36.43,21.74,7.55,1.14,14.66,1.14,22.19,1.14,4.98,0,10.13,0,15.56,.35,20.82,1.32,43.82,7.91,64.75,18.56,18.13,9.23,35.97,22.33,50.21,36.89,2.39,2.44,4.69,4.94,6.84,7.42,3.41,3.93,6.59,7.97,9.66,11.87,8.23,10.46,16.01,20.34,27.59,27.88,20.28,13.22,51.38,15.26,79.22,5.19,26.43-9.55,47.95-27.08,67.27-44.6l.67,.74c-19.39,17.59-41.01,35.2-67.6,44.8-11.87,4.29-24.34,6.41-36.32,6.41Z" fill="#034086"/></g><g id="change1_12"><path d="M685.43,539.52c-16.03,0-31.18-3.69-43.2-10.92-12.09-7.27-20.46-16.86-29.33-27.01-3.01-3.45-6.12-7.01-9.39-10.48-2.21-2.34-4.55-4.7-6.97-7.02-14.67-14.06-31.87-26.43-49.72-35.79-20.15-10.57-42.43-17.92-62.75-20.72-4.87-.67-9.51-1.09-14.01-1.49-7.71-.69-14.99-1.34-22.68-3.18-11.18-2.65-26.4-8.94-35.4-23.83-7.26-12.01-8.91-26.66-10.5-40.82-.54-4.81-1.1-9.78-1.87-14.56-4.57-28.9-19.24-55.27-39.25-70.54-18.08-13.79-42.84-19.39-64.62-14.61-6.68,1.49-12.72,3.78-19.11,6.2-4.36,1.65-8.87,3.36-13.74,4.86-10.92,3.37-27,6.2-41.59,.61-8.91-3.41-16.76-9.54-24.02-18.73-.58-.73-1.13-1.45-1.67-2.17-2.66-3.56-4.96-7.11-7.19-10.53-2.73-4.21-5.31-8.18-8.48-12.14-13.64-17.08-36.33-29.65-60.7-33.62-25.47-4.17-54.27,.94-77.03,13.68l-.49-.87c22.96-12.84,52-18,77.68-13.79,24.61,4.02,47.53,16.72,61.32,33.99,3.2,3.99,5.79,7.99,8.53,12.22,2.22,3.42,4.51,6.95,7.15,10.48,.53,.71,1.08,1.43,1.65,2.15,7.14,9.04,14.86,15.07,23.59,18.42,14.32,5.49,30.17,2.69,40.94-.63,4.84-1.49,9.34-3.19,13.68-4.84,6.43-2.44,12.5-4.74,19.25-6.24,22.06-4.84,47.13,.83,65.44,14.79,20.51,15.65,34.96,41.59,39.63,71.18,.78,4.8,1.34,9.78,1.88,14.6,1.58,14.06,3.22,28.59,10.37,40.42,8.82,14.6,23.78,20.77,34.77,23.38,7.61,1.82,14.86,2.47,22.54,3.16,4.5,.4,9.16,.82,14.05,1.5,20.42,2.81,42.82,10.21,63.08,20.83,17.93,9.4,35.2,21.84,49.94,35.96,2.43,2.33,4.79,4.7,7,7.06,3.29,3.49,6.4,7.06,9.42,10.51,8.81,10.09,17.13,19.62,29.09,26.81,20.66,12.44,50.75,14.25,78.52,4.71,26.8-9.19,49.11-26.6,67.41-42.42l.65,.76c-18.37,15.88-40.78,33.36-67.74,42.6-11.93,4.1-24.29,6.12-36.17,6.12Z" fill="#034086"/></g><g id="change1_13"><path d="M678.93,542.85c-15.8,0-30.8-3.38-42.81-10.02-12.55-6.93-21.54-16.2-31.05-26.02-2.87-2.96-5.84-6.02-8.92-9.03-2.28-2.23-4.68-4.47-7.13-6.66-14.99-13.43-32.1-25.49-49.48-34.89-19.42-10.5-41.13-18.67-61.13-22.99-4.19-.91-8.22-1.65-12.11-2.36-8-1.47-15.55-2.85-23.42-5.48-15.55-5.16-26.87-13.73-33.66-25.48-6.98-12.07-8.79-26.58-10.54-40.62-.59-4.72-1.2-9.61-2-14.31-4.82-29.02-18.61-54.68-37.85-70.4-17.25-14.1-40.6-20.7-62.46-17.66-6.94,.99-13.3,2.82-20.03,4.77-4.04,1.17-8.22,2.37-12.68,3.43-15.84,3.77-29.57,3.56-40.82-.63-8.61-3.21-16.55-8.89-24.25-17.37-.61-.67-1.2-1.33-1.77-1.99-2.71-3.11-5.13-6.2-7.47-9.18-3.12-3.98-6.06-7.73-9.58-11.45-14.59-15.45-37.43-26.65-61.09-29.96-24.84-3.49-53.15,1.46-75.74,13.24l-.46-.89c22.76-11.87,51.3-16.86,76.34-13.34,23.88,3.34,46.94,14.65,61.68,30.26,3.55,3.75,6.51,7.52,9.64,11.52,2.33,2.98,4.74,6.05,7.44,9.14,.57,.65,1.15,1.31,1.76,1.97,7.6,8.36,15.4,13.95,23.87,17.1,11.06,4.12,24.6,4.32,40.24,.6,4.44-1.06,8.6-2.26,12.63-3.42,6.76-1.95,13.15-3.8,20.17-4.8,22.13-3.08,45.77,3.6,63.23,17.88,19.42,15.88,33.35,41.76,38.2,71.01,.8,4.72,1.41,9.62,2,14.35,1.74,13.94,3.54,28.35,10.41,40.24,6.66,11.52,17.8,19.95,33.11,25.03,7.8,2.61,15.32,3.98,23.29,5.45,3.9,.71,7.94,1.46,12.15,2.37,20.09,4.35,41.89,12.55,61.4,23.09,17.46,9.43,34.63,21.54,49.68,35.02,2.46,2.2,4.87,4.45,7.16,6.69,3.09,3.01,6.06,6.08,8.94,9.05,9.46,9.76,18.4,18.99,30.82,25.84,20.74,11.47,50.56,13.1,77.83,4.24,27.13-8.8,49.37-25.27,67.55-40.23l.63,.77c-18.25,15.01-40.59,31.55-67.88,40.41-11.77,3.82-24.01,5.71-35.81,5.71Z" fill="#034086"/></g><g id="change1_14"><path d="M672.2,546.3c-15.42,0-30.06-3.11-42.2-9.24-13.12-6.61-22.83-15.63-33.11-25.17-2.62-2.44-5.34-4.96-8.12-7.44-2.36-2.11-4.82-4.23-7.3-6.31-15.33-12.82-32.36-24.57-49.25-33.98-18.58-10.36-39.72-19.33-59.52-25.26-3.32-1-6.53-1.9-9.64-2.77-8.5-2.39-16.52-4.65-24.74-8.24-15.02-6.53-25.46-15.4-31.93-27.11-6.7-12.14-8.67-26.52-10.58-40.43-.63-4.63-1.29-9.42-2.11-14.04-5-28.73-18.29-54.34-36.45-70.26-16.18-14.19-38.72-21.92-60.3-20.71-7.34,.44-14.16,1.8-21.38,3.24-3.58,.71-7.28,1.45-11.18,2.1-16.05,2.68-29.16,2.07-40.05-1.87-11.06-4-19.27-11.05-24.49-16-.64-.6-1.26-1.21-1.87-1.81-2.68-2.62-5.14-5.22-7.51-7.73-3.58-3.79-6.97-7.36-10.92-10.86-15.75-14.01-38.16-23.59-61.49-26.29-24.57-2.86-51.7,1.81-74.45,12.8l-.44-.9c22.91-11.07,50.25-15.77,75-12.89,23.52,2.72,46.13,12.39,62.03,26.53,3.98,3.53,7.39,7.12,10.99,10.92,2.37,2.5,4.82,5.09,7.49,7.7,.6,.59,1.22,1.19,1.86,1.79,5.15,4.89,13.26,11.86,24.14,15.79,10.73,3.88,23.67,4.48,39.55,1.83,3.88-.65,7.58-1.39,11.15-2.1,7.25-1.45,14.1-2.81,21.51-3.26,21.83-1.24,44.64,6.6,61.02,20.96,18.6,16.31,31.66,41.46,36.77,70.84,.82,4.64,1.48,9.44,2.12,14.08,1.89,13.82,3.85,28.11,10.46,40.09,6.35,11.51,16.64,20.24,31.45,26.68,8.16,3.57,16.15,5.81,24.61,8.19,3.11,.88,6.33,1.78,9.66,2.78,19.86,5.95,41.07,14.96,59.71,25.35,16.95,9.45,34.03,21.23,49.41,34.09,2.49,2.08,4.96,4.21,7.33,6.33,2.79,2.49,5.5,5.01,8.13,7.45,10.23,9.5,19.89,18.46,32.88,25.01,20.82,10.51,50.37,11.95,77.13,3.76,27.66-8.45,50.71-24.77,67.7-38.04l.62,.79c-17.05,13.32-40.2,29.71-68.02,38.21-11.83,3.62-23.97,5.41-35.67,5.41Z" fill="#034086"/></g><g id="change1_15"><path d="M665.64,549.64c-15.16,0-29.63-2.81-41.75-8.35-13.86-6.33-24.44-15.16-35.65-24.5-2.25-1.88-4.52-3.77-6.84-5.66-2.42-1.98-4.94-3.98-7.47-5.95-15.75-12.26-32.71-23.7-49.02-33.08-22.39-12.87-43.85-22.08-57.9-27.54-2.12-.82-4.19-1.61-6.22-2.39-9.35-3.57-18.17-6.94-27.01-11.8-14.25-7.8-24.12-17.2-30.2-28.75-6.42-12.21-8.56-26.48-10.62-40.27-.68-4.53-1.38-9.22-2.22-13.75-5.27-28.9-17.72-53.8-35.04-70.12-15.38-14.49-36.57-23.15-58.15-23.76-7.95-.2-15.45,.64-23.39,1.53-2.9,.32-5.9,.66-9.01,.96-11.14,1.06-25.67,1.66-39.28-3.11-10.48-3.67-18.72-9.75-24.73-14.64-.67-.54-1.33-1.09-1.97-1.62-2.5-2.08-4.86-4.13-7.13-6.11-4.2-3.65-8.16-7.1-12.69-10.44-16.67-12.32-39.23-20.56-61.88-22.61-23.91-2.18-50.58,2.32-73.16,12.36l-.41-.91c22.73-10.11,49.58-14.64,73.65-12.44,22.83,2.07,45.57,10.39,62.39,22.81,4.56,3.36,8.54,6.82,12.75,10.49,2.27,1.98,4.62,4.03,7.12,6.1,.64,.53,1.3,1.07,1.97,1.62,5.94,4.84,14.09,10.86,24.43,14.48,13.43,4.7,27.82,4.1,38.85,3.06,3.1-.29,6.1-.63,9-.95,7.98-.89,15.51-1.73,23.53-1.54,21.81,.62,43.25,9.38,58.8,24.04,17.48,16.46,30.03,41.56,35.34,70.67,.85,4.55,1.55,9.24,2.23,13.79,2.05,13.71,4.17,27.89,10.52,39.95,5.98,11.36,15.72,20.63,29.79,28.34,8.78,4.83,17.58,8.18,26.89,11.74,2.03,.78,4.1,1.57,6.22,2.39,14.09,5.47,35.59,14.7,58.04,27.6,16.36,9.4,33.35,20.87,49.14,33.15,2.54,1.97,5.06,3.98,7.49,5.96,2.33,1.9,4.6,3.79,6.85,5.67,11.15,9.3,21.68,18.09,35.42,24.36,21.21,9.7,49.79,10.93,76.43,3.29,21.91-6.28,42.83-17.33,67.84-35.85l.6,.8c-25.11,18.59-46.13,29.7-68.16,36.01-11.67,3.35-23.72,5.01-35.37,5.01Z" fill="#034086"/></g><g id="change1_16"><path d="M658.88,553.07c-14.75,0-28.87-2.53-41.09-7.55-14.86-6.09-26.55-14.85-38.92-24.12-1.59-1.19-3.2-2.4-4.82-3.6-2.5-1.85-5.04-3.72-7.64-5.59-16.6-11.99-33.02-22.81-48.79-32.17-16.37-9.71-34.26-19.19-56.28-29.81l-1.32-.64c-11.22-5.42-20.91-10.09-30.76-16.72-8.58-5.75-20.86-15.16-28.46-30.38-6.15-12.3-8.45-26.46-10.68-40.15-.72-4.42-1.46-8.99-2.32-13.42-3.88-20.3-12.87-48.92-33.64-69.98-14.39-14.59-34.8-24.37-55.99-26.82-8.87-1-17.41-.76-26.46-.52-1.89,.05-3.82,.1-5.79,.15-12.53,.27-25.87-.06-38.5-4.34-9.9-3.35-18.17-8.59-24.96-13.28-.7-.48-1.4-.97-2.08-1.44-2.07-1.44-4.06-2.86-6.01-4.26-5.06-3.61-9.84-7.02-15.2-10.25-17.8-10.76-39.92-17.49-62.28-18.94-23.58-1.54-49.11,2.69-71.87,11.92l-.38-.93c22.9-9.29,48.58-13.54,72.31-11.99,22.52,1.46,44.8,8.24,62.74,19.08,5.39,3.25,10.19,6.67,15.26,10.3,1.95,1.39,3.93,2.81,6,4.25,.68,.48,1.37,.95,2.07,1.44,6.73,4.65,14.93,9.85,24.71,13.16,12.49,4.23,25.72,4.56,38.16,4.29,1.97-.04,3.89-.1,5.78-.15,9.08-.25,17.67-.48,26.6,.52,21.41,2.48,42.04,12.36,56.59,27.11,20.95,21.24,30,50.06,33.91,70.49,.86,4.44,1.61,9.02,2.33,13.45,2.21,13.62,4.5,27.7,10.58,39.87,7.5,15,19.65,24.3,28.13,30,9.79,6.59,19.45,11.25,30.63,16.65l1.32,.64c22.05,10.64,39.96,20.13,56.36,29.86,15.8,9.37,32.24,20.21,48.87,32.22,2.6,1.88,5.15,3.75,7.65,5.6,1.63,1.21,3.23,2.41,4.83,3.61,12.32,9.24,23.96,17.96,38.7,24,21.31,8.75,49.62,9.8,75.73,2.81,21.96-5.87,43.56-16.56,67.98-33.67l.57,.82c-24.52,17.17-46.22,27.92-68.3,33.81-11.74,3.14-23.71,4.7-35.28,4.7Z" fill="#034086"/></g><g id="change1_17"><path d="M652.23,556.42c-14.46,0-28.38-2.24-40.56-6.67-16.28-5.92-29.45-14.8-43.39-24.2l-1.61-1.08c-2.56-1.73-5.17-3.48-7.8-5.24-18.5-12.36-34.39-22.59-48.56-31.26-14.22-8.71-28.59-17.01-41.26-24.33-4.63-2.68-9.12-5.27-13.4-7.77-10.06-5.87-20.74-12.29-30.93-20.53-8.04-6.49-19.56-16.86-26.74-32.01-5.88-12.4-8.35-26.47-10.74-40.08-.75-4.29-1.53-8.73-2.41-13.04-5.79-28.97-16.94-53.12-32.24-69.84-13.67-14.94-32.79-25.55-53.83-29.88-10.05-2.04-19.54-2.55-30.52-3.14l-1.58-.09c-10.32-.52-24.45-1.24-37.73-5.57-9.67-3.15-18.07-7.81-25.19-11.93l-5.59-3.24c-6.43-3.74-12.5-7.27-19.18-10.49-18.61-9.01-40.87-14.43-62.69-15.26-22.87-.88-47.94,3.2-70.58,11.48l-.34-.94c22.76-8.33,47.96-12.43,70.96-11.54,21.95,.83,44.36,6.29,63.08,15.36,6.72,3.24,12.8,6.78,19.25,10.53l5.59,3.24c7.07,4.09,15.41,8.72,25,11.84,13.15,4.29,27.21,5,37.47,5.52l1.58,.09c11.02,.59,20.54,1.11,30.66,3.16,21.26,4.37,40.57,15.08,54.37,30.18,15.42,16.86,26.65,41.18,32.48,70.32,.88,4.32,1.66,8.77,2.41,13.06,2.38,13.54,4.84,27.54,10.66,39.82,7.09,14.96,18.5,25.23,26.46,31.66,10.13,8.2,20.77,14.59,30.8,20.45,4.29,2.5,8.77,5.09,13.4,7.76,12.68,7.33,27.05,15.63,41.28,24.34,14.19,8.68,30.08,18.92,48.6,31.29,2.64,1.76,5.25,3.51,7.81,5.24l1.61,1.08c13.89,9.37,27.01,18.22,43.17,24.09,21.73,7.92,49.08,8.77,75.04,2.34,22.04-5.45,44.32-15.75,68.13-31.48l.55,.83c-23.9,15.79-46.29,26.14-68.44,31.62-11.61,2.88-23.51,4.31-35.06,4.31Z" fill="#034086"/></g><g id="change1_18"><path d="M645.38,559.85c-14.01,0-27.55-1.96-39.82-5.87-16.85-5.36-30.92-13.52-46.25-22.84-2.63-1.6-5.29-3.23-7.97-4.88-13.16-8.1-27-16.86-40.39-25.33l-11.66-7.37c-17.81-11.25-34.63-21.88-49.33-32.03-12.67-8.75-21.57-15.84-29.77-23.7-8.11-7.76-18.27-18.6-25.01-33.63-5.62-12.53-8.27-26.54-10.83-40.09-.78-4.14-1.59-8.42-2.47-12.58-6.13-29.31-16.5-52.76-30.83-69.71-16.41-19.39-37.16-28.62-51.68-32.94-10.82-3.19-21.72-4.75-31.95-6.08l-2.71-.34c-10.62-1.33-22.66-2.83-34.25-6.46-9.36-2.93-17.8-6.95-25.24-10.49l-2.46-1.16c-8.25-3.89-15.76-7.35-23.98-10.44-19.57-7.36-41.39-11.36-63.09-11.58-22.12-.24-46.73,3.69-69.29,11.04l-.31-.95c22.67-7.39,47.39-11.34,69.61-11.09,21.81,.22,43.75,4.25,63.43,11.65,8.26,3.1,15.78,6.57,24.06,10.47l2.46,1.16c7.41,3.53,15.81,7.53,25.11,10.44,11.5,3.6,23.49,5.1,34.07,6.42l2.71,.34c10.28,1.33,21.22,2.9,32.11,6.11,14.65,4.36,35.59,13.67,52.16,33.25,14.44,17.07,24.88,40.67,31.05,70.14,.88,4.17,1.69,8.46,2.48,12.6,2.55,13.49,5.19,27.44,10.76,39.87,6.67,14.88,16.75,25.62,24.79,33.32,8.16,7.83,17.03,14.89,29.65,23.6,14.68,10.14,31.5,20.76,49.3,32.01l11.66,7.37c13.39,8.47,27.23,17.23,40.38,25.32,2.68,1.65,5.34,3.28,7.97,4.88,15.28,9.29,29.29,17.42,46.03,22.74,22.17,7.07,48.57,7.73,74.34,1.86,22.45-5.11,44.78-14.69,68.27-29.29l.53,.85c-23.58,14.66-46.01,24.29-68.57,29.42-11.7,2.67-23.54,3.99-35.05,3.99Z" fill="#034086"/></g><g id="change1_19"><path d="M638.56,563.21c-13.66,0-26.95-1.67-39.11-5-17.83-4.87-33.37-12.69-47.5-20.4-2.68-1.46-5.42-2.99-8.14-4.52-14.77-8.34-30.95-18.25-48.11-29.45-20.96-13.69-37.78-25.68-51.42-36.66-11.4-9.18-20.49-17.72-28.62-26.88-6.87-7.73-16.76-19.79-23.29-35.26-5.37-12.71-8.21-26.7-10.96-40.23-.8-3.94-1.63-8.01-2.5-11.98-6.51-29.77-16.13-52.53-29.43-69.57-12.19-15.62-29.31-28.07-49.52-36-9.06-3.54-18.57-6.21-31.8-8.93-2.57-.52-5.21-1.03-7.9-1.55-9.23-1.78-18.77-3.62-28.28-6.47-7.7-2.31-14.77-5.04-21.61-7.67-1.36-.52-2.7-1.04-4.03-1.55-.8-.3-1.59-.6-2.38-.9-9.89-3.69-17.71-6.28-25.37-8.4-20.08-5.57-42.03-8.3-63.49-7.9-21.59,.4-45.1,4.06-68.01,10.6l-.27-.96c22.98-6.56,46.59-10.24,68.26-10.64,21.56-.4,43.61,2.34,63.78,7.93,7.69,2.13,15.54,4.73,25.45,8.43,.79,.3,1.59,.6,2.39,.9,1.33,.51,2.67,1.02,4.03,1.55,6.82,2.63,13.88,5.35,21.54,7.65,9.46,2.84,18.97,4.67,28.18,6.45,2.7,.52,5.34,1.03,7.91,1.55,13.29,2.74,22.85,5.42,31.97,8.98,20.38,8,37.65,20.56,49.95,36.32,13.39,17.16,23.08,40.05,29.62,69.97,.88,3.98,1.71,8.06,2.51,12,2.74,13.48,5.57,27.42,10.9,40.04,6.48,15.33,16.3,27.31,23.12,34.98,8.09,9.11,17.14,17.62,28.5,26.76,13.61,10.96,30.4,22.93,51.34,36.6,17.14,11.19,33.3,21.09,48.05,29.42,2.71,1.53,5.45,3.05,8.13,4.51,14.08,7.69,29.56,15.47,47.29,20.31,22.32,6.11,48.47,6.6,73.65,1.38,22.9-4.74,45.28-13.61,68.41-27.11l.5,.86c-23.23,13.55-45.7,22.46-68.71,27.22-11.61,2.41-23.44,3.61-35,3.61Z" fill="#034086"/></g><g id="change1_20"><path d="M631.53,566.63c-13.14,0-26-1.4-38.19-4.2-15.48-3.55-30.52-9.09-48.76-17.96-2.75-1.34-5.55-2.74-8.31-4.16-15.69-8.09-31.8-17.69-47.88-28.54-19.07-12.87-35.82-25.97-49.79-38.94-10.54-9.79-19.52-19.62-27.46-30.05-9.89-12.98-16.74-24.7-21.58-36.89-5.14-12.97-8.2-27.02-11.15-40.62-.8-3.66-1.62-7.44-2.47-11.14-7.03-30.8-15.67-52.21-28.03-69.43-11.47-15.99-27.85-29.5-47.36-39.07-9.36-4.57-19.42-8.32-31.66-11.79-5.23-1.47-10.61-2.82-16.3-4.24-6.25-1.56-12.71-3.18-19.1-5.01-5.07-1.45-10-2.99-14.78-4.48-3.85-1.2-7.48-2.33-11.09-3.4-.83-.24-1.66-.48-2.48-.72-9.37-2.67-18.12-4.75-26.76-6.37-20.56-3.86-42.05-5.28-63.89-4.21-20.84,1.01-43.29,4.43-66.72,10.16l-.24-.97c23.5-5.75,46.01-9.17,66.91-10.19,21.92-1.07,43.49,.35,64.13,4.23,8.66,1.62,17.44,3.71,26.85,6.39,.83,.24,1.66,.48,2.49,.72,3.62,1.07,7.26,2.2,11.11,3.4,4.77,1.49,9.7,3.02,14.75,4.47,6.37,1.83,12.83,3.44,19.07,5,5.7,1.43,11.09,2.77,16.33,4.25,12.3,3.48,22.41,7.25,31.83,11.85,19.66,9.64,36.17,23.26,47.73,39.38,12.44,17.34,21.13,38.86,28.19,69.79,.85,3.71,1.67,7.49,2.47,11.15,2.95,13.55,5.99,27.57,11.1,40.46,4.8,12.1,11.61,23.75,21.44,36.65,7.9,10.38,16.85,20.17,27.34,29.92,13.93,12.94,30.64,26.01,49.67,38.85,16.05,10.83,32.12,20.41,47.78,28.48,2.75,1.42,5.54,2.82,8.29,4.15,18.17,8.84,33.14,14.35,48.54,17.88,22.83,5.24,48.05,5.55,72.96,.9,23.07-4.3,46.13-12.69,68.56-24.92l.48,.88c-22.52,12.28-45.68,20.7-68.85,25.03-11.75,2.19-23.57,3.29-35.18,3.29Z" fill="#034086"/></g><g id="change1_21"><path d="M624.37,570c-12.65,0-25.15-1.12-37.14-3.35-16.49-3.06-32.84-8.14-50.01-15.52-2.83-1.22-5.69-2.5-8.48-3.8-16.2-7.58-32.23-16.88-47.65-27.64-18.04-12.58-34.24-26.45-48.16-41.23-10-10.62-18.6-21.48-26.3-33.22-8.6-13.11-15.1-25.71-19.86-38.51-4.96-13.43-8.29-27.76-11.5-41.63-.75-3.23-1.5-6.46-2.27-9.68-5.58-23.45-12.67-48.07-26.62-69.3-10.99-16.73-26.2-30.91-45.2-42.14-9.54-5.63-19.85-10.42-31.51-14.64-10.81-3.9-22.55-7.18-34.63-10.47-9.8-2.67-17.99-4.8-26.09-6.53-.86-.18-1.73-.36-2.59-.54-9.37-1.9-18.58-3.32-28.15-4.33-20.24-2.14-41.87-2.31-64.29-.52-19.51,1.56-40.92,4.74-65.44,9.72l-.2-.98c24.56-4.99,46.01-8.17,65.56-9.74,22.49-1.8,44.18-1.63,64.48,.52,9.6,1.01,18.84,2.43,28.24,4.35,.86,.18,1.73,.36,2.6,.54,8.13,1.74,16.33,3.87,26.15,6.54,12.1,3.29,23.86,6.58,34.71,10.49,11.73,4.24,22.09,9.06,31.68,14.72,19.13,11.31,34.45,25.59,45.53,42.45,14.03,21.35,21.15,46.08,26.76,69.62,.77,3.22,1.52,6.45,2.27,9.69,3.21,13.83,6.53,28.13,11.47,41.5,4.73,12.73,11.2,25.26,19.76,38.31,7.66,11.68,16.23,22.5,26.19,33.08,13.87,14.72,30.02,28.55,48,41.09,15.38,10.73,31.36,20,47.5,27.55,2.78,1.3,5.62,2.58,8.45,3.79,17.1,7.35,33.39,12.4,49.8,15.46,23.06,4.29,48.05,4.44,72.26,.42,23.59-3.91,46.7-11.55,68.7-22.73l.45,.89c-22.09,11.23-45.3,18.91-68.99,22.83-11.74,1.95-23.67,2.92-35.47,2.92Z" fill="#034086"/></g><g id="change1_22"><path d="M616.82,573.38c-32.75,0-65.49-6.32-95.62-19.03-63.48-26.77-114.79-81.64-137.25-146.77-4.93-14.28-8.62-29.3-12.19-43.82-6.4-26.04-13.03-52.96-26.95-76.19-25.3-42.21-74.35-71.22-134.59-79.57-53.92-7.48-108.39,1.31-161.07,9.8l-.16-.99c52.75-8.51,107.3-17.3,161.37-9.8,27.91,3.87,54.64,12.64,77.31,25.36,25.22,14.16,44.74,32.55,58,54.69,14,23.36,20.64,50.36,27.06,76.47,3.57,14.5,7.26,29.5,12.17,43.74,22.37,64.87,73.47,119.51,136.69,146.17,63.22,26.66,138.02,25.11,200.08-4.14l.43,.9c-32.74,15.43-69.02,23.19-105.28,23.19Z" fill="#034086"/></g></svg>