<?xml version="1.0" encoding="UTF-8" standalone="no"?><svg xmlns="http://www.w3.org/2000/svg" xmlns:xlink="http://www.w3.org/1999/xlink" fill="#ffffff" height="387" preserveAspectRatio="xMidYMid meet" version="1" viewBox="24.3 53.3 443.0 387.0" width="443" zoomAndPan="magnify"><g><g><g id="change1_1"><path d="M141.65,146.82c-25.79,0-46.78-20.99-46.78-46.78s20.99-46.78,46.78-46.78s46.78,20.99,46.78,46.78 S167.44,146.82,141.65,146.82z M141.65,63.26c-20.28,0-36.78,16.5-36.78,36.78s16.5,36.78,36.78,36.78s36.78-16.5,36.78-36.78 S161.93,63.26,141.65,63.26z"/></g><g id="change1_3"><path d="M157.76,104.31c-5.62,0-12.02-1.05-19.14-3.79c-23.92-9.22-35.65-3.82-35.76-3.76c-2.46,1.26-5.47,0.28-6.73-2.17 c-1.26-2.46-0.28-5.47,2.17-6.73c0.62-0.32,15.48-7.63,43.91,3.33c22.99,8.86,35.84-4.08,36.37-4.63 c1.91-1.98,5.07-2.06,7.06-0.16c1.99,1.89,2.09,5.02,0.21,7.03C185.32,94,175.38,104.31,157.76,104.31z"/></g><g id="change1_5"><path d="M63.84,420.05c-6.29,0-12.37-2.08-17.4-6.01c-5.97-4.66-9.77-11.37-10.69-18.89s1.14-14.95,5.8-20.92l48.17-61.79 l8.64-26.72c-4.39-7-6.7-15.03-6.7-23.37v-47l-1.3,0.67l-8.9,41.53c-3.25,15.31-18.35,25.13-33.68,21.89 c-7.42-1.57-13.79-5.94-17.93-12.31c-4.14-6.36-5.55-13.95-3.97-21.38l11.73-54.72c1.85-8.75,7.56-15.96,15.66-19.79l38.32-19.71 c6.62-3.41,33.82-1.09,45.2,0.07c14.25,1.45,39.09,4.6,45.3,9.5l30.38,23.95h34.11c15.69,0,28.45,12.76,28.45,28.45 s-12.76,28.45-28.45,28.45h-43.93c-6.85,0-13.45-2.47-18.62-6.94l-4.2-3.31v19.05l32.53,14.35 c10.93,4.19,18.27,14.85,18.27,26.57v60.57c0,15.69-12.76,28.45-28.45,28.45s-28.45-12.76-28.45-28.45v-42.07l-18.62-8.21 c-0.9,0.44-1.82,0.85-2.75,1.23l-10.15,31.39c-0.03,0.1-0.07,0.2-0.11,0.3c-1.02,3.06-2.55,5.91-4.56,8.47l-51.29,65.79 c-4.67,5.97-11.38,9.77-18.89,10.69C66.18,419.98,65,420.05,63.84,420.05z M96.66,202.15c0.9,0,1.81,0.25,2.6,0.73 c1.49,0.91,2.4,2.52,2.4,4.27v55.2c0,7.12,2.17,13.93,6.27,19.71c0.91,1.29,1.17,2.93,0.68,4.43l-9.66,29.86 c-0.18,0.55-0.46,1.08-0.81,1.54l-48.71,62.49c-3.02,3.87-4.35,8.68-3.76,13.55c0.6,4.87,3.06,9.21,6.92,12.23 c3.87,3.02,8.68,4.35,13.54,3.75c4.87-0.6,9.21-3.06,12.23-6.92l51.29-65.79c1.35-1.72,2.36-3.64,3.02-5.69 c0.03-0.1,0.07-0.2,0.1-0.3l10.8-33.4c0.49-1.5,1.65-2.68,3.14-3.19c1.98-0.68,3.91-1.54,5.74-2.57 c1.37-0.78,3.03-0.86,4.48-0.22l23.81,10.5c1.81,0.8,2.98,2.59,2.98,4.57v45.32c0,10.17,8.28,18.45,18.45,18.45 s18.45-8.28,18.45-18.45v-60.57c0-7.63-4.8-14.57-11.94-17.27c-0.09-0.03-0.17-0.07-0.25-0.1l-35.63-15.72 c-1.81-0.8-2.98-2.59-2.98-4.57v-32.62c0-1.92,1.09-3.66,2.82-4.5c1.72-0.84,3.77-0.61,5.28,0.57l12.39,9.77 c0.07,0.05,0.13,0.11,0.2,0.16c3.36,2.94,7.67,4.56,12.14,4.56h43.93c10.17,0,18.45-8.28,18.45-18.45s-8.28-18.45-18.45-18.45 h-35.84c-1.12,0-2.21-0.38-3.1-1.07l-31.74-25.03c-2-1.47-14.52-4.78-39.58-7.35c-23.2-2.38-37.67-2.09-40.23-1.14l-38.33,19.72 c-0.05,0.03-0.11,0.06-0.17,0.08c-5.28,2.48-9,7.16-10.21,12.86l-11.73,54.72c-1.02,4.8-0.1,9.72,2.58,13.84 c2.68,4.12,6.81,6.95,11.61,7.97c9.93,2.11,19.72-4.26,21.83-14.19l9.4-43.85c0.31-1.47,1.27-2.71,2.6-3.4l10.69-5.5 C95.09,202.34,95.88,202.15,96.66,202.15z M96.16,160.42L96.16,160.42C96.15,160.43,96.16,160.43,96.16,160.42z"/></g></g><g id="change1_2"><path d="M263.9,440.22h-99.18c-2.76,0-5-2.24-5-5v-59.53c0-2.76,2.24-5,5-5h99.18c2.76,0,5,2.24,5,5s-2.24,5-5,5h-94.18v49.53 h94.18c2.76,0,5,2.24,5,5S266.66,440.22,263.9,440.22z"/></g><g id="change1_4"><path d="M363.08,440.22H263.9c-2.76,0-5-2.24-5-5V316.15c0-2.76,2.24-5,5-5h99.18c2.76,0,5,2.24,5,5s-2.24,5-5,5H268.9v109.07 h94.18c2.76,0,5,2.24,5,5S365.84,440.22,363.08,440.22z"/></g><g id="change1_6"><path d="M462.26,440.22h-99.18c-2.76,0-5-2.24-5-5V267.36c0-2.76,2.24-5,5-5h99.18c2.76,0,5,2.24,5,5v167.86 C467.26,437.98,465.02,440.22,462.26,440.22z M368.08,430.22h89.18V272.36h-89.18V430.22z"/></g></g></svg>