<?xml version="1.0" encoding="UTF-8" standalone="no"?><svg xmlns="http://www.w3.org/2000/svg" xmlns:xlink="http://www.w3.org/1999/xlink" fill="#000000" height="249.5" preserveAspectRatio="xMidYMid meet" version="1" viewBox="102.1 87.8 217.3 249.5" width="217.3" zoomAndPan="magnify"><g fill="#ffffff" id="change1_1"><path d="M 237.429688 111.621094 L 224.894531 217.445312 C 223.554688 217.226562 222.179688 217.128906 220.75 217.167969 C 217.941406 217.230469 215.074219 217.785156 212.238281 218.8125 C 200.171875 223.167969 192.296875 234.578125 194.304688 244.785156 C 195.828125 252.582031 202.914062 257.816406 211.929688 257.816406 C 212.121094 257.816406 212.3125 257.816406 212.496094 257.8125 C 215.308594 257.746094 218.179688 257.191406 221.023438 256.164062 C 230.746094 252.652344 238.070312 244.371094 239.261719 235.480469 L 249.148438 151.894531 L 299.785156 178.820312 L 291.753906 246.738281 C 290.449219 246.535156 289.066406 246.445312 287.730469 246.480469 C 284.925781 246.546875 282.0625 247.097656 279.222656 248.121094 C 267.167969 252.476562 259.289062 263.886719 261.289062 274.109375 C 262.820312 281.902344 269.902344 287.136719 278.917969 287.136719 C 279.105469 287.136719 279.292969 287.132812 279.484375 287.128906 C 282.296875 287.0625 285.164062 286.507812 288.011719 285.476562 C 297.71875 281.972656 304.992188 273.730469 306.113281 264.933594 L 319.332031 153.277344 L 237.429688 111.621094" fill="inherit"/><path d="M 166.015625 197.71875 C 164.300781 196.367188 162.445312 195.070312 160.332031 193.738281 C 159.378906 193.140625 158.414062 192.570312 157.476562 192.042969 C 156.375 191.421875 155.378906 190.90625 154.453125 190.4375 C 153.289062 189.855469 152.144531 189.300781 151.019531 188.757812 C 148.648438 187.613281 146.410156 186.539062 144.476562 185.363281 C 141.917969 183.835938 140.046875 182.160156 138.910156 180.375 C 138.585938 179.867188 137.902344 178.453125 137.351562 177.320312 L 136.453125 175.488281 C 135.621094 173.785156 134.675781 171.859375 132.78125 169.335938 C 130.890625 166.828125 128.039062 165.390625 124.96875 165.390625 C 123.757812 165.390625 122.558594 165.613281 121.433594 166.046875 C 120.996094 166.210938 120.5625 166.410156 120.128906 166.644531 C 115.683594 169.066406 113.257812 174.359375 114.238281 179.523438 L 137.027344 279.765625 C 134.691406 280.03125 132.328125 280.621094 129.976562 281.519531 C 126.503906 282.851562 123.171875 284.8125 120.078125 287.355469 C 106.933594 298.15625 102.078125 315.820312 109.035156 327.574219 C 112.714844 333.777344 119.207031 337.339844 126.84375 337.339844 C 130.125 337.339844 133.484375 336.691406 136.824219 335.410156 C 140.308594 334.078125 143.644531 332.109375 146.75 329.5625 C 157.347656 320.835938 162.816406 307.320312 160.34375 295.875 L 140.246094 207.480469 C 141.304688 207.863281 142.34375 208.21875 143.371094 208.574219 C 144.453125 208.949219 145.515625 209.3125 146.460938 209.65625 L 148.941406 210.621094 C 149.894531 211.027344 150.625 211.351562 151.265625 211.664062 C 152.78125 212.382812 154.257812 213.179688 155.675781 214.042969 C 161.828125 217.757812 166.199219 222.535156 168.695312 228.296875 C 171.398438 234.335938 172.066406 242.15625 170.574219 250.359375 C 170.023438 253.492188 171.8125 256.535156 174.742188 257.441406 C 176 257.824219 177.351562 257.785156 178.632812 257.300781 C 180.480469 256.589844 181.867188 255.0625 182.4375 253.132812 C 185.699219 242.300781 185.90625 231.214844 183.023438 221.949219 C 180.191406 212.683594 174.316406 204.3125 166.015625 197.71875" fill="inherit"/><path d="M 207.703125 110.710938 C 207.089844 109.765625 206.402344 108.824219 205.597656 107.828125 C 205.230469 107.378906 204.855469 106.9375 204.488281 106.523438 C 204.054688 106.039062 203.65625 105.621094 203.28125 105.238281 C 202.8125 104.765625 202.34375 104.304688 201.890625 103.855469 C 200.925781 102.902344 200.011719 102.003906 199.265625 101.109375 C 198.277344 99.9375 197.644531 98.8125 197.386719 97.753906 C 197.3125 97.453125 197.214844 96.652344 197.136719 96.007812 L 197 94.964844 C 196.878906 94 196.738281 92.902344 196.238281 91.359375 C 195.734375 89.820312 194.585938 88.648438 193.085938 88.136719 C 192.496094 87.9375 191.878906 87.847656 191.253906 87.867188 C 191.015625 87.875 190.773438 87.898438 190.523438 87.945312 C 187.953125 88.382812 185.890625 90.558594 185.511719 93.234375 L 179.9375 145.847656 C 178.753906 145.589844 177.507812 145.484375 176.210938 145.53125 C 174.296875 145.601562 172.351562 146.003906 170.421875 146.730469 C 162.21875 149.800781 156.917969 157.597656 158.351562 164.476562 C 159.109375 168.113281 161.679688 170.925781 165.402344 172.195312 C 166.996094 172.738281 168.742188 172.984375 170.582031 172.917969 C 172.5 172.847656 174.453125 172.441406 176.390625 171.71875 C 183.003906 169.230469 187.914062 163.5625 188.613281 157.570312 L 193.527344 111.179688 C 193.980469 111.539062 194.425781 111.886719 194.867188 112.230469 C 195.335938 112.59375 195.789062 112.945312 196.191406 113.273438 L 197.238281 114.15625 C 197.636719 114.511719 197.9375 114.789062 198.199219 115.046875 C 198.820312 115.648438 199.40625 116.28125 199.953125 116.9375 C 202.328125 119.773438 203.664062 122.824219 203.921875 126.050781 C 204.234375 129.4375 203.257812 133.359375 201.164062 137.105469 C 200.378906 138.539062 200.742188 140.320312 202.015625 141.246094 C 202.566406 141.644531 203.234375 141.851562 203.9375 141.828125 C 204.957031 141.789062 205.886719 141.273438 206.484375 140.429688 C 209.875 135.695312 211.816406 130.332031 211.957031 125.339844 C 212.117188 120.355469 210.648438 115.304688 207.703125 110.710938" fill="inherit"/></g></svg>