<?xml version="1.0" encoding="UTF-8" standalone="no"?><svg xmlns="http://www.w3.org/2000/svg" xmlns:xlink="http://www.w3.org/1999/xlink" fill="#eefaff" height="128" preserveAspectRatio="xMidYMid meet" version="1" viewBox="2.7 0.0 122.8 128.0" width="122.8" zoomAndPan="magnify"><g id="change1_1"><path d="M93.1,4.5c-1.3-0.5-2.7-1-4.1-1.5c-6.3-2-13.2-3-20.5-3c0,0,0,0-0.1,0C64.7,0,61,0.3,57.3,0.9c-8.4,1.4-29,7-39.4,29.6 c-3.2,6.9-4,13.7-2.6,21.5c0.5,2.7-1.4,6-3.3,9.2c-0.3,0.5-0.6,1-0.8,1.4c-1.1,2-2.5,3.7-3.8,5.3c-1.6,2-3.1,3.9-4.1,6.2 c-0.6,1.5-0.5,3.1,0.3,4.4c1,1.5,2.6,2.1,3.7,2.4c0.2,0.1,0.3,0.1,0.5,0.2l0.5,0.2c0.9,0.3,1.8,0.6,2.4,1.2c0.4,0.4-0.5,2.5-1,3.7 c-1.1,2.5-2.7,6,0.2,8.3c0.6,0.5,1.4,0.7,2.2,0.8C11.5,96,11,96.8,11,97.8c0.1,2.5,2.7,3,3.9,3.3c0.1,0,0.3,0.1,0.4,0.1 c0,0.8-0.2,2.2-0.3,3.3c-0.4,2.8-0.8,6.2,0.1,9.3c0.5,1.9,1.8,3.6,3.5,4.8c2,1.5,4.6,2.1,7.2,1.9c8.9-0.8,19.4-4.1,28.2-8.8 c0,5-1.1,10.1-2.9,13.3c-0.4,0.6-0.4,1.4,0,2c0.4,0.6,1,1,1.7,1h47c0.6,0,1.2-0.3,1.6-0.8c0.4-0.5,0.5-1.2,0.3-1.8 c-3.9-13.2,3.8-33.6,10.8-43.3c1.2-1.7,2.3-3.4,3.2-5c0.7-1.2,1.5-2.5,2.4-3.7c5-7.4,7.4-16.7,6.7-26.2 C123.5,29.1,110.4,11.5,93.1,4.5z M114.9,71.1c-0.9,1.3-1.7,2.6-2.5,3.9c-1,1.6-1.9,3.1-3.1,4.7c-6.8,9.4-14.9,29.4-12,44.3H56 c1.7-4.5,2.4-10.4,1.9-15.8c-0.1-0.7-0.5-1.3-1.1-1.6c-0.6-0.3-1.3-0.3-1.9,0.1c-8.8,5.3-20.1,9-29.4,9.9c-1.7,0.2-3.3-0.2-4.5-1.1 c-1-0.7-1.7-1.7-2-2.7c-0.7-2.3-0.3-5.2,0-7.7c0.3-2.5,0.6-4.4-0.1-5.9c-0.6-1.4-2.1-1.7-3.2-1.9c0.1-0.1,0.2-0.2,0.3-0.3 c1-1,2.2-2.1,1.8-3.7c-0.4-1.9-2.3-1.9-3.9-1.9c-0.5,0-1.3,0-1.7-0.1c-0.2-0.5,0.7-2.5,1.1-3.4c1.1-2.5,2.6-5.9,0.1-8.3 c-1.2-1.1-2.6-1.6-3.8-2l-0.5-0.2c-0.2-0.1-0.4-0.1-0.6-0.2c-0.8-0.3-1.3-0.4-1.5-0.8C7,76.3,7,76,7.1,75.7c0.7-1.8,2-3.4,3.5-5.3 c1.3-1.7,2.8-3.5,4.1-5.8c0.3-0.5,0.5-0.9,0.8-1.4c2.1-3.6,4.5-7.8,3.8-12c-1.3-7-0.6-12.9,2.2-19.1C31.2,11.3,50.2,6.1,58,4.9 C61.4,4.3,65,4,68.5,4c0,0,0,0,0.1,0c6.9,0,13.4,1,19.3,2.8c1.3,0.4,2.5,0.9,3.8,1.4c15.9,6.5,28,22.7,29.3,39.3 C121.5,56.1,119.4,64.5,114.9,71.1z"/></g><g id="change1_2"><path d="M83.1,33.5c-4.5-4.2-10.5-6.3-16.7-5.9c-11,0.8-19.8,9.6-20.5,20.5c-0.5,7.4,2.7,14.5,8.6,19c1.9,1.5,3,3.7,3,6v4.2 c0,2.2,1.7,4.6,4.2,4.6h12.5c2.4,0,4.1-2.4,4.1-4.6v-4c0-2.4,1.2-4.7,3.2-6.2c5.5-4.2,8.6-10.6,8.6-17.5 C90.1,43.5,87.6,37.7,83.1,33.5z M79.1,63.9c-3,2.3-4.7,5.8-4.7,9.4v4c0,0.2-0.1,0.5-0.2,0.6H61.9c-0.1-0.1-0.3-0.4-0.3-0.6v-4.2 c0-3.6-1.7-6.9-4.6-9.1c-4.8-3.7-7.4-9.5-7-15.6c0.6-9,7.8-16.2,16.8-16.8c5.1-0.4,10,1.4,13.7,4.8c3.7,3.5,5.7,8.1,5.7,13.2 C86.1,55.3,83.5,60.5,79.1,63.9z"/></g><g id="change1_3"><path d="M74.9,83.9H61.1c-1.1,0-2,0.9-2,2s0.9,2,2,2h13.8c1.1,0,2-0.9,2-2S76,83.9,74.9,83.9z"/></g><g id="change1_4"><path d="M73,90H63c-1.1,0-2,0.9-2,2s0.9,2,2,2h10c1.1,0,2-0.9,2-2S74.1,90,73,90z"/></g><g id="change1_5"><path d="M68,24c1.1,0,2-0.9,2-2v-5c0-1.1-0.9-2-2-2s-2,0.9-2,2v5C66,23.1,66.9,24,68,24z"/></g><g id="change1_6"><path d="M46.1,31.9c0.4,0.4,0.9,0.6,1.4,0.6s1-0.2,1.4-0.6c0.8-0.8,0.8-2,0-2.8l-3.6-3.6c-0.8-0.8-2-0.8-2.8,0s-0.8,2,0,2.8 L46.1,31.9z"/></g><g id="change1_7"><path d="M39.1,49h-5c-1.1,0-2,0.9-2,2s0.9,2,2,2h5c1.1,0,2-0.9,2-2S40.2,49,39.1,49z"/></g><g id="change1_8"><path d="M46.1,70l-3.6,3.6c-0.8,0.8-0.8,2,0,2.8C43,76.8,43.5,77,44,77s1-0.2,1.4-0.6l3.6-3.6c0.8-0.8,0.8-2,0-2.8 C48.2,69.2,46.9,69.2,46.1,70z"/></g><g id="change1_9"><path d="M89.9,70c-0.8-0.8-2-0.8-2.8,0c-0.8,0.8-0.8,2,0,2.8l3.6,3.6C91,76.8,91.5,77,92,77s1-0.2,1.4-0.6c0.8-0.8,0.8-2,0-2.8 L89.9,70z"/></g><g id="change1_10"><path d="M102,49h-5c-1.1,0-2,0.9-2,2s0.9,2,2,2h5c1.1,0,2-0.9,2-2S103.1,49,102,49z"/></g><g id="change1_11"><path d="M90.6,25.5L87,29.1c-0.8,0.8-0.8,2,0,2.8c0.4,0.4,0.9,0.6,1.4,0.6s1-0.2,1.4-0.6l3.6-3.6c0.8-0.8,0.8-2,0-2.8 S91.4,24.8,90.6,25.5z"/></g><g id="change1_12"><path d="M70,35.2c-3-0.6-6,0.2-8.3,2.1C59.3,39.2,58,42,58,45c0,1.1,0.9,2,2,2s2-0.9,2-2c0-1.8,0.8-3.5,2.2-4.6 c1.4-1.2,3.2-1.6,5-1.2c2.3,0.5,4.2,2.3,4.7,4.7c0.5,2.7-0.7,5.3-3.1,6.5c-3,1.6-4.8,4.5-4.8,7.7v3c0,1.1,0.9,2,2,2s2-0.9,2-2v-3 c0-1.7,1-3.3,2.7-4.1c3.9-2.1,6-6.4,5.1-10.8C77,39.1,73.9,36,70,35.2z"/></g><g id="change1_13"><circle cx="68" cy="67" r="2"/></g></svg>