<?xml version="1.0" encoding="UTF-8" standalone="no"?><svg xmlns="http://www.w3.org/2000/svg" xmlns:xlink="http://www.w3.org/1999/xlink" fill="#eefaff" height="64" preserveAspectRatio="xMidYMid meet" version="1" viewBox="7.2 2.0 53.7 64.0" width="53.7" zoomAndPan="magnify"><g><g id="change1_3"><path d="M34.1660156,65.9829102c-2.1313477,0-3.7954102-1.6240234-3.840332-3.6982422 c-0.0019531-0.1005859,0.0366211-0.1982422,0.1069336-0.2705078c0.0708008-0.0712891,0.1669922-0.1123047,0.2680664-0.1123047 h6.8779297c0.1005859,0,0.1972656,0.0400391,0.2675781,0.1123047c0.0708008,0.0722656,0.109375,0.1689453,0.1074219,0.2695313 c-0.019043,0.9765625-0.4145508,1.8974609-1.1147461,2.5927734 C36.1323242,65.5893555,35.1821289,65.9829102,34.1660156,65.9829102z M31.1074219,62.6518555 c0.2148438,1.4746094,1.4692383,2.5810547,3.0063477,2.5810547c0.8666992,0,1.6274414-0.3154297,2.1948242-0.8867188 c0.4697266-0.4667969,0.7685547-1.0576172,0.8632813-1.6943359H31.1074219z"/></g><g id="change1_21"><path d="M39.2265625,62.6518555H29.0517578c-1.1279297,0-2.0458984-0.9179688-2.0458984-2.046875v-6.8320313 c0-0.1162109,0.0537109-0.2255859,0.1450195-0.2958984c0.0917969-0.0712891,0.2099609-0.0957031,0.3232422-0.0673828 c0.284668,0.0732422,0.5908203,0.1103516,0.9106445,0.1103516h11.6669922c0.2636719,0,0.5126953-0.0263672,0.762207-0.0791016 c0.109375-0.0263672,0.2255859,0.0039063,0.3144531,0.0742188c0.0878906,0.0712891,0.1391602,0.1787109,0.1391602,0.2919922 v6.7978516C41.2675781,61.7338867,40.3520508,62.6518555,39.2265625,62.6518555z M27.7558594,54.2280273v6.3769531 c0,0.7148438,0.581543,1.296875,1.2958984,1.296875h10.1748047c0.7119141,0,1.2910156-0.5820313,1.2910156-1.296875V54.246582 c-0.152832,0.015625-0.3071289,0.0234375-0.4658203,0.0234375H28.3847656 C28.1704102,54.2700195,27.9599609,54.2563477,27.7558594,54.2280273z"/></g><g id="change1_18"><path d="M40.0522461,54.2709961H28.3867188c-0.3837891,0-0.7524414-0.0449219-1.0957031-0.1328125 c-1.4599609-0.3652344-2.6489258-1.4287109-3.1787109-2.8447266l-0.8134766-2.2285156 c-1.1679688-3.1474609-2.6738281-5.9287109-4.472168-8.2558594c-2.8583984-3.7011719-4.2851563-8.3154297-4.0175781-12.9931641 c0.5576172-9.8183594,8.3779297-17.6748047,18.1904297-18.2724609c5.4296875-0.3330078,10.5893555,1.5341797,14.5341797,5.2470703 c3.8901367,3.6611328,6.121582,8.8203125,6.121582,14.1552734c0,4.3496094-1.40625,8.4609375-4.0664063,11.8876953 c-1.2299805,1.5878906-2.3208008,3.390625-3.2421875,5.3574219c-0.4404297,0.9365234-0.8554688,1.9316406-1.2329102,2.9570313 l-0.8022461,2.1445313c-0.5371094,1.4667969-1.8183594,2.5722656-3.3422852,2.8818359 C40.6489258,54.2397461,40.3491211,54.2709961,40.0522461,54.2709961z M34.2236328,10.2563477 c-0.3911133,0-0.7836914,0.0117188-1.1782227,0.0351563c-9.2788086,0.5664063-16.9604492,8.2822266-17.4873047,17.5673828 c-0.2573242,4.4970703,1.1142578,8.9335938,3.8623047,12.4912109c1.8442383,2.3876953,3.387207,5.2353516,4.5854492,8.4638672 l0.8100586,2.21875c0.4418945,1.1826172,1.4365234,2.0722656,2.6591797,2.3779297 c0.284668,0.0732422,0.5908203,0.1103516,0.9116211,0.1103516h11.6655273c0.2460938,0,0.4975586-0.0263672,0.7680664-0.0810547 c1.2700195-0.2587891,2.3388672-1.1816406,2.7880859-2.4072266l0.8022461-2.1455078 c0.3842773-1.0449219,0.8076172-2.0595703,1.2573242-3.015625c0.9443359-2.015625,2.0639648-3.8652344,3.328125-5.4970703 c2.5576172-3.2949219,3.9091797-7.2470703,3.9091797-11.4287109c0-5.2041016-2.090332-10.0371094-5.8857422-13.609375 C43.5136719,12.0366211,39.0068359,10.2563477,34.2236328,10.2563477z"/></g><g id="change1_4"><path d="M43.5361328,56.8481445H24.7368164c-0.2070313,0-0.375-0.1679688-0.375-0.375s0.1679688-0.375,0.375-0.375h18.7993164 c0.2070313,0,0.375,0.1679688,0.375,0.375S43.7431641,56.8481445,43.5361328,56.8481445z"/></g><g id="change1_9"><path d="M43.5361328,59.7495117H24.7368164c-0.2070313,0-0.375-0.1679688-0.375-0.375s0.1679688-0.375,0.375-0.375h18.7993164 c0.2070313,0,0.375,0.1679688,0.375,0.375S43.7431641,59.7495117,43.5361328,59.7495117z"/></g><g id="change1_6"><path d="M33.9995117,7.0844727c-0.2070313,0-0.375-0.1679688-0.375-0.375V2.3920898c0-0.2070313,0.1679688-0.375,0.375-0.375 s0.375,0.1679688,0.375,0.375v4.3173828C34.3745117,6.9165039,34.206543,7.0844727,33.9995117,7.0844727z"/></g><g id="change1_1"><path d="M22.9316406,10.050293c-0.1298828,0-0.2558594-0.0673828-0.3251953-0.1875l-2.1591797-3.7392578 c-0.1035156-0.1796875-0.0419922-0.4082031,0.137207-0.5126953c0.1791992-0.1005859,0.4086914-0.0419922,0.512207,0.1376953 l2.1591797,3.7392578c0.1035156,0.1796875,0.0419922,0.4082031-0.137207,0.5126953 C23.0595703,10.0336914,22.9951172,10.050293,22.9316406,10.050293z"/></g><g id="change1_10"><path d="M14.828125,18.1538086c-0.0634766,0-0.1279297-0.0166016-0.1870117-0.0498047l-3.7402344-2.1591797 c-0.1791992-0.1035156-0.2407227-0.3330078-0.137207-0.5126953c0.1030273-0.1787109,0.3320236-0.2392578,0.512207-0.1376953 l3.7402344,2.1591797c0.1791992,0.1035156,0.2407227,0.3330078,0.137207,0.5126953 C15.0839844,18.0864258,14.9580078,18.1538086,14.828125,18.1538086z"/></g><g id="change1_20"><path d="M11.8618164,29.222168H7.5444336c-0.2070313,0-0.375-0.1679688-0.375-0.375s0.1679688-0.375,0.375-0.375h4.3173828 c0.2070313,0,0.375,0.1679688,0.375,0.375S12.0688477,29.222168,11.8618164,29.222168z"/></g><g id="change1_23"><path d="M60.4555664,29.222168H56.137207c-0.2070313,0-0.375-0.1679688-0.375-0.375s0.1679688-0.375,0.375-0.375h4.3183594 c0.2070313,0,0.375,0.1679688,0.375,0.375S60.6625977,29.222168,60.4555664,29.222168z"/></g><g id="change1_24"><path d="M53.171875,18.152832c-0.1298828,0-0.2558594-0.0673828-0.3251953-0.1875 c-0.1035156-0.1796875-0.0419922-0.4091797,0.137207-0.5126953l3.7392578-2.1582031 c0.1791992-0.1015625,0.4086914-0.0410156,0.512207,0.1376953c0.1035156,0.1796875,0.0419922,0.4091797-0.137207,0.5126953 l-3.7392578,2.1582031C53.2998047,18.1362305,53.2353516,18.152832,53.171875,18.152832z"/></g><g id="change1_7"><path d="M45.0678711,10.050293c-0.0634766,0-0.1279297-0.0166016-0.1870117-0.0498047 c-0.1791992-0.1044922-0.2407227-0.3330078-0.137207-0.5126953l2.1591797-3.7382813 c0.1030273-0.1787109,0.331543-0.2382813,0.512207-0.1376953c0.1791992,0.1044922,0.2407227,0.3330078,0.137207,0.5126953 L45.3930664,9.862793C45.3237305,9.9829102,45.1977539,10.050293,45.0678711,10.050293z"/></g><g id="change1_8"><path d="M30.2475586,41.0932617c-1.6450195,0-3.1445313-0.9951172-3.7910156-2.4951172 c-2.2568359-0.6611328-3.8168945-2.7333984-3.8168945-5.1044922c0-0.1777344,0.0092773-0.3574219,0.0268555-0.5351563 c-2.1791992-0.7060547-3.6738281-2.7412109-3.6738281-5.0605469c0-2.3125,1.4907227-4.3476563,3.6630859-5.0576172 c-0.0107422-0.1357422-0.0161133-0.2734375-0.0161133-0.4130859c0-2.5703125,1.8017578-4.7421875,4.3071289-5.2226563 c0.7783203-1.0361328,2.0004883-1.6494141,3.3007813-1.6494141c2.2753906,0,4.1269531,1.8515625,4.1269531,4.1279297v17.2832031 C34.3745117,39.2416992,32.5229492,41.0932617,30.2475586,41.0932617z M30.2475586,16.3051758 c-1.1074219,0-2.1459961,0.5439453-2.777832,1.4560547c-0.0581055,0.0839844-0.1474609,0.1396484-0.2480469,0.15625 c-2.2207031,0.359375-3.8320313,2.2558594-3.8320313,4.5097656c0,0.2158203,0.0146484,0.4257813,0.0439453,0.6318359 c0.0268555,0.1884766-0.0922852,0.3671875-0.2763672,0.4160156c-2.0107422,0.5234375-3.4145508,2.3417969-3.4145508,4.4228516 c0,2.0888672,1.4106445,3.9091797,3.4311523,4.4267578c0.1879883,0.0478516,0.3081055,0.2324219,0.2768555,0.4238281 c-0.0405273,0.2470703-0.0610352,0.4970703-0.0610352,0.7451172c0,2.0927734,1.4135742,3.9140625,3.4375,4.4287109 c0.1191406,0.0302734,0.2158203,0.1162109,0.2587891,0.2314453c0.4916992,1.3095703,1.762207,2.1894531,3.1616211,2.1894531 c1.8618164,0,3.3769531-1.5146484,3.3769531-3.3769531V19.6831055 C33.6245117,17.8208008,32.109375,16.3051758,30.2475586,16.3051758z"/></g><g id="change1_22"><path d="M28.1987305,21.7241211c-0.8520508,0-1.5800781-0.5097656-1.6176758-0.5361328 c-0.168457-0.1201172-0.2080078-0.3535156-0.0883789-0.5214844c0.1181641-0.1699219,0.3530197-0.2089844,0.5219727-0.0908203 c0.0092773,0.0058594,0.8525391,0.5917969,1.5800781,0.3330078c0.4575195-0.1630859,0.8017578-0.6445313,1.0224609-1.4306641 c0.0556641-0.1982422,0.2583008-0.3115234,0.4624023-0.2597656c0.1992188,0.0566406,0.3154297,0.2636719,0.2592773,0.4628906 c-0.2905273,1.0361328-0.7944336,1.6875-1.4975586,1.9355469C28.6254883,21.6928711,28.4082031,21.7241211,28.1987305,21.7241211z"/></g><g id="change1_2"><path d="M29.230957,37.4438477c-0.3530273,0-0.6098633-0.0546875-0.6337891-0.0595703 c-0.2021484-0.0449219-0.3291016-0.2441406-0.2851563-0.4453125c0.0439453-0.203125,0.246582-0.3291016,0.4453125-0.2871094 c0.0097656,0.0019531,1.0166016,0.2099609,1.5844727-0.3115234c0.3579102-0.3291016,0.4863281-0.90625,0.3818359-1.7167969 c-0.0263672-0.2050781,0.1186523-0.3935547,0.3242188-0.4199219C31.25,34.1782227,31.440918,34.3217773,31.4677734,34.527832 c0.137207,1.0683594-0.0717773,1.8652344-0.6220779,2.3681641C30.3544922,37.3452148,29.7055664,37.4438477,29.230957,37.4438477z"/></g><g id="change1_11"><path d="M24.6328125,28.3881836c-0.1611328,0-0.3100586-0.1044922-0.3588867-0.2675781 c-0.059082-0.1982422,0.0532227-0.40625,0.2509766-0.4667969c0.0102539-0.0029297,0.9926758-0.3085938,1.2363281-1.0400333 c0.1538086-0.4609432-0.0131836-1.028326-0.4956055-1.6865292c-0.1225586-0.1669922-0.0864258-0.4013672,0.0805664-0.5244141 s0.4018555-0.0859375,0.5239258,0.0810547c0.6367188,0.8671875,0.8388672,1.6660156,0.6010742,2.3720703 c-0.3706055,1.1015625-1.6762695,1.5-1.7314453,1.5166016C24.7041016,28.3833008,24.6679688,28.3881836,24.6328125,28.3881836z"/></g><g id="change1_19"><path d="M27.6508789,34.815918c-0.0263672,0-0.0527344-0.0029297-0.0795898-0.0087891 c-1.0522461-0.2265625-1.7333984-0.6894531-2.0244141-1.3759766c-0.453125-1.0693359,0.2583008-2.234375,0.2890625-2.2832031 c0.1088867-0.1757813,0.3388672-0.2285156,0.5151367-0.1201172c0.1757813,0.1083984,0.2304688,0.3398438,0.1220703,0.515625 c-0.0053711,0.0087891-0.5375977,0.8886719-0.234375,1.5976563c0.190918,0.4472656,0.6923828,0.7607422,1.4907227,0.9335938 c0.2021484,0.0429688,0.3310547,0.2431641,0.2875977,0.4453125C27.9790039,34.6958008,27.8237305,34.815918,27.6508789,34.815918z"/></g><g id="change1_13"><path d="M30.6542969,30.7407227c-0.078125,0-0.1572266-0.0244141-0.2246094-0.0751953 c-0.8603516-0.6464844-1.2851563-1.3525391-1.2617188-2.0976563c0.0361328-1.1611328,1.1704102-1.9208984,1.21875-1.953125 c0.1728516-0.1152344,0.4038086-0.0644531,0.5180664,0.1064453c0.1142578,0.1728516,0.0668945,0.4052734-0.1049805,0.5195313 c-0.0087891,0.0058594-0.8603516,0.5830078-0.8823242,1.3535156c-0.0136719,0.4863281,0.3100586,0.9814453,0.9624023,1.4716797 c0.1660156,0.125,0.1992188,0.359375,0.074707,0.5253906C30.8808594,30.6889648,30.7685547,30.7407227,30.6542969,30.7407227z"/></g><g id="change1_14"><path d="M37.7514648,41.0932617c-2.2753906,0-4.1269531-1.8515625-4.1269531-4.1269531V19.6831055 c0-2.2763672,1.8515625-4.1279297,4.1269531-4.1279297c1.300293,0,2.5229492,0.6132813,3.3022461,1.6494141 c2.5043945,0.4804688,4.3061523,2.6513672,4.3061523,5.2226563c0,0.1396484-0.0053711,0.2773438-0.0161133,0.4130859 c2.1723633,0.7099609,3.6630859,2.7451172,3.6630859,5.0576172c0,2.3193359-1.4946289,4.3544922-3.6743164,5.0605469 c0.0180664,0.1777344,0.0273438,0.3564453,0.0273438,0.5351563c0,2.3710938-1.5600586,4.4433594-3.8168945,5.1044922 C40.8959961,40.0981445,39.3964844,41.0932617,37.7514648,41.0932617z M37.7514648,16.3051758 c-1.8618164,0-3.3769531,1.515625-3.3769531,3.3779297v17.2832031c0,1.8623047,1.5151367,3.3769531,3.3769531,3.3769531 c1.3994141,0,2.6699219-0.8798828,3.1621094-2.1894531c0.0429688-0.1152344,0.1396484-0.2011719,0.2587891-0.2314453 c2.0239258-0.5146484,3.4375-2.3359375,3.4375-4.4287109c0-0.2490234-0.0205078-0.4990234-0.0615234-0.7441406 c-0.0317383-0.1923828,0.0883789-0.3769531,0.2768555-0.4248047c2.0205002-0.5175781,3.4316406-2.3378906,3.4316406-4.4267578 c0-2.0810547-1.4042969-3.8994141-3.4150391-4.4228516c-0.1845703-0.0488281-0.3037109-0.2275391-0.2763672-0.4169922 c0.0297852-0.2060547,0.0444336-0.4160156,0.0444336-0.6308594c0-2.2539063-1.6113281-4.1503906-3.8310547-4.5097656 c-0.1005859-0.0166016-0.1899414-0.0722656-0.2480469-0.15625C39.8979492,16.8491211,38.8588867,16.3051758,37.7514648,16.3051758 z"/></g><g id="change1_15"><path d="M39.8007813,21.7241211c-0.2094727,0-0.4267578-0.03125-0.6425781-0.1074219 c-0.703125-0.2480469-1.2070313-0.8994141-1.4975586-1.9355469c-0.0561523-0.1992188,0.060051-0.40625,0.2592773-0.4628906 c0.2036133-0.0517578,0.4067383,0.0615234,0.4624023,0.2597656c0.2207031,0.7861328,0.5649414,1.2675781,1.0224609,1.4306641 c0.7260742,0.2578125,1.5708008-0.3271484,1.5800781-0.3330078c0.1679688-0.1181641,0.4033203-0.078125,0.5219727,0.0908203 c0.1196289,0.1679688,0.0800781,0.4013672-0.0883789,0.5214844C41.3808594,21.2143555,40.652832,21.7241211,39.8007813,21.7241211 z"/></g><g id="change1_12"><path d="M38.7680664,37.4438477c-0.4746094,0-1.1225586-0.0986328-1.6137695-0.5478516 c-0.550293-0.5029297-0.7602539-1.2998047-0.6230469-2.3681641c0.0263672-0.2060547,0.2133789-0.3496094,0.4199219-0.3242188 c0.2050781,0.0263672,0.3505859,0.2148438,0.3242188,0.4199219c-0.1044922,0.8115234,0.0253906,1.390625,0.3847656,1.7197266 c0.5639648,0.5146484,1.5698242,0.3105469,1.5805664,0.3085938c0.1958008-0.0449219,0.4013672,0.0820313,0.4467773,0.2851563 c0.0444336,0.2021484-0.0830078,0.4023438-0.2856445,0.4472656 C39.3779297,37.3891602,39.1210938,37.4438477,38.7680664,37.4438477z"/></g><g id="change1_17"><path d="M43.3662109,28.3881836c-0.0351563,0-0.0712891-0.0048828-0.1069336-0.015625 c-0.0551758-0.0166016-1.3603516-0.4150391-1.730957-1.5166016c-0.237793-0.7060547-0.0361328-1.5039063,0.6005859-2.3720703 c0.1220703-0.1669922,0.3554688-0.2041016,0.5239258-0.0810547c0.1669922,0.1230469,0.203125,0.3574219,0.0805664,0.5244141 c-0.4824219,0.6582031-0.6494141,1.2255859-0.4956055,1.6865292c0.2441406,0.7314396,1.2260742,1.0371037,1.2363281,1.0400333 c0.1977539,0.0605469,0.3100586,0.2685547,0.2509766,0.4667969 C43.6762695,28.2836914,43.5273438,28.3881836,43.3662109,28.3881836z"/></g><g id="change1_16"><path d="M40.3486328,34.815918c-0.1728516,0-0.328125-0.1201172-0.3662109-0.2958984 c-0.043457-0.2021484,0.0854492-0.4023438,0.2875977-0.4453125c0.7978516-0.1728516,1.2993164-0.4863281,1.4902344-0.9335938 c0.3032227-0.7089844-0.2290039-1.5888672-0.234375-1.5976563c-0.1083984-0.1757813-0.0537109-0.4072266,0.1220703-0.515625 c0.175293-0.1083984,0.4067383-0.0556641,0.5151367,0.1201172c0.0307617,0.0488281,0.7421875,1.2138672,0.2890625,2.2832031 c-0.2910156,0.6865234-0.9716797,1.1494141-2.0239258,1.3759766C40.4013672,34.8129883,40.375,34.815918,40.3486328,34.815918z"/></g><g id="change1_5"><path d="M37.3442383,30.7407227c-0.1142578,0-0.2265625-0.0517578-0.300293-0.1494141 c-0.1245117-0.1660156-0.0908203-0.4013672,0.074707-0.5253906c0.652832-0.4902344,0.9770432-0.9863281,0.9633789-1.4716797 c-0.0219727-0.7714844-0.8735352-1.3476563-0.8823242-1.3535156c-0.171875-0.1142578-0.2192383-0.3466797-0.1049805-0.5195313 c0.1147461-0.1699219,0.3457031-0.2207031,0.5180664-0.1064453c0.0483398,0.0322266,1.1826172,0.7910156,1.21875,1.9521484 c0.0229492,0.7460938-0.4018555,1.4521484-1.2626953,2.0986328 C37.5014648,30.7163086,37.4223633,30.7407227,37.3442383,30.7407227z"/></g></g></svg>