<?xml version="1.0" encoding="UTF-8" standalone="no"?><svg xmlns="http://www.w3.org/2000/svg" xmlns:xlink="http://www.w3.org/1999/xlink" fill="#292562" height="17.5" preserveAspectRatio="xMidYMid meet" version="1" viewBox="0.0 4.5 25.5 17.5" width="25.5" zoomAndPan="magnify"><g id="change1_1"><path d="M13,14.824c-0.16,0-0.318-0.025-0.475-0.076l-7.28-2.428c-0.132,0.343-0.198,0.785-0.198,1.43 c0.475,0.275,0.938,0.828,0.938,1.781c0,0.584-0.292,1.004-0.543,1.283c1.08,1.253,4.052,2.154,7.559,2.154c4.419,0,8-1.43,8-3.191 c0-0.389,0-1.978,0-3.538l-7.528,2.509C13.318,14.799,13.16,14.824,13,14.824z"/><path d="M25.158,8.526L25.158,8.526l-12-4c-0.104-0.034-0.213-0.034-0.316,0l-12,4C0.638,8.594,0.5,8.785,0.5,9 c0,0.215,0.138,0.406,0.342,0.474l2.751,0.917c-0.633,0.734-1.001,1.769-1.136,3.453C2.022,14.049,1.715,14.486,1.715,15 c0,0.523,0.314,0.968,0.762,1.169c-0.391,3.405-2.43,4.54-2.43,4.831c0,0.148,1.579,1,1.954,1c0.58,0,1.972-0.984,1.972-3.109 c0-1.252-0.113-2.198-0.232-2.869C4.062,15.789,4.285,15.428,4.285,15c0-0.467-0.261-0.857-0.634-1.082 c0.211-2.779,1.07-3.244,3.148-4.106C7.007,9.73,7.4,9.571,7.627,9.477c0.408-0.168,0.777-0.318,1.131-0.46 c1.143-0.454,2.109-0.819,2.846-1.09c0.807-0.288,1.169-0.393,1.182-0.397c0.309-0.104,0.653,0.063,0.759,0.378 c0.105,0.314-0.063,0.654-0.378,0.76c-0.024,0.008-1.428,0.409-5.081,1.919c-0.235,0.097-0.459,0.185-0.672,0.269 c-0.433,0.171-0.792,0.308-1.093,0.446l6.521,2.173C12.894,13.491,12.946,13.5,13,13.5s0.106-0.009,0.158-0.026l12-4 C25.362,9.406,25.5,9.215,25.5,9C25.5,8.785,25.362,8.594,25.158,8.526z"/></g></svg>