<?xml version="1.0" encoding="UTF-8" standalone="no"?><svg xmlns="http://www.w3.org/2000/svg" xmlns:xlink="http://www.w3.org/1999/xlink" fill="#ffffff" height="463.2" preserveAspectRatio="xMidYMid meet" version="1" viewBox="440.6 142.6 430.7 463.2" width="430.7" zoomAndPan="magnify"><g><g id="change1_4"><path d="M583.9093,509.37637L583.9093,509.37637C584.1536,501.30505,581.70844,492.32532,577.5615,481.68L577.5615,481.68C574.61786,474.1234,564.7937,457.90796,548.7999,431.5508L548.79974,431.55057L544.883,425.0945L544.88275,425.09406C539.9978,417.03873,537.5082,408.89178,535.38293,401.97104L535.38293,401.971C534.91364,400.44266,534.46484,398.9814,534.0096,397.5771L534.0096,397.57706C527.99615,379.02542,526.05786,357.092,531.9929,332.23233L531.9929,332.23233C546.2691,272.43497,587.3868,243.1109,651.1961,247.08978L651.1961,247.08978C719.748,251.36438,761.635,282.33075,769.25757,338.26062L769.25757,338.26062C772.21985,359.99643,766.0452,379.15988,757.1986,395.2265L757.1986,395.2265C752.69476,403.40616,748.7374,409.97012,744.69965,413.7279L744.69965,413.7279C716.7127,439.774,702.7879,453.9499,701.465,457.7013C701.37616,457.95328,701.2529,458.19186,701.099,458.41025L701.099,458.41025C692.4925,470.6183,682.3997,493.17877,675.89905,517.8194C675.4891,519.37335,673.897,520.3008,672.343,519.8908C670.78906,519.48083,669.86163,517.88873,670.2716,516.3348L670.2716,516.3348C676.8851,491.26672,687.2137,468.00543,696.3423,455.0568L695.97626,455.76575C697.92206,450.2479,713.6463,434.67728,740.7347,409.46747L740.7347,409.46747C743.96985,406.45667,747.50604,400.7632,752.10034,392.4193L752.10034,392.4193C760.56116,377.05338,766.23236,359.16235,763.49084,339.04657L763.49084,339.04657C756.36523,286.76318,717.6354,257.06396,650.8339,252.8985L650.8339,252.8985C589.6758,249.08493,551.2334,276.70425,537.6538,333.58383L537.6538,333.58383C531.9777,357.3588,533.84796,378.20386,539.54596,395.78244L539.54596,395.7824C540.0166,397.23428,540.4807,398.7455,540.94653,400.26257L540.94653,400.26254C543.0868,407.23218,545.3981,414.71976,549.8592,422.07623L549.85895,422.07578L553.7757,428.53183L553.7755,428.5316C569.56177,454.54675,579.8011,471.39502,582.9846,479.56744L582.9846,479.56744C587.2003,490.38937,590.0077,500.26962,589.7267,509.55246C589.67804,511.15887,588.3363,512.42175,586.7299,512.3731C585.12354,512.32446,583.86066,510.9828,583.9093,509.37637 Z"/></g><g id="change1_1"><path d="M679.14136,527.18335L679.14136,527.18335C672.6436,520.0184,652.0461,511.71167,611.8561,509.8648L611.8561,509.8648C601.6842,509.39737,594.1508,510.651,589.36,512.5282L589.36,512.5282C580.35284,516.05743,575.6854,519.63635,574.1766,522.5173L574.1766,522.5173C573.58154,523.65344,573.7302,526.1598,577.4502,531.2417L577.4502,531.2417C579.6537,534.2519,582.5946,536.31915,586.531,537.5695L586.531,537.5695C590.9685,538.97906,601.08545,540.5095,617.3165,542.12244L617.3165,542.12244C628.3084,543.2147,639.1099,543.8434,649.77466,543.5328L649.77466,543.5328C655.6584,543.3614,660.6724,542.74097,664.8013,541.5116L664.8013,541.5116C673.97076,538.78125,678.41077,536.4953,679.4364,535.4849L679.43646,535.4849C682.5689,532.3991,683.265,531.04785,679.53723,527.2636L679.5373,527.2637C679.0716,526.79095,678.53235,526.2862,677.91394,525.7489C676.70074,524.6948,676.5717,522.8568,677.6258,521.6436C678.6799,520.4304,680.5179,520.3014,681.7311,521.35547L681.7311,521.35547C682.446,521.9766,683.0964,522.58344,683.6833,523.1792L683.68335,523.17926C690.34326,529.93994,688.19025,535.0311,683.5208,539.63104L683.5209,539.63104C681.2948,541.82404,675.3884,544.4317,666.46216,547.0896L666.46216,547.0896C661.66,548.5195,656.0894,549.17126,649.9441,549.3503L649.9441,549.3503C638.9456,549.6706,627.87744,549.0206,616.74097,547.91394L616.74097,547.91394C600.65247,546.3152,589.89514,544.7447,584.76904,543.1164L584.76904,543.1164C579.76483,541.52686,575.7516,538.7746,572.7539,534.67944L572.7539,534.67944C569.136,529.73694,566.6251,524.3915,569.02094,519.8171L569.02094,519.8171C571.5941,514.904,578.10846,510.68607,587.2367,507.10934L587.2367,507.10934C593.01935,504.8435,601.42706,503.55942,612.1233,504.05096L612.1233,504.05096C652.3092,505.89764,675.20087,514.1746,683.4525,523.27356C684.53217,524.46405,684.4423,526.3044,683.25183,527.38403C682.06134,528.4637,680.221,528.37384,679.14136,527.18335 Z"/></g><g id="change1_14"><path d="M577.78955,533.85205C577.3232,533.85205,576.8501,533.9644,576.4108,534.2013Q564.2424,540.7633,561.4871,546.6722C561.40674,546.8446,561.3435,547.02435,561.2982,547.20917Q558.9111,556.9472,568.4884,561.185L568.48706,561.185Q575.2545,564.33307,584.9685,565.77856L585.01965,565.7857Q635.07654,572.32794,647.515,573.4374L647.5198,573.4378Q652.3596,573.8616,656.54645,573.8616Q675.23035,573.8616,680.90875,565.4227L680.9019,565.4227Q686.08234,558.8862,684.2308,553.02966C684.1272,552.70197,683.9663,552.39526,683.75574,552.12366Q675.4413,541.4015,670.58594,540.5936C670.42426,540.5667,670.2635,540.5537,670.1048,540.5537C668.7077,540.5537,667.4747,541.5629,667.2378,542.9866C666.974,544.5719,668.0454,546.0709,669.63074,546.3347Q672.17163,546.75745,678.805,555.2387L678.7982,555.2387Q679.35345,558.0244,676.3097,561.8468C676.25165,561.91974,676.197,561.9955,676.14624,562.07367Q672.25006,568.06793,656.9922,568.06793Q652.9174,568.06793,648.0322,567.6404L648.0321,567.6404Q635.7179,566.54205,585.82855,560.022L585.8251,560.022Q576.91174,558.6956,570.8971,555.88715L570.8434,555.86273Q565.88245,553.6676,566.88116,548.901L566.8755,548.901Q568.99115,544.8149,579.1733,539.324C580.5879,538.56116,581.1162,536.796,580.3534,535.3814C579.82745,534.40607,578.825,533.85205,577.78955,533.85205 Z"/></g><g id="change1_11"><path d="M670.93335,570.6503L670.93335,570.6503C670.58795,578.66943,664.5516,584.0016,654.8233,586.24097L654.8233,586.24097C645.5793,588.36884,629.2577,587.4236,606.68005,585.1536L606.68005,585.1536C593.43427,583.82184,589.5033,582.1941,583.2602,577.73016L583.2602,577.73016C578.83466,574.5658,574.009,570.98706,573.49316,562.96234C573.3901,561.3585,574.6067,559.9748,576.2105,559.8717C577.81433,559.7686,579.19806,560.9852,579.30115,562.58905L579.30115,562.58905C579.6302,567.7087,582.29535,569.88556,586.6453,572.9959L586.6453,572.9959C591.81573,576.6929,594.6758,578.09735,607.2623,579.36285L607.2623,579.36285C630.1624,581.6653,645.4094,582.4358,653.51776,580.56934L653.51776,580.56934C661.8877,578.64264,664.9312,574.7548,665.1188,570.39984C665.1879,568.7942,666.54565,567.54865,668.1513,567.6178C669.75696,567.68695,671.0025,569.0447,670.93335,570.6503 Z"/></g><g id="change1_5"><path d="M602.46045,581.8186C602.0138,581.8186,601.5604,581.9218,601.13556,582.1395C599.7053,582.87256,599.14014,584.6262,599.87317,586.05646Q609.64905,605.1301,622.98895,605.8046L623.06213,605.8074Q623.32715,605.8141,623.58923,605.8141Q629.9273,605.8141,634.5829,601.8841L634.57654,601.8841Q637.69574,599.5313,639.7376,597.2717L639.73737,597.2717Q641.9448,594.8787,645.0829,590.6022L645.0765,590.6022Q645.94104,589.58,646.8713,588.8121L646.8672,588.8121L646.95404,588.7444C648.2024,587.7322,648.39374,585.8996,647.38153,584.65125C646.79645,583.9296,645.9372,583.5612,645.0919,583.5612C644.4749,583.5612,643.86536,583.7575,643.37524,584.15607L643.37476,584.15643L643.2878,584.22424Q641.8781,585.36743,640.61316,586.867C640.57007,586.9181,640.52893,586.9704,640.48944,587.02435Q637.4796,591.1356,635.45953,593.32556L635.43677,593.3505Q633.7595,595.2116,631.0599,597.2466C631.01025,597.284,630.9615,597.3233,630.91437,597.36383Q627.8554,599.99384,623.5702,599.99384Q623.41504,599.99384,623.2583,599.9904L623.2521,599.9904Q613.2839,599.4622,605.0525,583.4019C604.5372,582.39655,603.5176,581.8186,602.46045,581.8186 Z"/></g><g id="change1_12"><path d="M608.2533,505.44568L608.2533,505.44568C613.3134,479.1273,614.1798,461.7241,612.07605,452.6051L612.07605,452.60507C610.74896,446.85263,608.4954,438.44275,604.4974,427.53687L604.5781,427.73438L582.6558,379.26108C582.60065,379.13907,582.5539,379.0134,582.51605,378.88498L582.51605,378.88498C580.292,371.3424,580.0376,363.2686,582.4704,354.9176L582.4704,354.9176C587.7261,336.87683,599.0998,328.28577,615.3391,333.01666L615.3391,333.01666C616.28296,333.29163,617.23663,333.60992,618.2017,333.9715L618.2017,333.9715C627.8782,337.59662,635.0503,344.25864,638.363,353.12512L638.363,353.12512C642.4221,363.98975,640.6267,372.97485,632.92896,377.77216C632.5747,377.99295,632.17706,378.13495,631.76306,378.18848L631.76306,378.18848C624.6255,379.11148,620.11694,374.89172,618.75525,367.49966L618.75525,367.49966C617.26935,359.4334,618.12585,351.19534,621.73553,343.25793L621.73553,343.2579C627.39014,330.82404,639.7706,326.13,656.1,329.6404L656.1,329.6404C670.00934,332.63058,678.0119,341.09668,680.70056,352.7699L680.70056,352.7699C682.1205,358.93484,680.6105,365.80225,676.08563,373.29153L676.08563,373.29153C673.245,377.9932,668.6535,383.13364,663.51227,380.02744L663.5122,380.02737C662.9345,379.6783,662.4193,379.24692,661.96234,378.76648L661.9623,378.76642C656.49866,373.02225,658.28174,364.49817,663.77313,355.80078L663.77313,355.80078C667.88885,349.28226,675.94885,344.37006,687.1557,344.49545L687.1557,344.49545C704.43805,344.68884,714.1139,357.10437,713.9052,375.76068L713.90515,375.7608C713.9025,375.9955,713.8986,376.21677,713.89307,376.45224L713.89307,376.45264C713.6756,385.60318,710.14746,394.3579,704.0299,401.0737L704.0299,401.0737C679.7942,427.67938,666.50256,443.30997,663.40497,449.41357L663.40497,449.41357C653.72235,468.49258,646.046,486.40012,641.308,508.72427C640.9743,510.29642,639.4293,511.3004,637.8572,510.96674C636.28503,510.63306,635.28107,509.0881,635.61475,507.51596L635.61475,507.51596C640.4992,484.50195,648.4159,466.08817,658.215,446.77966L658.215,446.77966C661.7683,439.77823,675.8225,423.39697,699.7274,397.15445L699.7274,397.15445C704.9021,391.47375,707.89056,384.06073,708.0747,376.31433L708.0747,376.31473C708.0796,376.10785,708.0833,375.89893,708.0856,375.69543L708.0855,375.69556C708.26807,359.37936,700.3495,350.46344,687.09064,350.3151L687.09064,350.3151C677.70685,350.21008,671.6301,354.25812,668.6943,358.90796L668.6943,358.90796C663.3963,367.29898,663.76526,372.21732,666.1793,374.7553L666.17926,374.75525C666.3321,374.91595,666.44977,375.0024,666.522,375.04605L666.5219,375.046C666.2654,374.891,667.64185,376.01266,671.1042,370.2819L671.1042,370.2819C675.1316,363.6159,676.00336,358.30634,675.02905,354.07617L675.02905,354.07617C672.8642,344.6771,666.6534,337.8621,654.8767,335.3304L654.8767,335.3304C640.2878,332.19415,631.20215,336.50055,627.0334,345.66727L627.0334,345.66724C623.9323,352.48624,623.2017,359.51175,624.479,366.44528L624.479,366.44528C625.42163,371.5624,627.6648,372.84995,631.0166,372.4165L629.8507,372.83282C634.3062,370.05612,636.4236,364.5636,632.9111,355.16205L632.9111,355.16205C630.2711,348.096,624.4966,342.54474,616.16,339.42157L616.16,339.42157C615.32385,339.1083,614.5075,338.83633,613.7113,338.60437L613.7113,338.60437C601.54175,335.05908,592.7311,340.50507,588.05817,356.5454L588.05817,356.5454C585.95404,363.76804,586.17145,370.70392,588.09845,377.23892L587.9587,376.86282L609.881,425.33612C609.91034,425.401,609.9372,425.46677,609.96173,425.53363L609.96173,425.53363C614.0522,436.6916,616.3715,445.33426,617.7471,451.29678L617.7471,451.29675C620.15405,461.7301,619.0294,480.22278,613.9686,506.54456C613.66516,508.1228,612.1398,509.15622,610.5615,508.85278C608.9833,508.54935,607.9498,507.02393,608.2533,505.44568 Z"/></g><g id="change1_8"><path d="M729.1676,164.11856C728.2278,164.11856,727.3054,164.57304,726.7445,165.4134Q709.7852,190.82327,708.5134,192.35912L708.506,192.35912C708.4197,192.45337,708.33954,192.55339,708.2661,192.65858Q705.3378,196.85411,694.8726,209.4261L694.8728,209.4261L694.81274,209.50015Q692.80005,212.0772,690.90283,214.9646L690.89624,214.97469L690.8963,214.97469C690.0211,216.31694,690.3959,218.11533,691.7361,218.99593C692.2278,219.31898,692.78125,219.47374,693.329,219.47374C694.2775,219.47374,695.209,219.00964,695.7726,218.15181L695.77344,218.1505L695.7735,218.1505Q697.51215,215.50525,699.34735,213.14958L699.34564,213.14958Q709.712,200.6963,712.88574,196.20717L712.8786,196.20717Q712.9378,196.14145,712.9961,196.07106L712.9961,196.07106Q714.45917,194.30423,731.5853,168.64433C732.47754,167.30757,732.1171,165.50066,730.7804,164.60846C730.284,164.27715,729.7228,164.11856,729.1676,164.11856 Z"/></g><g id="change1_3"><path d="M836.1246,241.96739C835.6683,241.96739,835.2052,242.07504,834.77325,242.30208Q814.3312,253.04567,790.97754,266.178L790.9713,266.178Q780.14795,271.64926,774.8383,273.1327C773.29047,273.56516,772.3862,275.1705,772.81866,276.71838C773.1779,278.0044,774.34686,278.8461,775.61975,278.8461C775.87897,278.8461,776.14246,278.81122,776.40436,278.73804Q782.29443,277.09244,793.71796,271.31088C793.7558,271.29175,793.7933,271.27173,793.8302,271.25095Q817.1112,258.15942,837.4809,247.4539C838.9035,246.7062,839.4507,244.94681,838.703,243.52417C838.1824,242.53352,837.1711,241.96739,836.1246,241.96739 Z"/></g><g id="change1_9"><path d="M813.9174,378.19916Q810.2181,378.19916,806.6759,378.61932C805.07996,378.80862,803.9396,380.25586,804.1289,381.85184C804.30444,383.33142,805.5611,384.41934,807.0151,384.41934C807.12946,384.41934,807.24506,384.4126,807.36145,384.3988Q810.56116,384.0193,813.9169,384.0193Q820.5563,384.0193,827.8065,385.50497C827.87854,385.5197,827.95105,385.53177,828.024,385.54102Q833.05566,386.18015,867.14667,396.26562C867.4221,396.3471,867.7001,396.38593,867.9734,396.38593C869.2294,396.38593,870.3882,395.56635,870.76263,394.30066C871.21857,392.75952,870.3388,391.1406,868.79767,390.6847Q834.6888,380.5939,828.89984,379.7864L828.89154,379.7864Q821.1076,378.19916,813.9174,378.19916 Z"/></g><g id="change1_7"><path d="M761.1178,469.51785Q760.372,470.7616,759.09595,470.7616Q758.53955,470.7616,757.8824,470.5252L757.89,470.5252C758.18774,470.62253,758.49133,470.66904,758.79065,470.66904C759.6938,470.66904,760.5584,470.24573,761.11017,469.51785 Z M758.43335,464.74255Q756.81476,464.74255,756.04333,466.683L756.042,466.68646Q755.412,468.27707,756.57904,469.75394L756.57916,469.7541Q758.1767,471.7755,778.4928,491.1911L778.4899,491.1911L797.2056,510.48807C797.7763,511.07645,798.53516,511.3721,799.29486,511.3721C800.02466,511.3721,800.75525,511.09924,801.32056,510.551C802.47424,509.43207,802.5024,507.58978,801.3835,506.43613L782.5923,487.06134L782.5139,486.98352Q763.74365,469.0452,761.3868,466.42667L761.3792,466.42667C761.0684,465.822,760.5457,465.32312,759.8644,465.05325Q759.08105,464.74255,758.43335,464.74255 Z"/></g><g id="change1_6"><path d="M489.35986,417.18204C488.9443,417.18204,488.5222,417.27145,488.12137,417.46033Q464.9392,428.38425,447.26694,439.01044C445.8896,439.83862,445.4444,441.62653,446.27258,443.00388C446.81857,443.9119,447.78165,444.4148,448.76923,444.4148C449.2797,444.4148,449.7967,444.28043,450.26602,443.99823Q467.68616,433.52365,490.60226,422.7251C492.0561,422.04004,492.67926,420.3061,491.9942,418.85226C491.49802,417.79926,490.45157,417.18204,489.35986,417.18204 Z"/></g><g id="change1_13"><path d="M443.8764,280.80896C442.9478,280.80896,442.03516,281.25247,441.47153,282.07693C440.5645,283.4037,440.90475,285.2145,442.2315,286.12152Q447.08466,289.4393,466.35593,300.85123C466.39713,300.8756,466.43887,300.89896,466.4812,300.9213Q489.5377,313.08087,491.2609,314.33508L491.25967,314.33508C491.38812,314.43643,491.52493,314.52682,491.66864,314.60526Q494.3202,316.052,496.90674,318.93887C497.48148,319.58035,498.27658,319.90704,499.07504,319.90704C499.76648,319.90704,500.46042,319.66205,501.01593,319.16434C502.21292,318.0919,502.31384,316.25214,501.2414,315.05515Q498.0856,311.53296,494.67056,309.6149L494.66562,309.6149Q492.5169,308.07327,469.3026,295.8295L469.29794,295.8295Q450.2101,284.52594,445.5161,281.31696C445.01382,280.97357,444.44217,280.80896,443.8764,280.80896 Z"/></g><g id="change1_10"><path d="M572.52435,142.59134C572.1952,142.59134,571.8604,142.64761,571.5331,142.76624C570.0221,143.3138,569.2411,144.98259,569.78864,146.49359Q575.82117,163.1402,576.7801,166.41435C576.79376,166.461,576.8085,166.50706,576.82446,166.55296Q578.2861,170.75243,583.15283,188.92474L583.1835,189.03107Q584.6807,193.87633,586.9538,199.86632C587.395,201.02907,588.50104,201.74464,589.67505,201.74464C590.0182,201.74464,590.3671,201.68352,590.707,201.55455C592.2096,200.98434,592.9654,199.304,592.3952,197.8014Q590.2119,192.04817,588.7769,187.41913L588.77466,187.41913Q583.9283,169.32292,582.36896,164.77852L582.3654,164.77852Q581.35486,161.32812,575.26044,144.51068C574.83154,143.32703,573.71454,142.59134,572.52435,142.59134 Z"/></g><g id="change1_2"><path d="M726.2765,299.72336C725.41455,299.72336,724.56116,300.1046,723.98706,300.83472C722.99365,302.09805,723.21246,303.92752,724.47577,304.92096Q734.5574,312.84872,739.048,323.12396L739.04626,323.12396Q742.8125,332.6208,743.4366,353.06766C743.4847,354.6438,744.7775,355.8889,746.3435,355.8889C746.3736,355.8889,746.4037,355.88843,746.43396,355.8875C748.04034,355.83847,749.30286,354.4965,749.25385,352.8901Q748.5956,331.32327,744.41626,320.87762L744.381,320.79327Q739.3047,309.17795,728.0733,300.346C727.5401,299.9267,726.906,299.72336,726.2765,299.72336 Z"/></g><g id="change1_15"><path d="M741.3605,380.58926C740.1168,380.58926,738.9598,381.4043,738.5476,382.7337L738.5456,382.7337Q738.1218,384.08078,737.58057,385.4081L737.4775,385.70648L737.5027,385.62964L737.4953,385.62964Q737.1067,386.61896,735.9519,388.86917C735.21814,390.29904,735.7824,392.053,737.2123,392.7868C737.6375,393.00504,738.0914,393.10843,738.5386,393.10843C739.5951,393.10843,740.6143,392.53113,741.1299,391.52646Q742.4795,388.89658,742.9709,387.60574L742.9697,387.60574Q743.62476,385.99942,744.1333,384.3655L744.16223,384.26642L744.1626,384.26508L744.1626,384.26508C744.5741,382.75995,743.7213,381.1881,742.2197,380.72083C741.934,380.63193,741.64496,380.58926,741.3605,380.58926 Z"/></g></g></svg>