<?xml version="1.0" encoding="UTF-8" standalone="no"?><svg xmlns="http://www.w3.org/2000/svg" xmlns:xlink="http://www.w3.org/1999/xlink" fill="#eefaff" height="78.5" preserveAspectRatio="xMidYMid meet" version="1" viewBox="0.0 -0.0 80.0 78.5" width="80" zoomAndPan="magnify"><g data-name="30" id="change1_1"><path d="M65.336,49.7h.02a8.329,8.329,0,0,0,8.36-8.17,8.039,8.039,0,0,0-2.34-5.81,8.4,8.4,0,0,0-5.949-2.57h-.01a8.281,8.281,0,0,0-5.99,14.12A8.339,8.339,0,0,0,65.336,49.7Zm-4.18-12.26a5.853,5.853,0,0,1,4.17-1.76h.03a5.835,5.835,0,0,1,4.17,1.73,5.6,5.6,0,0,1,1.69,4,5.821,5.821,0,0,1-5.779,5.75,6.054,6.054,0,0,1-4.17-1.66,5.595,5.595,0,0,1-.111-8.06ZM28.648,63.016a15.074,15.074,0,0,0-13.262-9.654A15.1,15.1,0,0,0,.7,63.013L0,64.786H29.338ZM3.969,62.189a12.294,12.294,0,0,1,21.408,0Zm36.8,4.881a15.1,15.1,0,0,0-14.691,9.651l-.7,1.773H54.715l-.69-1.77A15.073,15.073,0,0,0,40.764,67.07ZM29.347,75.9a12.293,12.293,0,0,1,21.407,0ZM31.7,55.466a8.253,8.253,0,0,0,2.41,5.9,8.343,8.343,0,0,0,5.91,2.43h.02a8.33,8.33,0,0,0,8.36-8.17,8.047,8.047,0,0,0-2.34-5.81,8.4,8.4,0,0,0-5.95-2.57H40.1A8.247,8.247,0,0,0,31.7,55.466Zm4.14-3.93a5.85,5.85,0,0,1,4.17-1.76h.03a5.838,5.838,0,0,1,4.17,1.73,5.6,5.6,0,0,1,1.69,4,5.822,5.822,0,0,1-5.78,5.75,6.057,6.057,0,0,1-4.17-1.66,5.594,5.594,0,0,1-.11-8.06ZM51.394,62.627,50.7,64.4H80.036l-.69-1.77a14.934,14.934,0,0,0-27.952,0ZM76.076,61.8H54.668a12.295,12.295,0,0,1,21.408,0ZM14.638,50.088h.02a8.33,8.33,0,0,0,8.36-8.17,8.047,8.047,0,0,0-2.34-5.81,8.4,8.4,0,0,0-5.95-2.57h-.01a8.281,8.281,0,0,0-5.99,14.12A8.343,8.343,0,0,0,14.638,50.088Zm-4.18-12.26a5.85,5.85,0,0,1,4.17-1.76h.03a5.838,5.838,0,0,1,4.17,1.73,5.6,5.6,0,0,1,1.69,4,5.822,5.822,0,0,1-5.78,5.75,6.057,6.057,0,0,1-4.17-1.66,5.594,5.594,0,0,1-.11-8.06ZM32.352,24.882a7.9,7.9,0,0,1,1.626,2.465,15.259,15.259,0,0,1,1.03,5.516,1.657,1.657,0,0,0,1.8,1.755h6.361A1.693,1.693,0,0,0,45,32.872a32.506,32.506,0,0,1,.456-3.712,7.76,7.76,0,0,1,2.121-4.2A10.83,10.83,0,0,0,47.5,9.434a10.589,10.589,0,0,0-9.044-2.9,10.34,10.34,0,0,0-8.7,7.3A10.372,10.372,0,0,0,32.352,24.882Zm-.175-10.574A7.957,7.957,0,0,1,39.322,8.9a8.222,8.222,0,0,1,7.4,3.345,8.36,8.36,0,0,1,1.032,8.2,7.054,7.054,0,0,1-1.612,2.489A10.608,10.608,0,0,0,43.077,28.6c-.168.777-.265,1.574-.357,2.344-.04.328-.08.658-.125.98-.011.075-.019.149-.024.224l-5.136-.014-.033-.361c-.041-.472-.083-.947-.148-1.418a12.68,12.68,0,0,0-2.38-6.309c-.2-.253-.422-.489-.643-.725l-.166-.177A8.057,8.057,0,0,1,32.177,14.308Zm-7.023-4.7-.1-.283a1.435,1.435,0,0,1,.672-1.282A1.178,1.178,0,0,1,26.9,8.034c.91.493,1.8,1.023,2.569,1.475a1.245,1.245,0,0,1,.432,1.662,1.292,1.292,0,0,1-.762.638,1.251,1.251,0,0,1-.346.049,1.14,1.14,0,0,1-.582-.156c-.9-.49-1.752-.982-2.586-1.5A1.193,1.193,0,0,1,25.154,9.61Zm13.57-5.581c-.006-.833,0-1.66,0-2.491V1.324a1.272,1.272,0,1,1,2.543-.011c0,.214,0,.427,0,.639v.52l.005.611c0,.32,0,.637-.005.954a1.369,1.369,0,0,1-.4.985,1.236,1.236,0,0,1-.876.34h-.029A1.246,1.246,0,0,1,38.724,4.029Zm-8.746,19.12a1.183,1.183,0,0,1-.484,1.431c-.935.563-1.792,1.054-2.627,1.512a1.136,1.136,0,0,1-.556.139,1.248,1.248,0,0,1-1.095-.67,1.218,1.218,0,0,1,.382-1.64c.724-.436,1.46-.856,2.2-1.275l.444-.255a.986.986,0,0,1,.4-.119l.127-.014.034,0A1.249,1.249,0,0,1,29.978,23.149Zm22.968,2.858q-1.148-.66-2.283-1.321a1.3,1.3,0,0,1-.553-1.769,1.221,1.221,0,0,1,.754-.6,1.362,1.362,0,0,1,1.066.162c.793.45,1.582.907,2.37,1.364l0,0a1.241,1.241,0,0,1,.59,1.435,1.261,1.261,0,0,1-1.23.951l-.078.006-.259-.069A2.385,2.385,0,0,1,52.946,26.007ZM50.113,11.2a1.3,1.3,0,0,1-.162-.625A1.287,1.287,0,0,1,50.6,9.465c.791-.468,1.585-.931,2.381-1.378A1.34,1.34,0,0,1,55,9.13l.038.266-.24.324a1.592,1.592,0,0,1-.491.535c-.813.5-1.655.978-2.447,1.42a1.3,1.3,0,0,1-.649.178A1.253,1.253,0,0,1,50.113,11.2ZM42.65,42.188a2.611,2.611,0,0,0,2.608-2.607v-.5A2.611,2.611,0,0,0,42.65,36.47H37.42a2.611,2.611,0,0,0-2.608,2.608v.5a2.611,2.611,0,0,0,2.608,2.607Zm0-2.266H37.42a.342.342,0,0,1-.342-.341v-.5a.342.342,0,0,1,.342-.342h5.23a.34.34,0,0,1,.337.342v.5A.339.339,0,0,1,42.65,39.922Z"/></g></svg>