<?xml version="1.0" encoding="UTF-8"?><svg xmlns="http://www.w3.org/2000/svg" xmlns:xlink="http://www.w3.org/1999/xlink" height="2053.2" preserveAspectRatio="xMidYMid meet" version="1.0" viewBox="292.1 212.5 1915.6 2053.2" width="1915.6" zoomAndPan="magnify"><g><g id="change1_1"><path d="M 730.683594 417.035156 C 1102.070312 212.539062 1599.609375 424.992188 1858.878906 660.515625 C 1932.945312 727.792969 2112.546875 895.648438 2154.941406 1164.667969 C 2207.625 1498.828125 2035.195312 1903.878906 1639.730469 2077.128906 C 1209.28125 2265.710938 727.992188 2086.988281 502.734375 1796.878906 C 292.0625 1525.558594 334.230469 1206.089844 349.296875 1091.960938 C 366.96875 958.070312 419.53125 588.355469 730.683594 417.035156" fill="#caddff"/></g><g id="change2_1"><path d="M 1871.664062 2162.730469 L 1769.539062 2162.730469 L 1769.539062 907.351562 L 1870.628906 900.210938 L 1871.664062 2162.730469" fill="#fff"/></g><g id="change3_1"><path d="M 1772.851562 2159.417969 L 1868.359375 2159.417969 L 1867.347656 903.753906 L 1772.851562 910.425781 Z M 1871.671875 2166.039062 L 1769.539062 2166.039062 C 1767.707031 2166.039062 1766.234375 2164.558594 1766.234375 2162.730469 L 1766.234375 907.34375 C 1766.234375 905.605469 1767.570312 904.167969 1769.308594 904.042969 L 1870.417969 896.910156 C 1871.328125 896.839844 1872.234375 897.164062 1872.902344 897.785156 C 1873.570312 898.40625 1873.949219 899.28125 1873.949219 900.199219 L 1874.972656 2162.730469 C 1874.972656 2163.609375 1874.628906 2164.449219 1874.019531 2165.070312 C 1873.386719 2165.6875 1872.546875 2166.039062 1871.671875 2166.039062" fill="inherit"/></g><g id="change4_1"><path d="M 2145.503906 2162.730469 L 1871.667969 2162.730469 C 1871.101562 2162.730469 1870.640625 2162.089844 1870.640625 2161.300781 L 1870.640625 901.691406 C 1870.640625 900.875 1871.128906 900.230469 1871.707031 900.269531 L 2145.542969 914.714844 C 2146.097656 914.742188 2146.53125 915.375 2146.53125 916.136719 L 2146.53125 2161.300781 C 2146.53125 2162.089844 2146.070312 2162.730469 2145.503906 2162.730469" fill="#99b9ff"/></g><g id="change3_2"><path d="M 1873.945312 2159.421875 L 2143.214844 2159.421875 L 2143.214844 917.914062 L 1873.945312 903.695312 Z M 2145.496094 2166.042969 L 1871.664062 2166.042969 C 1869.238281 2166.042969 1867.339844 2163.960938 1867.339844 2161.300781 L 1867.339844 901.691406 C 1867.339844 900.308594 1867.878906 899 1868.816406 898.117188 C 1869.660156 897.3125 1870.769531 896.90625 1871.875 896.96875 L 2145.707031 911.425781 C 2148.03125 911.542969 2149.824219 913.613281 2149.824219 916.148438 L 2149.824219 2161.300781 C 2149.824219 2163.960938 2147.925781 2166.042969 2145.496094 2166.042969" fill="inherit"/></g><g id="change1_2"><path d="M 2055.625 1507.90625 C 2053.792969 1507.90625 2052.316406 1506.425781 2052.316406 1504.597656 L 2052.316406 994.792969 C 2052.316406 992.972656 2053.792969 991.496094 2055.625 991.496094 C 2057.457031 991.496094 2058.933594 992.972656 2058.933594 994.792969 L 2058.933594 1504.597656 C 2058.933594 1506.425781 2057.457031 1507.90625 2055.625 1507.90625" fill="#caddff"/></g><g id="change1_3"><path d="M 1968.996094 1326.261719 C 1967.167969 1326.261719 1965.695312 1324.78125 1965.695312 1322.949219 L 1965.695312 1172.546875 C 1965.695312 1170.71875 1967.167969 1169.242188 1968.996094 1169.242188 C 1970.824219 1169.242188 1972.300781 1170.71875 1972.300781 1172.546875 L 1972.300781 1322.949219 C 1972.300781 1324.78125 1970.824219 1326.261719 1968.996094 1326.261719" fill="#caddff"/></g><g id="change1_4"><path d="M 1968.996094 1841.960938 C 1967.167969 1841.960938 1965.695312 1840.480469 1965.695312 1838.648438 L 1965.695312 1579.128906 C 1965.695312 1577.300781 1967.167969 1575.820312 1968.996094 1575.820312 C 1970.824219 1575.820312 1972.300781 1577.300781 1972.300781 1579.128906 L 1972.300781 1838.648438 C 1972.300781 1840.480469 1970.824219 1841.960938 1968.996094 1841.960938" fill="#caddff"/></g><g id="change2_2"><path d="M 1527.289062 2162.878906 L 1425.628906 2162.878906 L 1425.628906 1225.660156 L 1526.730469 1193.71875 L 1527.289062 2162.878906" fill="#fff"/></g><g id="change3_3"><path d="M 1428.941406 2159.570312 L 1523.980469 2159.570312 L 1523.429688 1198.230469 L 1428.941406 1228.078125 Z M 1527.289062 2166.179688 L 1425.628906 2166.179688 C 1423.800781 2166.179688 1422.320312 2164.699219 1422.320312 2162.878906 L 1422.320312 1225.660156 C 1422.320312 1224.210938 1423.261719 1222.941406 1424.628906 1222.5 L 1525.738281 1190.558594 C 1526.738281 1190.25 1527.839844 1190.429688 1528.691406 1191.050781 C 1529.539062 1191.671875 1530.039062 1192.660156 1530.039062 1193.71875 L 1530.589844 2162.878906 C 1530.589844 2163.75 1530.25 2164.589844 1529.628906 2165.210938 C 1529 2165.839844 1528.160156 2166.179688 1527.289062 2166.179688" fill="inherit"/></g><g id="change4_2"><path d="M 1801.589844 2162.878906 L 1527.757812 2162.878906 C 1527.191406 2162.878906 1526.726562 2162.390625 1526.726562 2161.78125 L 1526.726562 1194.859375 C 1526.726562 1194.242188 1527.203125 1193.742188 1527.789062 1193.765625 L 1801.621094 1204.859375 C 1802.175781 1204.878906 1802.617188 1205.367188 1802.617188 1205.953125 L 1802.617188 2161.78125 C 1802.617188 2162.390625 1802.152344 2162.878906 1801.589844 2162.878906" fill="#99b9ff"/></g><g id="change3_4"><path d="M 1530.039062 2159.570312 L 1799.3125 2159.570312 L 1799.3125 1208.066406 L 1530.039062 1197.152344 Z M 1801.59375 2166.179688 L 1527.769531 2166.179688 C 1525.375 2166.179688 1523.4375 2164.207031 1523.4375 2161.777344 L 1523.4375 1194.859375 C 1523.4375 1193.652344 1523.925781 1192.476562 1524.789062 1191.644531 C 1525.621094 1190.847656 1526.761719 1190.414062 1527.933594 1190.460938 L 1801.769531 1201.550781 C 1804.109375 1201.648438 1805.925781 1203.578125 1805.925781 1205.949219 L 1805.925781 2161.777344 C 1805.925781 2164.207031 1803.988281 2166.179688 1801.59375 2166.179688" fill="inherit"/></g><g id="change1_5"><path d="M 1664.75 1701.199219 C 1662.917969 1701.199219 1661.433594 1699.71875 1661.433594 1697.886719 L 1661.433594 1268.59375 C 1661.433594 1266.761719 1662.917969 1265.289062 1664.75 1265.289062 C 1666.558594 1265.289062 1668.042969 1266.761719 1668.042969 1268.59375 L 1668.042969 1697.886719 C 1668.042969 1699.71875 1666.558594 1701.199219 1664.75 1701.199219" fill="#caddff"/></g><g id="change1_6"><path d="M 1592.441406 1411.988281 C 1590.621094 1411.988281 1589.128906 1410.511719 1589.128906 1408.679688 L 1589.128906 1335.5 C 1589.128906 1333.679688 1590.621094 1332.199219 1592.441406 1332.199219 C 1594.269531 1332.199219 1595.75 1333.679688 1595.75 1335.5 L 1595.75 1408.679688 C 1595.75 1410.511719 1594.269531 1411.988281 1592.441406 1411.988281" fill="#caddff"/></g><g id="change1_7"><path d="M 1592.441406 1897.5 C 1590.621094 1897.5 1589.128906 1896.019531 1589.128906 1894.199219 L 1589.128906 1529.710938 C 1589.128906 1527.878906 1590.621094 1526.398438 1592.441406 1526.398438 C 1594.269531 1526.398438 1595.75 1527.878906 1595.75 1529.710938 L 1595.75 1894.199219 C 1595.75 1896.019531 1594.269531 1897.5 1592.441406 1897.5" fill="#caddff"/></g><g id="change1_8"><path d="M 1737.023438 1556.253906 C 1735.210938 1556.253906 1733.726562 1554.773438 1733.726562 1552.941406 L 1733.726562 1479.773438 C 1733.726562 1477.941406 1735.210938 1476.464844 1737.023438 1476.464844 C 1738.851562 1476.464844 1740.335938 1477.941406 1740.335938 1479.773438 L 1740.335938 1552.941406 C 1740.335938 1554.773438 1738.851562 1556.253906 1737.023438 1556.253906" fill="#caddff"/></g><g id="change2_3"><path d="M 1185.328125 2162.878906 L 1084.21875 2162.878906 L 1084.21875 1624.210938 L 1185.328125 1602.039062 L 1185.328125 2162.878906" fill="#fff"/></g><g id="change3_5"><path d="M 1087.53125 2159.570312 L 1182.019531 2159.570312 L 1182.019531 1606.160156 L 1087.53125 1626.878906 Z M 1185.328125 2166.179688 L 1084.21875 2166.179688 C 1082.390625 2166.179688 1080.910156 2164.699219 1080.910156 2162.878906 L 1080.910156 1624.210938 C 1080.910156 1622.660156 1082 1621.320312 1083.511719 1620.980469 L 1184.621094 1598.808594 C 1185.601562 1598.601562 1186.621094 1598.839844 1187.398438 1599.46875 C 1188.179688 1600.101562 1188.628906 1601.039062 1188.628906 1602.039062 L 1188.628906 2162.878906 C 1188.628906 2164.699219 1187.148438 2166.179688 1185.328125 2166.179688" fill="inherit"/></g><g id="change4_3"><path d="M 1461.210938 2162.878906 L 1185.328125 2162.878906 L 1185.328125 1603.21875 C 1185.328125 1602.578125 1185.859375 1602.058594 1186.5 1602.078125 L 1461.210938 1611.289062 L 1461.210938 2162.878906" fill="#99b9ff"/></g><g id="change3_6"><path d="M 1188.628906 2159.570312 L 1457.898438 2159.570312 L 1457.898438 1614.488281 L 1188.628906 1605.46875 Z M 1464.519531 2166.179688 L 1182.019531 2166.179688 L 1182.019531 1603.21875 C 1182.019531 1602.019531 1182.511719 1600.859375 1183.371094 1600.03125 C 1184.230469 1599.191406 1185.371094 1598.738281 1186.609375 1598.78125 L 1464.519531 1608.089844 L 1464.519531 2166.179688" fill="inherit"/></g><g id="change1_9"><path d="M 1258.660156 2006.5 C 1256.839844 2006.5 1255.351562 2005.011719 1255.351562 2003.191406 L 1255.351562 1669.058594 C 1255.351562 1667.230469 1256.839844 1665.75 1258.660156 1665.75 C 1260.488281 1665.75 1261.96875 1667.230469 1261.96875 1669.058594 L 1261.96875 2003.191406 C 1261.96875 2005.011719 1260.488281 2006.5 1258.660156 2006.5" fill="#caddff"/></g><g id="change1_10"><path d="M 1403.25 2045.578125 C 1401.429688 2045.578125 1399.949219 2044.089844 1399.949219 2042.269531 L 1399.949219 1708.140625 C 1399.949219 1706.308594 1401.429688 1704.828125 1403.25 1704.828125 C 1405.078125 1704.828125 1406.558594 1706.308594 1406.558594 1708.140625 L 1406.558594 2042.269531 C 1406.558594 2044.089844 1405.078125 2045.578125 1403.25 2045.578125" fill="#caddff"/></g><g id="change1_11"><path d="M 1330.960938 1914.660156 C 1329.128906 1914.660156 1327.648438 1913.179688 1327.648438 1911.351562 L 1327.648438 1842.960938 C 1327.648438 1841.140625 1329.128906 1839.660156 1330.960938 1839.660156 C 1332.78125 1839.660156 1334.261719 1841.140625 1334.261719 1842.960938 L 1334.261719 1911.351562 C 1334.261719 1913.179688 1332.78125 1914.660156 1330.960938 1914.660156" fill="#caddff"/></g><g id="change2_4"><path d="M 845.320312 2162.878906 L 743.253906 2162.878906 L 743.253906 1895.71875 L 844.359375 1875.78125 L 845.320312 2162.878906" fill="#fff"/></g><g id="change3_7"><path d="M 746.5625 2159.570312 L 842.003906 2159.570312 L 841.066406 1879.800781 L 746.5625 1898.441406 Z M 845.320312 2166.179688 L 743.257812 2166.179688 C 741.429688 2166.179688 739.949219 2164.699219 739.949219 2162.878906 L 739.949219 1895.71875 C 739.949219 1894.140625 741.066406 1892.78125 742.617188 1892.480469 L 843.71875 1872.539062 C 844.6875 1872.351562 845.691406 1872.601562 846.457031 1873.230469 C 847.21875 1873.851562 847.664062 1874.789062 847.667969 1875.769531 L 848.628906 2162.871094 C 848.632812 2163.75 848.285156 2164.589844 847.664062 2165.210938 C 847.042969 2165.828125 846.199219 2166.179688 845.320312 2166.179688" fill="inherit"/></g><g id="change4_4"><path d="M 1119.28125 2162.878906 L 845.320312 2162.878906 C 844.789062 2162.878906 844.359375 2162.449219 844.359375 2161.921875 L 844.359375 1876.761719 C 844.359375 1876.21875 844.800781 1875.789062 845.335938 1875.800781 L 1119.300781 1880.269531 C 1119.820312 1880.28125 1120.238281 1880.710938 1120.238281 1881.230469 L 1120.238281 2161.921875 C 1120.238281 2162.449219 1119.808594 2162.878906 1119.28125 2162.878906" fill="#99b9ff"/></g><g id="change3_8"><path d="M 847.667969 2159.570312 L 1116.941406 2159.570312 L 1116.941406 1883.539062 L 847.667969 1879.148438 Z M 1119.28125 2166.179688 L 845.320312 2166.179688 C 842.96875 2166.179688 841.050781 2164.269531 841.050781 2161.921875 L 841.050781 1876.761719 C 841.050781 1875.609375 841.503906 1874.53125 842.328125 1873.71875 C 843.148438 1872.910156 844.261719 1872.46875 845.390625 1872.488281 L 1119.351562 1876.960938 C 1121.671875 1877 1123.550781 1878.921875 1123.550781 1881.230469 L 1123.550781 2161.921875 C 1123.550781 2164.269531 1121.628906 2166.179688 1119.28125 2166.179688" fill="inherit"/></g><g id="change1_12"><path d="M 1036.859375 2098.328125 C 1035.039062 2098.328125 1033.558594 2096.851562 1033.558594 2095.019531 L 1033.558594 1925.03125 C 1033.558594 1923.199219 1035.039062 1921.71875 1036.859375 1921.71875 C 1038.691406 1921.71875 1040.171875 1923.199219 1040.171875 1925.03125 L 1040.171875 2095.019531 C 1040.171875 2096.851562 1038.691406 2098.328125 1036.859375 2098.328125" fill="#caddff"/></g><g id="change1_13"><path d="M 950.238281 2037.761719 C 948.410156 2037.761719 946.929688 2036.28125 946.929688 2034.449219 L 946.929688 1984.300781 C 946.929688 1982.46875 948.410156 1980.988281 950.238281 1980.988281 C 952.066406 1980.988281 953.546875 1982.46875 953.546875 1984.300781 L 953.546875 2034.449219 C 953.546875 2036.28125 952.066406 2037.761719 950.238281 2037.761719" fill="#caddff"/></g><g id="change2_5"><path d="M 505.171875 2162.878906 L 403.105469 2162.878906 L 403.105469 2022.96875 L 504.210938 2005.910156 L 505.171875 2162.878906" fill="#fff"/></g><g id="change3_9"><path d="M 406.414062 2159.570312 L 501.84375 2159.570312 L 500.925781 2009.808594 L 406.414062 2025.761719 Z M 505.171875 2166.179688 L 403.105469 2166.179688 C 401.28125 2166.179688 399.800781 2164.699219 399.800781 2162.878906 L 399.800781 2022.96875 C 399.800781 2021.351562 400.964844 2019.96875 402.558594 2019.710938 L 503.660156 2002.640625 C 504.609375 2002.480469 505.59375 2002.75 506.335938 2003.371094 C 507.078125 2004 507.511719 2004.921875 507.515625 2005.878906 L 508.480469 2162.859375 C 508.484375 2163.738281 508.140625 2164.578125 507.519531 2165.210938 C 506.894531 2165.828125 506.054688 2166.179688 505.171875 2166.179688" fill="inherit"/></g><g id="change4_5"><path d="M 779.132812 2162.878906 L 505.171875 2162.878906 C 504.640625 2162.878906 504.210938 2162.640625 504.210938 2162.351562 L 504.210938 2006.441406 C 504.210938 2006.148438 504.648438 2005.910156 505.1875 2005.921875 L 779.148438 2008.359375 C 779.671875 2008.359375 780.09375 2008.601562 780.09375 2008.878906 L 780.09375 2162.351562 C 780.09375 2162.640625 779.664062 2162.878906 779.132812 2162.878906" fill="#99b9ff"/></g><g id="change3_10"><path d="M 507.515625 2159.570312 L 776.785156 2159.570312 L 776.785156 2011.648438 L 507.515625 2009.238281 Z M 779.132812 2166.179688 L 505.171875 2166.179688 C 502.777344 2166.179688 500.902344 2164.5 500.902344 2162.351562 L 500.902344 2006.441406 C 500.902344 2005.460938 501.292969 2004.539062 502 2003.839844 C 502.800781 2003.039062 504.007812 2002.609375 505.21875 2002.609375 L 779.175781 2005.050781 C 781.582031 2005.070312 783.402344 2006.71875 783.402344 2008.878906 L 783.402344 2162.351562 C 783.402344 2164.5 781.523438 2166.179688 779.132812 2166.179688" fill="inherit"/></g><g id="change1_14"><path d="M 696.714844 2129.089844 C 694.886719 2129.089844 693.40625 2127.601562 693.40625 2125.78125 L 693.40625 2032.828125 C 693.40625 2031 694.886719 2029.519531 696.714844 2029.519531 C 698.542969 2029.519531 700.019531 2031 700.019531 2032.828125 L 700.019531 2125.78125 C 700.019531 2127.601562 698.542969 2129.089844 696.714844 2129.089844" fill="#caddff"/></g><g id="change1_15"><path d="M 610.089844 2095.96875 C 608.261719 2095.96875 606.78125 2094.488281 606.78125 2092.660156 L 606.78125 2065.238281 C 606.78125 2063.410156 608.261719 2061.929688 610.089844 2061.929688 C 611.914062 2061.929688 613.394531 2063.410156 613.394531 2065.238281 L 613.394531 2092.660156 C 613.394531 2094.488281 611.914062 2095.96875 610.089844 2095.96875" fill="#caddff"/></g><g id="change5_1"><path d="M 1946.628906 878.828125 L 1897.222656 878.828125 L 1897.222656 747.105469 L 1946.628906 747.105469 L 1946.628906 878.828125" fill="#5479f7"/></g><g id="change3_11"><path d="M 1900.542969 875.523438 L 1943.320312 875.523438 L 1943.320312 750.417969 L 1900.542969 750.417969 Z M 1946.621094 882.140625 L 1897.226562 882.140625 C 1895.398438 882.140625 1893.914062 880.65625 1893.914062 878.824219 L 1893.914062 747.101562 C 1893.914062 745.285156 1895.398438 743.800781 1897.226562 743.800781 L 1946.621094 743.800781 C 1948.453125 743.800781 1949.9375 745.285156 1949.9375 747.101562 L 1949.9375 878.824219 C 1949.9375 880.65625 1948.453125 882.140625 1946.621094 882.140625" fill="inherit"/></g><g id="change5_2"><path d="M 1960.808594 880.832031 L 1882.496094 880.832031 C 1879.320312 880.832031 1876.753906 878.261719 1876.753906 875.089844 L 1876.753906 849.65625 C 1876.753906 846.484375 1879.320312 843.914062 1882.496094 843.914062 L 1960.808594 843.914062 C 1963.992188 843.914062 1966.5625 846.484375 1966.5625 849.65625 L 1966.5625 875.089844 C 1966.5625 878.261719 1963.992188 880.832031 1960.808594 880.832031" fill="#5479f7"/></g><g id="change3_12"><path d="M 1894.402344 847.203125 C 1886.511719 847.203125 1880.082031 853.632812 1880.082031 861.535156 L 1880.082031 863.179688 C 1880.082031 871.085938 1886.511719 877.511719 1894.402344 877.511719 L 1948.933594 877.511719 C 1956.835938 877.511719 1963.265625 871.085938 1963.265625 863.179688 L 1963.265625 861.535156 C 1963.265625 853.632812 1956.835938 847.203125 1948.933594 847.203125 Z M 1948.933594 884.125 L 1894.402344 884.125 C 1882.863281 884.125 1873.460938 874.734375 1873.460938 863.179688 L 1873.460938 861.535156 C 1873.460938 849.996094 1882.863281 840.59375 1894.402344 840.59375 L 1948.933594 840.59375 C 1960.484375 840.59375 1969.886719 849.996094 1969.886719 861.535156 L 1969.886719 863.179688 C 1969.886719 874.734375 1960.484375 884.125 1948.933594 884.125" fill="inherit"/></g><g id="change5_3"><path d="M 2015.460938 903.777344 L 1827.863281 903.777344 L 1827.863281 883.847656 C 1827.863281 878.875 1831.894531 874.84375 1836.878906 874.84375 L 2006.449219 874.84375 C 2011.429688 874.84375 2015.460938 878.875 2015.460938 883.847656 L 2015.460938 903.777344" fill="#5479f7"/></g><g id="change3_13"><path d="M 1831.382812 900.476562 L 2011.945312 900.476562 C 2010.3125 887.894531 1999.539062 878.144531 1986.519531 878.144531 L 1856.800781 878.144531 C 1843.792969 878.144531 1833.007812 887.894531 1831.382812 900.476562 Z M 2015.464844 907.089844 L 1827.867188 907.089844 C 1826.035156 907.089844 1824.546875 905.605469 1824.546875 903.785156 C 1824.546875 886 1839.027344 871.53125 1856.800781 871.53125 L 1986.519531 871.53125 C 2004.304688 871.53125 2018.769531 886 2018.769531 903.785156 C 2018.769531 905.605469 2017.296875 907.089844 2015.464844 907.089844" fill="inherit"/></g><g id="change5_4"><path d="M 1883.769531 740.6875 C 1831.941406 711.582031 1780.140625 667.660156 1741.613281 620.179688 C 1717.96875 591.039062 1680.238281 536.484375 1693.3125 498.679688 C 1697.101562 487.773438 1706.714844 474.0625 1731.03125 470.722656 C 1748.679688 468.304688 1772.5625 471.644531 1801.992188 480.667969 L 1795.570312 506.644531 C 1769.210938 498.566406 1748.480469 495.476562 1733.984375 497.46875 C 1724.011719 498.828125 1717.929688 502.503906 1715.898438 508.375 C 1711.074219 522.296875 1722.71875 556.699219 1759.5625 602.121094 C 1796.167969 647.230469 1845.402344 688.960938 1894.664062 716.632812 L 1883.769531 740.6875" fill="#5479f7"/></g><g id="change3_14"><path d="M 1743.015625 473.265625 C 1738.910156 473.265625 1735.050781 473.511719 1731.480469 474 C 1708.820312 477.109375 1699.917969 489.730469 1696.449219 499.769531 C 1683.886719 536.0625 1720.96875 589.484375 1744.191406 618.101562 C 1781.671875 664.308594 1831.820312 707.117188 1882.261719 736.019531 L 1890.402344 718.019531 C 1841.671875 690.152344 1793.195312 648.8125 1757 604.207031 C 1716.761719 554.617188 1708.023438 521.007812 1712.777344 507.285156 C 1715.25 500.144531 1722.242188 495.738281 1733.539062 494.1875 C 1747.898438 492.214844 1767.949219 495.011719 1793.195312 502.476562 L 1798.023438 482.925781 C 1776.402344 476.496094 1757.960938 473.265625 1743.015625 473.265625 Z M 1883.773438 743.988281 C 1883.210938 743.988281 1882.648438 743.847656 1882.160156 743.5625 C 1829.972656 714.273438 1777.8125 670.050781 1739.046875 622.269531 C 1714.964844 592.582031 1676.585938 536.925781 1690.191406 497.597656 C 1694.277344 485.8125 1704.601562 471.015625 1730.582031 467.445312 C 1748.722656 464.960938 1773.066406 468.34375 1802.96875 477.507812 C 1804.640625 478.019531 1805.628906 479.757812 1805.203125 481.453125 L 1798.785156 507.433594 C 1798.5625 508.320312 1798 509.070312 1797.203125 509.519531 C 1796.414062 509.96875 1795.476562 510.070312 1794.605469 509.808594 C 1768.699219 501.867188 1748.449219 498.820312 1734.441406 500.742188 C 1725.8125 501.929688 1720.617188 504.863281 1719.019531 509.457031 C 1714.652344 522.09375 1726.273438 555.839844 1762.132812 600.035156 C 1798.476562 644.832031 1847.378906 686.269531 1896.28125 713.746094 C 1897.792969 714.585938 1898.390625 716.433594 1897.679688 717.992188 L 1886.78125 742.050781 C 1886.40625 742.886719 1885.683594 743.535156 1884.808594 743.824219 C 1884.472656 743.9375 1884.121094 743.988281 1883.773438 743.988281" fill="inherit"/></g><g id="change5_5"><path d="M 1961.109375 739.179688 C 2012.09375 710.074219 2063.066406 666.15625 2100.960938 618.671875 C 2124.234375 589.527344 2161.347656 534.976562 2148.472656 497.171875 C 2144.757812 486.261719 2135.304688 472.550781 2111.371094 469.222656 C 2094 466.796875 2070.519531 470.136719 2041.570312 479.152344 L 2047.871094 505.128906 C 2073.832031 497.054688 2094.214844 493.964844 2108.46875 495.953125 C 2118.28125 497.320312 2124.273438 500.992188 2126.261719 506.867188 C 2131.007812 520.789062 2119.550781 555.183594 2083.300781 600.613281 C 2047.300781 645.722656 1998.863281 687.453125 1950.398438 715.125 L 1961.109375 739.179688" fill="#5479f7"/></g><g id="change3_15"><path d="M 1954.621094 716.507812 L 1962.628906 734.476562 C 2012.210938 705.589844 2061.527344 662.792969 2098.371094 616.625 C 2121.21875 587.988281 2157.703125 534.554688 2145.339844 498.242188 C 2141.925781 488.214844 2133.183594 475.59375 2110.910156 472.5 C 2094.628906 470.230469 2072.632812 473.230469 2045.511719 481.414062 L 2050.265625 500.949219 C 2075.074219 493.5 2094.8125 490.710938 2108.917969 492.691406 C 2120.074219 494.242188 2126.957031 498.652344 2129.386719 505.800781 C 2134.046875 519.507812 2125.46875 553.097656 2085.886719 602.679688 C 2050.277344 647.304688 2002.554688 688.640625 1954.621094 716.507812 Z M 1961.117188 742.484375 C 1960.757812 742.484375 1960.410156 742.433594 1960.078125 742.328125 C 1959.1875 742.035156 1958.472656 741.382812 1958.085938 740.535156 L 1947.367188 716.464844 C 1946.675781 714.914062 1947.277344 713.09375 1948.75 712.257812 C 1996.859375 684.789062 2044.964844 643.347656 2080.707031 598.5625 C 2115.996094 554.34375 2127.433594 520.582031 2123.128906 507.9375 C 2121.5625 503.339844 2116.476562 500.417969 2108.003906 499.238281 C 2094.230469 497.3125 2074.332031 500.367188 2048.855469 508.296875 C 2047.980469 508.574219 2047.039062 508.46875 2046.242188 508.015625 C 2045.457031 507.566406 2044.871094 506.808594 2044.660156 505.917969 L 2038.335938 479.9375 C 2037.925781 478.25 2038.910156 476.523438 2040.570312 476.007812 C 2070.003906 466.84375 2093.976562 463.457031 2111.828125 465.9375 C 2137.433594 469.511719 2147.597656 484.320312 2151.605469 496.117188 C 2164.980469 535.40625 2127.234375 591.070312 2103.539062 620.742188 C 2065.40625 668.53125 2014.085938 712.746094 1962.734375 742.046875 C 1962.246094 742.339844 1961.671875 742.484375 1961.117188 742.484375" fill="inherit"/></g><g id="change5_6"><path d="M 1922.035156 764.066406 C 2053.910156 765.535156 2055.339844 578.207031 2083.695312 428.988281 L 1759.378906 427.785156 C 1785.597656 581.3125 1790.378906 766.558594 1922.035156 764.066406" fill="#5479f7"/></g><g id="change3_16"><path d="M 1763.292969 431.117188 C 1766.828125 452.152344 1770.015625 474.023438 1773.113281 495.203125 C 1782.808594 561.492188 1792.832031 630.046875 1814.152344 680.097656 C 1838.007812 736.078125 1872.183594 761.714844 1921.964844 760.765625 C 1921.992188 760.765625 1922.042969 760.765625 1922.070312 760.765625 C 1922.582031 760.777344 1923.09375 760.777344 1923.605469 760.777344 C 1971.03125 760.777344 2003.902344 736.144531 2026.976562 683.351562 C 2047.847656 635.601562 2057.820312 570.25 2067.476562 507.058594 C 2071.253906 482.257812 2075.171875 456.636719 2079.703125 432.28125 Z M 1919.417969 767.410156 C 1806.226562 767.410156 1786.074219 629.535156 1766.570312 496.164062 C 1763.292969 473.714844 1759.902344 450.503906 1756.125 428.351562 C 1755.957031 427.390625 1756.214844 426.402344 1756.851562 425.660156 C 1757.480469 424.917969 1758.402344 424.484375 1759.375 424.484375 L 1759.386719 424.484375 L 2083.699219 425.6875 C 2084.683594 425.6875 2085.617188 426.136719 2086.234375 426.890625 C 2086.859375 427.644531 2087.117188 428.644531 2086.9375 429.617188 C 2082.109375 455.007812 2078 481.976562 2074.019531 508.058594 C 2054.542969 635.5625 2034.414062 767.386719 1923.566406 767.386719 C 1923.054688 767.386719 1922.554688 767.386719 1922.042969 767.386719 C 1921.160156 767.398438 1920.289062 767.410156 1919.417969 767.410156" fill="inherit"/></g><g id="change1_16"><path d="M 2036.742188 603.851562 C 2036.515625 603.851562 2036.300781 603.828125 2036.070312 603.777344 C 2034.273438 603.410156 2033.125 601.664062 2033.503906 599.878906 C 2039.5 570.65625 2043.578125 538.726562 2047.511719 507.84375 C 2050.132812 487.289062 2052.839844 466.042969 2056.09375 445.730469 C 2056.386719 443.917969 2058.09375 442.691406 2059.890625 442.980469 C 2061.699219 443.273438 2062.929688 444.96875 2062.636719 446.777344 C 2059.382812 466.976562 2056.6875 488.175781 2054.070312 508.691406 C 2050.121094 539.6875 2046.03125 571.746094 2039.984375 601.207031 C 2039.652344 602.777344 2038.273438 603.851562 2036.742188 603.851562" fill="#caddff"/></g><g id="change1_17"><path d="M 1924.859375 750.546875 C 1923.324219 750.546875 1921.953125 749.472656 1921.617188 747.929688 C 1921.246094 746.132812 1922.378906 744.375 1924.160156 744.003906 C 1973.648438 733.511719 2005.511719 699.265625 2024.46875 636.21875 C 2024.980469 634.472656 2026.847656 633.476562 2028.566406 634.011719 C 2030.324219 634.535156 2031.324219 636.378906 2030.785156 638.125 C 2011.070312 703.726562 1977.636719 739.429688 1925.542969 750.472656 C 1925.308594 750.519531 1925.070312 750.546875 1924.859375 750.546875" fill="#caddff"/></g><g id="change5_7"><path d="M 2096.074219 445.609375 L 1750.128906 445.609375 C 1746.46875 445.609375 1743.5 442.628906 1743.5 438.964844 L 1743.5 409.589844 C 1743.5 405.914062 1746.46875 402.945312 1750.128906 402.945312 L 2096.074219 402.945312 C 2099.75 402.945312 2102.714844 405.914062 2102.714844 409.589844 L 2102.714844 438.964844 C 2102.714844 442.628906 2099.75 445.609375 2096.074219 445.609375" fill="#5479f7"/></g><g id="change3_17"><path d="M 1764.824219 406.25 C 1754.886719 406.25 1746.800781 414.335938 1746.800781 424.273438 C 1746.800781 434.207031 1754.886719 442.296875 1764.824219 442.296875 L 2081.386719 442.296875 C 2091.320312 442.296875 2099.410156 434.207031 2099.410156 424.273438 C 2099.410156 414.335938 2091.320312 406.25 2081.386719 406.25 Z M 2081.386719 448.914062 L 1764.824219 448.914062 C 1751.230469 448.914062 1740.183594 437.867188 1740.183594 424.273438 C 1740.183594 410.695312 1751.230469 399.632812 1764.824219 399.632812 L 2081.386719 399.632812 C 2094.964844 399.632812 2106.023438 410.695312 2106.023438 424.273438 C 2106.023438 437.867188 2094.964844 448.914062 2081.386719 448.914062" fill="inherit"/></g><g id="change1_18"><path d="M 1992.097656 423.847656 C 1990.28125 423.847656 1988.8125 422.390625 1988.796875 420.574219 C 1988.773438 418.746094 1990.230469 417.253906 1992.070312 417.238281 L 2059.332031 416.484375 C 2059.34375 416.484375 2059.355469 416.484375 2059.367188 416.484375 C 2061.171875 416.484375 2062.652344 417.941406 2062.679688 419.757812 C 2062.691406 421.585938 2061.222656 423.082031 2059.40625 423.09375 L 1992.132812 423.847656 C 1992.121094 423.847656 1992.109375 423.847656 1992.097656 423.847656" fill="#caddff"/></g><g id="change1_19"><path d="M 1936.992188 424.488281 C 1935.175781 424.488281 1933.707031 423.03125 1933.695312 421.214844 C 1933.667969 419.390625 1935.140625 417.882812 1936.964844 417.867188 L 1974.425781 417.445312 C 1974.4375 417.445312 1974.453125 417.445312 1974.464844 417.445312 C 1976.277344 417.445312 1977.75 418.902344 1977.773438 420.71875 C 1977.785156 422.542969 1976.316406 424.039062 1974.503906 424.066406 L 1937.03125 424.488281 C 1937.015625 424.488281 1937.003906 424.488281 1936.992188 424.488281" fill="#caddff"/></g><g id="change2_6"><path d="M 823.472656 1735.871094 L 813.476562 1824.53125 L 851.183594 1840.230469 L 865.074219 1743.570312 L 823.472656 1735.871094" fill="#fff"/></g><g id="change3_18"><path d="M 817.039062 1822.429688 L 848.519531 1835.539062 L 861.347656 1746.238281 L 826.359375 1739.769531 Z M 851.183594 1843.539062 C 850.753906 1843.539062 850.320312 1843.449219 849.914062 1843.28125 L 812.203125 1827.578125 C 810.847656 1827.019531 810.023438 1825.621094 810.1875 1824.160156 L 820.183594 1735.5 C 820.289062 1734.578125 820.765625 1733.761719 821.503906 1733.210938 C 822.238281 1732.660156 823.167969 1732.449219 824.074219 1732.621094 L 865.675781 1740.320312 C 867.421875 1740.640625 868.601562 1742.289062 868.347656 1744.039062 L 854.460938 1840.699219 C 854.3125 1841.710938 853.707031 1842.601562 852.820312 1843.109375 C 852.316406 1843.390625 851.75 1843.539062 851.183594 1843.539062" fill="inherit"/></g><g id="change4_6"><path d="M 804.699219 1816.160156 C 803.511719 1824.558594 801.59375 1840.148438 801.4375 1854.128906 C 801.335938 1862.910156 807.925781 1870.320312 816.636719 1871.429688 C 841.253906 1874.589844 897.097656 1878.050781 944.664062 1873.730469 C 947.921875 1873.441406 953.679688 1871.070312 955.285156 1862.929688 C 960.667969 1835.628906 913.171875 1828.941406 861.097656 1809.140625 C 859.054688 1808.359375 856.75 1808.820312 855.179688 1810.339844 L 849.566406 1815.78125 C 843.945312 1821.21875 835.613281 1822.761719 828.417969 1819.691406 L 811.339844 1812.410156 C 808.429688 1811.171875 805.144531 1813.03125 804.699219 1816.160156" fill="#99b9ff"/></g><g id="change3_19"><path d="M 807.976562 1816.621094 C 806.835938 1824.679688 804.902344 1840.28125 804.742188 1854.171875 C 804.664062 1861.230469 809.957031 1867.238281 817.054688 1868.148438 C 842.441406 1871.410156 897.292969 1874.710938 944.363281 1870.441406 C 945.398438 1870.339844 950.613281 1869.511719 952.039062 1862.289062 C 955.429688 1845.101562 933.804688 1837.109375 895.285156 1824.46875 C 883.929688 1820.75 872.191406 1816.890625 859.921875 1812.230469 C 859.074219 1811.910156 858.117188 1812.101562 857.480469 1812.710938 L 851.867188 1818.148438 C 845.277344 1824.53125 835.5625 1826.328125 827.121094 1822.730469 L 810.042969 1815.449219 C 809.453125 1815.199219 808.964844 1815.390625 808.722656 1815.519531 C 808.484375 1815.660156 808.066406 1815.980469 807.976562 1816.621094 Z M 895.109375 1879.078125 C 863.050781 1879.078125 833.152344 1876.890625 816.214844 1874.710938 C 805.785156 1873.378906 798.011719 1864.511719 798.128906 1854.101562 C 798.292969 1839.839844 800.265625 1823.921875 801.425781 1815.691406 C 801.78125 1813.171875 803.257812 1811.011719 805.472656 1809.761719 C 807.6875 1808.511719 810.296875 1808.371094 812.636719 1809.371094 L 829.714844 1816.648438 C 835.703125 1819.199219 842.589844 1817.929688 847.265625 1813.398438 L 852.878906 1807.960938 C 855.355469 1805.570312 859.039062 1804.820312 862.273438 1806.039062 C 874.398438 1810.660156 886.066406 1814.480469 897.347656 1818.191406 C 934.148438 1830.261719 963.21875 1839.800781 958.527344 1863.570312 C 956.71875 1872.761719 950.089844 1876.558594 944.964844 1877.03125 C 928.765625 1878.5 911.648438 1879.078125 895.109375 1879.078125" fill="inherit"/></g><g id="change2_7"><path d="M 801.472656 1852.03125 C 801.472656 1852.03125 801.445312 1853.449219 801.4375 1854.128906 C 801.335938 1862.910156 807.925781 1870.320312 816.636719 1871.429688 C 841.253906 1874.589844 897.097656 1878.050781 944.664062 1873.730469 C 947.921875 1873.441406 953.679688 1871.070312 955.285156 1862.929688 C 955.773438 1860.441406 955.472656 1855.949219 955.472656 1855.949219 L 952.097656 1856.109375 C 904.03125 1858.488281 855.855469 1857.328125 807.960938 1852.660156 L 801.472656 1852.03125" fill="#fff"/></g><g id="change3_20"><path d="M 804.808594 1855.679688 C 805.4375 1862.070312 810.46875 1867.308594 817.054688 1868.148438 C 842.441406 1871.410156 897.292969 1874.710938 944.363281 1870.441406 C 945.398438 1870.339844 950.613281 1869.511719 952.039062 1862.289062 C 952.1875 1861.550781 952.242188 1860.480469 952.253906 1859.421875 C 904.195312 1861.789062 855.535156 1860.628906 807.640625 1855.960938 Z M 895.109375 1879.078125 C 863.050781 1879.078125 833.152344 1876.890625 816.214844 1874.710938 C 805.785156 1873.378906 798.011719 1864.511719 798.128906 1854.101562 L 798.167969 1851.960938 C 798.183594 1851.039062 798.589844 1850.171875 799.277344 1849.558594 C 799.964844 1848.949219 800.878906 1848.648438 801.792969 1848.738281 L 808.28125 1849.371094 C 855.855469 1854.011719 904.1875 1855.171875 951.9375 1852.808594 L 955.3125 1852.640625 C 957.15625 1852.550781 958.652344 1853.929688 958.773438 1855.730469 C 958.808594 1856.230469 959.089844 1860.738281 958.527344 1863.570312 C 956.71875 1872.761719 950.089844 1876.558594 944.964844 1877.03125 C 928.765625 1878.5 911.648438 1879.078125 895.109375 1879.078125" fill="inherit"/></g><g id="change3_21"><path d="M 873.039062 1841.929688 C 872.191406 1841.929688 871.347656 1841.601562 870.699219 1840.960938 C 869.40625 1839.671875 869.40625 1837.570312 870.699219 1836.28125 L 888.972656 1818 C 890.265625 1816.710938 892.355469 1816.710938 893.648438 1818 C 894.941406 1819.289062 894.941406 1821.390625 893.648438 1822.679688 L 875.378906 1840.960938 C 874.730469 1841.601562 873.886719 1841.929688 873.039062 1841.929688" fill="inherit"/></g><g id="change3_22"><path d="M 890.988281 1843.820312 C 890.160156 1843.820312 889.335938 1843.519531 888.695312 1842.898438 C 887.378906 1841.628906 887.335938 1839.539062 888.605469 1838.21875 L 903.203125 1823.050781 C 904.472656 1821.738281 906.566406 1821.699219 907.878906 1822.96875 C 909.195312 1824.230469 909.238281 1826.328125 907.96875 1827.640625 L 893.371094 1842.808594 C 892.71875 1843.480469 891.855469 1843.820312 890.988281 1843.820312" fill="inherit"/></g><g id="change3_23"><path d="M 960.421875 1151.558594 C 960.421875 1151.558594 937.46875 1164.890625 928.507812 1243 C 919.550781 1321.121094 922.539062 1413.199219 860.152344 1504.53125 C 810.324219 1577.460938 814.703125 1700.550781 807.460938 1781.230469 C 807.113281 1785.128906 810.105469 1788.5 814.015625 1788.628906 L 861.78125 1790.269531 C 864.828125 1790.378906 867.566406 1788.460938 868.5 1785.570312 C 877.039062 1759.128906 919.496094 1631.578125 967.1875 1557.628906 C 1017.589844 1479.46875 1078.878906 1276.601562 1078.878906 1276.601562 C 1078.878906 1276.601562 1067.5 1225.320312 1065.921875 1176.171875 C 1064.339844 1127.019531 960.421875 1151.558594 960.421875 1151.558594" fill="inherit"/></g><g id="change2_8"><path d="M 1241.730469 1472.859375 L 1221.578125 1559.78125 L 1257.230469 1579.71875 L 1282.160156 1485.308594 L 1241.730469 1472.859375" fill="#fff"/></g><g id="change3_24"><path d="M 1225.371094 1558.109375 L 1255.121094 1574.75 L 1278.160156 1487.53125 L 1244.148438 1477.070312 Z M 1257.230469 1583.03125 C 1256.671875 1583.03125 1256.121094 1582.890625 1255.621094 1582.609375 L 1219.96875 1562.671875 C 1218.679688 1561.949219 1218.03125 1560.46875 1218.359375 1559.039062 L 1238.511719 1472.109375 C 1238.710938 1471.21875 1239.28125 1470.449219 1240.078125 1469.988281 C 1240.871094 1469.539062 1241.820312 1469.429688 1242.699219 1469.699219 L 1283.140625 1482.148438 C 1284.828125 1482.671875 1285.820312 1484.429688 1285.359375 1486.148438 L 1260.429688 1580.570312 C 1260.171875 1581.550781 1259.460938 1582.371094 1258.519531 1582.769531 C 1258.109375 1582.941406 1257.671875 1583.03125 1257.230469 1583.03125" fill="inherit"/></g><g id="change4_7"><path d="M 1217.300781 1554.648438 C 1216.109375 1563.050781 1208.558594 1578.980469 1208.398438 1592.960938 C 1208.300781 1601.738281 1214.890625 1609.148438 1223.601562 1610.261719 C 1248.21875 1613.421875 1309.699219 1616.539062 1357.261719 1612.21875 C 1360.519531 1611.929688 1366.28125 1609.550781 1367.878906 1601.421875 C 1373.269531 1574.121094 1325.769531 1567.429688 1273.699219 1547.628906 C 1271.660156 1546.851562 1269.351562 1547.308594 1267.78125 1548.828125 L 1262.171875 1554.269531 C 1256.550781 1559.710938 1248.210938 1561.25 1241.019531 1558.179688 L 1223.941406 1550.898438 C 1221.03125 1549.660156 1217.738281 1551.519531 1217.300781 1554.648438" fill="#99b9ff"/></g><g id="change3_25"><path d="M 1220.578125 1555.109375 C 1220.101562 1558.488281 1218.761719 1562.710938 1217.21875 1567.589844 C 1214.800781 1575.210938 1211.800781 1584.691406 1211.710938 1593 C 1211.628906 1600.058594 1216.921875 1606.070312 1224.019531 1606.980469 C 1246.320312 1609.851562 1308.199219 1613.351562 1356.96875 1608.929688 C 1358 1608.828125 1363.21875 1608 1364.640625 1600.78125 C 1368.03125 1583.589844 1346.398438 1575.601562 1307.890625 1562.960938 C 1296.53125 1559.238281 1284.789062 1555.378906 1272.519531 1550.71875 C 1271.671875 1550.398438 1270.71875 1550.589844 1270.078125 1551.199219 L 1264.460938 1556.640625 C 1257.878906 1563.019531 1248.160156 1564.820312 1239.71875 1561.21875 L 1222.640625 1553.941406 C 1222.050781 1553.691406 1221.558594 1553.878906 1221.320312 1554.011719 C 1221.078125 1554.148438 1220.671875 1554.46875 1220.578125 1555.109375 Z M 1303.949219 1617.628906 C 1271.738281 1617.628906 1240.429688 1615.761719 1223.179688 1613.539062 C 1212.75 1612.210938 1204.980469 1603.339844 1205.089844 1592.921875 C 1205.199219 1583.628906 1208.371094 1573.628906 1210.910156 1565.601562 C 1212.371094 1561 1213.628906 1557.019531 1214.03125 1554.179688 C 1214.378906 1551.660156 1215.859375 1549.5 1218.070312 1548.25 C 1220.289062 1547 1222.898438 1546.859375 1225.238281 1547.851562 L 1242.320312 1555.140625 C 1248.300781 1557.691406 1255.191406 1556.421875 1259.859375 1551.890625 L 1265.480469 1546.449219 C 1267.949219 1544.058594 1271.640625 1543.308594 1274.871094 1544.539062 C 1287 1549.148438 1298.671875 1552.96875 1309.949219 1556.679688 C 1346.75 1568.75 1375.820312 1578.289062 1371.128906 1602.058594 C 1369.320312 1611.25 1362.691406 1615.050781 1357.570312 1615.519531 C 1341.03125 1617.019531 1322.339844 1617.628906 1303.949219 1617.628906" fill="inherit"/></g><g id="change2_9"><path d="M 1209.738281 1590.28125 C 1209.738281 1590.28125 1209.710938 1591.699219 1209.699219 1592.378906 C 1209.601562 1601.160156 1216.191406 1608.558594 1224.898438 1609.679688 C 1249.519531 1612.839844 1309.699219 1616.539062 1357.261719 1612.21875 C 1360.519531 1611.929688 1366.28125 1609.550781 1367.878906 1601.421875 C 1368.378906 1598.929688 1368.070312 1594.441406 1368.070312 1594.441406 L 1364.699219 1594.601562 C 1316.628906 1596.980469 1268.460938 1595.820312 1220.558594 1591.148438 L 1209.738281 1590.28125" fill="#fff"/></g><g id="change3_26"><path d="M 1213.070312 1593.871094 C 1213.671875 1600.289062 1218.710938 1605.550781 1225.320312 1606.398438 C 1246.878906 1609.171875 1307.410156 1613.421875 1356.96875 1608.929688 C 1358 1608.828125 1363.21875 1608 1364.640625 1600.78125 C 1364.78125 1600.070312 1364.839844 1599 1364.851562 1597.910156 C 1316.789062 1600.28125 1268.128906 1599.121094 1220.238281 1594.449219 Z M 1308.519531 1617.5 C 1272.828125 1617.5 1239.410156 1614.878906 1224.480469 1612.960938 C 1214.050781 1611.621094 1206.28125 1602.761719 1206.398438 1592.339844 L 1206.429688 1590.210938 C 1206.449219 1589.300781 1206.851562 1588.441406 1207.519531 1587.828125 C 1208.199219 1587.210938 1209.089844 1586.910156 1210.011719 1586.980469 L 1220.828125 1587.859375 C 1268.460938 1592.5 1316.789062 1593.660156 1364.539062 1591.300781 L 1367.910156 1591.128906 C 1369.761719 1591.039062 1371.25 1592.421875 1371.371094 1594.210938 C 1371.410156 1594.71875 1371.691406 1599.230469 1371.128906 1602.070312 C 1369.320312 1611.25 1362.691406 1615.050781 1357.570312 1615.519531 C 1341.789062 1616.949219 1324.921875 1617.5 1308.519531 1617.5" fill="inherit"/></g><g id="change3_27"><path d="M 1285.640625 1580.421875 C 1284.789062 1580.421875 1283.949219 1580.089844 1283.300781 1579.449219 C 1282.011719 1578.160156 1282.011719 1576.058594 1283.300781 1574.769531 L 1301.570312 1556.488281 C 1302.859375 1555.199219 1304.960938 1555.199219 1306.25 1556.488281 C 1307.539062 1557.78125 1307.539062 1559.878906 1306.25 1561.171875 L 1287.980469 1579.449219 C 1287.328125 1580.089844 1286.488281 1580.421875 1285.640625 1580.421875" fill="inherit"/></g><g id="change3_28"><path d="M 1303.589844 1582.308594 C 1302.761719 1582.308594 1301.941406 1582.011719 1301.289062 1581.390625 C 1299.980469 1580.121094 1299.941406 1578.03125 1301.199219 1576.710938 L 1315.800781 1561.539062 C 1317.078125 1560.230469 1319.171875 1560.191406 1320.480469 1561.460938 C 1321.800781 1562.71875 1321.839844 1564.820312 1320.570312 1566.128906 L 1305.96875 1581.300781 C 1305.320312 1581.96875 1304.460938 1582.308594 1303.589844 1582.308594" fill="inherit"/></g><g id="change3_29"><path d="M 1052.441406 1290.378906 C 1052.441406 1290.378906 1159.769531 1281.941406 1279.550781 1217.609375 C 1283.089844 1215.71875 1285.371094 1221.570312 1283.230469 1224.960938 C 1277.199219 1234.5 1273.988281 1248.808594 1265 1273.21875 C 1253.921875 1303.269531 1230.550781 1458.761719 1222.839844 1507.140625 C 1222.148438 1511.519531 1225.441406 1515.5 1229.859375 1515.640625 L 1275.921875 1517.140625 C 1278.828125 1517.230469 1281.519531 1515.609375 1282.78125 1512.988281 C 1299.398438 1478.371094 1407.910156 1205.890625 1403.761719 1155.140625 C 1399.28125 1100.28125 1336.648438 1103.949219 1310.519531 1102.269531 C 1283.5 1100.53125 1038.480469 1146.320312 1038.480469 1146.320312 L 1052.441406 1290.378906" fill="inherit"/></g><g id="change2_10"><path d="M 725.996094 1210.25 C 729.707031 1205.828125 734.511719 1200.640625 738.644531 1196.558594 C 743.976562 1191.289062 761.789062 1156.621094 761.789062 1156.621094 L 792.933594 1165.441406 C 792.933594 1165.441406 778.375 1190.910156 781.871094 1203.601562 C 785.128906 1215.410156 787.699219 1240.359375 770.402344 1258.519531 C 768.417969 1260.609375 764.070312 1261.160156 762.5625 1260.800781 C 758.050781 1259.75 757.957031 1253.480469 760.167969 1249.410156 L 766.414062 1237.898438 C 766.964844 1236.890625 766.132812 1235.691406 764.992188 1235.851562 C 760.320312 1236.511719 750.042969 1239.5 739.289062 1252.769531 C 731.011719 1262.980469 714.609375 1285.761719 709.097656 1281.988281 C 699.25 1275.25 705.6875 1234.449219 725.996094 1210.25" fill="#fff"/></g><g id="change3_30"><path d="M 725.996094 1210.25 L 726.019531 1210.25 Z M 728.53125 1212.378906 C 713.832031 1229.890625 706.140625 1257.578125 708.179688 1272.441406 C 708.621094 1275.671875 709.542969 1278.058594 710.730469 1279.078125 C 714.90625 1278.421875 727.195312 1262.761719 732.496094 1256.011719 C 734.042969 1254.039062 735.472656 1252.21875 736.71875 1250.691406 C 748.023438 1236.738281 758.996094 1233.351562 764.53125 1232.570312 C 766.296875 1232.320312 768.03125 1233.078125 769.050781 1234.550781 C 770.070312 1236.019531 770.175781 1237.910156 769.320312 1239.480469 L 763.074219 1250.988281 C 762.066406 1252.839844 761.765625 1255.390625 762.390625 1256.769531 C 762.636719 1257.320312 762.9375 1257.5 763.316406 1257.578125 C 764.226562 1257.738281 767.085938 1257.210938 768.007812 1256.238281 C 786.421875 1236.910156 780.132812 1209.730469 778.683594 1204.480469 C 775.644531 1193.460938 783.953125 1175.429688 788.0625 1167.5 L 763.484375 1160.539062 C 759.117188 1168.941406 745.851562 1194.078125 740.96875 1198.910156 C 736.859375 1202.96875 732.09375 1208.128906 728.53125 1212.378906 Z M 710.492188 1285.75 C 709.335938 1285.75 708.246094 1285.410156 707.230469 1284.71875 C 704.269531 1282.691406 702.382812 1278.859375 701.625 1273.339844 C 699.402344 1257.140625 707.121094 1227.601562 723.464844 1208.121094 C 727.207031 1203.660156 732.011719 1198.460938 736.316406 1194.199219 C 739.929688 1190.640625 752.054688 1168.328125 758.847656 1155.109375 C 759.566406 1153.710938 761.175781 1153.011719 762.691406 1153.441406 L 793.835938 1162.261719 C 794.8125 1162.539062 795.609375 1163.25 795.996094 1164.191406 C 796.382812 1165.128906 796.3125 1166.199219 795.804688 1167.078125 C 791.945312 1173.839844 782.496094 1193.421875 785.058594 1202.71875 C 789.734375 1219.671875 788.964844 1243.828125 772.796875 1260.800781 C 769.792969 1263.960938 764.132812 1264.570312 761.808594 1264.03125 C 759.347656 1263.449219 757.410156 1261.839844 756.355469 1259.480469 C 754.863281 1256.160156 755.21875 1251.589844 757.261719 1247.828125 L 761.46875 1240.078125 C 756.710938 1241.660156 749.441406 1245.5 741.855469 1254.851562 C 740.632812 1256.371094 739.222656 1258.160156 737.699219 1260.101562 C 725.792969 1275.261719 717.003906 1285.75 710.492188 1285.75" fill="inherit"/></g><g id="change5_8"><path d="M 1472.605469 818.730469 L 1452.484375 784.800781 C 1449.179688 779.222656 1438.757812 777.53125 1433.550781 781.410156 C 1319.8125 866.191406 1198.816406 831.601562 1180.113281 827.152344 C 1133.746094 816.109375 1110.371094 814.429688 1073.765625 812.203125 C 1020.191406 808.9375 943.113281 839.917969 891.25 891.785156 C 849.992188 933.039062 779.621094 1066.851562 747.714844 1159.824219 C 746.375 1163.734375 748.097656 1168.023438 751.765625 1169.925781 L 783.78125 1186.546875 C 787.84375 1188.652344 792.832031 1187.109375 794.976562 1183.070312 C 811.273438 1152.363281 881.859375 1025.058594 955.742188 983.023438 C 961.167969 979.9375 969.34375 983.203125 969.027344 989.4375 C 968.046875 1009.007812 955.898438 1081.550781 952.195312 1148.757812 C 951.710938 1157.613281 957.832031 1165.488281 966.5625 1167.105469 L 998.882812 1173.097656 C 1055.253906 1186.230469 1108.109375 1171.605469 1131.398438 1163.289062 C 1138.519531 1160.742188 1141.976562 1153.863281 1143.054688 1146.382812 C 1144.851562 1133.953125 1169.875 1034.304688 1215.503906 968.398438 C 1221.242188 960.101562 1229.9375 954.351562 1240.019531 953.773438 C 1280.703125 951.394531 1396.5 935.121094 1472.109375 829.171875 C 1474.328125 826.085938 1474.539062 821.996094 1472.605469 818.730469" fill="#5479f7"/></g><g id="change2_11"><path d="M 1444.902344 795 C 1444.464844 792.476562 1445.371094 789.917969 1447.316406 788.257812 C 1449.894531 786.070312 1454.246094 782.335938 1460.550781 776.816406 C 1471.675781 767.078125 1485.597656 747.648438 1497.726562 741.824219 C 1509.855469 735.992188 1553.871094 718.800781 1560.910156 722.449219 C 1567.9375 726.101562 1564.449219 734.363281 1554.460938 739.160156 C 1544.472656 743.957031 1531.46875 748.886719 1531.46875 748.886719 C 1531.46875 748.886719 1538.738281 748.46875 1544.113281 756.871094 C 1549.480469 765.265625 1542.039062 768.664062 1545.183594 772.816406 C 1549.195312 778.136719 1548.015625 784.335938 1544.824219 787.042969 C 1537.546875 793.230469 1528.761719 781.011719 1522.191406 793.65625 C 1517.625 802.453125 1506.851562 808.179688 1484.984375 812.351562 C 1479.117188 813.46875 1473.53125 815.730469 1468.460938 818.886719 C 1466.375 820.199219 1463.707031 820.296875 1461.554688 819.082031 C 1456.34375 816.144531 1447.285156 809.117188 1444.902344 795" fill="#fff"/></g><g id="change3_31"><path d="M 1557.6875 725.148438 C 1548.351562 725.148438 1513.511719 737.902344 1499.167969 744.792969 C 1492.015625 748.234375 1483.875 757.121094 1475.996094 765.722656 C 1471.320312 770.828125 1466.914062 775.648438 1462.730469 779.296875 C 1456.398438 784.839844 1452.046875 788.574219 1449.460938 790.777344 C 1448.410156 791.675781 1447.917969 793.046875 1448.15625 794.449219 C 1450.316406 807.222656 1458.5 813.554688 1463.179688 816.207031 C 1464.261719 816.808594 1465.621094 816.765625 1466.707031 816.074219 C 1472.226562 812.636719 1478.167969 810.28125 1484.355469 809.097656 C 1504.660156 805.21875 1515.089844 800.144531 1519.253906 792.136719 C 1524.183594 782.636719 1531.097656 784.082031 1535.6875 785.035156 C 1539.050781 785.738281 1540.902344 786.046875 1542.675781 784.523438 C 1544.507812 782.964844 1545.492188 778.714844 1542.546875 774.804688 C 1540.125 771.617188 1541.253906 768.449219 1541.996094 766.355469 C 1542.851562 763.980469 1543.53125 762.105469 1541.316406 758.65625 C 1537.15625 752.136719 1531.839844 752.191406 1531.609375 752.191406 C 1530.035156 752.257812 1528.566406 751.105469 1528.246094 749.527344 C 1527.941406 747.9375 1528.796875 746.363281 1530.296875 745.792969 C 1530.417969 745.746094 1543.289062 740.863281 1553.03125 736.171875 C 1558.660156 733.464844 1561.257812 729.949219 1561.292969 727.824219 C 1561.300781 727.429688 1561.3125 726.386719 1559.386719 725.378906 C 1558.992188 725.226562 1558.421875 725.148438 1557.6875 725.148438 Z M 1464.832031 823.242188 C 1463.144531 823.242188 1461.449219 822.824219 1459.9375 821.960938 C 1454.214844 818.75 1444.246094 811.023438 1441.640625 795.554688 C 1441.023438 791.882812 1442.371094 788.125 1445.167969 785.738281 C 1447.753906 783.546875 1452.078125 779.832031 1458.367188 774.320312 C 1462.28125 770.902344 1466.574219 766.214844 1471.121094 761.25 C 1479.425781 752.191406 1488.003906 742.824219 1496.300781 738.835938 C 1496.835938 738.582031 1552.089844 714.140625 1562.429688 719.507812 C 1565.957031 721.347656 1567.964844 724.40625 1567.910156 727.921875 C 1567.832031 733.171875 1563.21875 738.617188 1555.890625 742.144531 C 1550.960938 744.511719 1545.351562 746.886719 1540.878906 748.71875 C 1542.917969 750.121094 1545.019531 752.15625 1546.894531 755.082031 C 1550.851562 761.273438 1549.273438 765.675781 1548.230469 768.582031 C 1547.550781 770.476562 1547.628906 770.574219 1547.828125 770.828125 C 1552.933594 777.597656 1551.363281 785.824219 1546.960938 789.5625 C 1542.644531 793.242188 1537.835938 792.246094 1534.328125 791.511719 C 1529.945312 790.589844 1527.742188 790.140625 1525.136719 795.183594 C 1519.933594 805.195312 1508.109375 811.300781 1485.605469 815.59375 C 1480.226562 816.625 1475.042969 818.671875 1470.222656 821.695312 C 1468.558594 822.726562 1466.695312 823.242188 1464.832031 823.242188" fill="inherit"/></g><g id="change2_12"><path d="M 1150.851562 720.234375 L 1090.683594 819.96875 C 1089.855469 821.113281 1081.027344 820.796875 1071.066406 821.8125 C 1066.414062 822.28125 1061.546875 822.992188 1057.515625 823.648438 C 1054.207031 824.183594 1053.277344 828.507812 1056.074219 830.351562 L 1066.84375 837.492188 C 1089.425781 852.441406 1116.238281 860.183594 1143.253906 858.347656 C 1150.765625 857.835938 1157.960938 856.621094 1164.371094 854.636719 L 1187.417969 847.386719 C 1190.871094 846.292969 1190.847656 841.390625 1187.375 840.34375 L 1158.027344 831.445312 L 1182.800781 778.859375 L 1150.851562 720.234375" fill="#fff"/></g><g id="change3_32"><path d="M 1150.714844 726.859375 L 1093.523438 821.671875 C 1093.476562 821.746094 1093.425781 821.824219 1093.375 821.902344 C 1091.953125 823.859375 1089.535156 823.980469 1082.355469 824.339844 C 1079.246094 824.492188 1075.363281 824.691406 1071.40625 825.082031 C 1067.523438 825.476562 1063.035156 826.089844 1058.054688 826.898438 C 1057.964844 826.910156 1057.796875 826.933594 1057.746094 827.195312 C 1057.695312 827.4375 1057.824219 827.535156 1057.90625 827.589844 L 1068.675781 834.722656 C 1091.074219 849.554688 1117.480469 856.765625 1143.046875 855.023438 C 1150.585938 854.519531 1157.433594 853.316406 1163.394531 851.457031 L 1186.433594 844.214844 C 1186.542969 844.171875 1186.695312 844.128906 1186.695312 843.84375 C 1186.695312 843.570312 1186.53125 843.527344 1186.421875 843.496094 L 1157.070312 834.601562 C 1156.164062 834.316406 1155.410156 833.648438 1155.015625 832.773438 C 1154.621094 831.898438 1154.632812 830.890625 1155.046875 830.015625 L 1179.101562 778.953125 Z M 1135.542969 861.894531 C 1111.070312 861.894531 1086.316406 854.335938 1065.023438 840.234375 L 1054.253906 833.101562 C 1051.835938 831.496094 1050.664062 828.628906 1051.273438 825.792969 C 1051.886719 822.960938 1054.136719 820.828125 1057.003906 820.367188 C 1062.105469 819.539062 1066.726562 818.914062 1070.734375 818.507812 C 1074.863281 818.082031 1078.835938 817.886719 1082.023438 817.734375 C 1084.445312 817.613281 1087.125 817.46875 1088.445312 817.285156 L 1148.035156 718.511719 C 1148.648438 717.496094 1149.785156 716.894531 1150.933594 716.914062 C 1152.128906 716.9375 1153.210938 717.59375 1153.769531 718.632812 L 1185.722656 777.257812 C 1186.226562 778.1875 1186.257812 779.292969 1185.808594 780.242188 L 1162.660156 829.371094 L 1188.347656 837.160156 C 1191.300781 838.058594 1193.292969 840.726562 1193.3125 843.8125 C 1193.324219 846.898438 1191.355469 849.597656 1188.414062 850.519531 L 1165.363281 857.769531 C 1158.910156 859.785156 1151.558594 861.085938 1143.496094 861.632812 C 1140.847656 861.808594 1138.191406 861.894531 1135.542969 861.894531" fill="inherit"/></g><g id="change2_13"><path d="M 1177.714844 780.910156 C 1180.882812 781.316406 1184.128906 781.441406 1187.460938 781.273438 L 1193.410156 780.957031 C 1193.410156 780.957031 1227.484375 776.4375 1232.949219 767.988281 C 1238.410156 759.539062 1226.851562 728.867188 1226.851562 728.867188 C 1232.125 724.765625 1233.308594 719.59375 1232.179688 717.859375 C 1231.054688 716.125 1223.460938 713.464844 1220.375 711.191406 C 1217.871094 709.34375 1212.238281 694.660156 1209.828125 688.363281 C 1209.828125 688.363281 1205.367188 663.460938 1165.421875 666.695312 C 1073.925781 674.109375 1139.710938 758.78125 1139.710938 758.78125 C 1141.132812 760.4375 1142.597656 762.015625 1144.09375 763.515625 L 1177.714844 780.910156" fill="#fff"/></g><g id="change3_33"><path d="M 1229.59375 719.882812 Z M 1184.601562 784.648438 C 1179.433594 784.648438 1174.367188 783.960938 1169.476562 782.597656 C 1167.71875 782.097656 1166.703125 780.28125 1167.1875 778.519531 C 1167.683594 776.761719 1169.5 775.734375 1171.261719 776.230469 C 1176.417969 777.664062 1181.804688 778.25 1187.300781 777.96875 L 1193.113281 777.664062 C 1206.625 775.847656 1226.988281 771.117188 1230.167969 766.195312 C 1233.308594 761.332031 1228.316406 742.121094 1223.769531 730.03125 C 1223.261719 728.675781 1223.691406 727.140625 1224.832031 726.25 C 1228.226562 723.609375 1229.210938 720.765625 1229.265625 719.636719 C 1228.363281 719.039062 1226.273438 718.035156 1224.839844 717.34375 C 1222.492188 716.214844 1220.042969 715.054688 1218.417969 713.855469 C 1215.980469 712.0625 1212.933594 705.695312 1206.738281 689.542969 C 1206.65625 689.351562 1206.613281 689.148438 1206.566406 688.945312 C 1206.398438 688.066406 1201.917969 667.058594 1165.695312 669.996094 C 1143.460938 671.789062 1129.296875 678.121094 1123.640625 688.800781 C 1114.019531 706.914062 1129.542969 734.378906 1138.8125 750.777344 L 1139.632812 752.257812 C 1140.539062 753.847656 1139.984375 755.867188 1138.382812 756.757812 C 1136.789062 757.664062 1134.78125 757.097656 1133.878906 755.507812 L 1133.054688 754.039062 C 1123.109375 736.453125 1106.480469 707.015625 1117.796875 685.695312 C 1124.589844 672.894531 1140.527344 665.390625 1165.167969 663.402344 C 1204.773438 660.1875 1212.144531 683.96875 1212.992188 687.378906 C 1219.0625 703.203125 1221.476562 707.660156 1222.4375 708.609375 C 1223.464844 709.363281 1225.722656 710.4375 1227.6875 711.375 C 1231.613281 713.257812 1233.894531 714.398438 1234.957031 716.058594 C 1236.953125 719.128906 1235.789062 724.984375 1230.746094 729.863281 C 1233.746094 738.25 1241.195312 761.320312 1235.734375 769.785156 C 1229.742188 779.039062 1199.785156 783.441406 1193.847656 784.234375 C 1193.757812 784.242188 1193.667969 784.253906 1193.585938 784.253906 L 1187.640625 784.570312 C 1186.632812 784.628906 1185.609375 784.648438 1184.601562 784.648438" fill="inherit"/></g><g id="change3_34"><path d="M 1146.75 655.867188 C 1156.730469 653.902344 1168.09375 655.445312 1172.953125 653.789062 C 1180.792969 651.121094 1180.609375 642.097656 1191.664062 641.207031 C 1201.371094 640.429688 1210.417969 642.246094 1215.324219 649.683594 C 1216.148438 650.925781 1216.855469 652.316406 1217.425781 653.882812 C 1225.089844 674.917969 1214.503906 685.058594 1209.828125 688.359375 C 1209.828125 688.359375 1180.199219 702.59375 1175.078125 706.679688 C 1170.296875 710.511719 1164.660156 719.617188 1167.742188 732.792969 C 1168.128906 734.492188 1167.320312 736.25 1165.789062 737.105469 C 1164.011719 738.109375 1161.738281 737.609375 1160.578125 735.917969 C 1156.902344 730.613281 1148.835938 720.347656 1142.859375 722.71875 C 1135.890625 725.480469 1133.527344 742.992188 1146.339844 747.328125 C 1150.273438 748.664062 1151.574219 753.820312 1148.734375 756.863281 C 1146.375 759.398438 1142.78125 761.164062 1137.335938 759.785156 C 1137.335938 759.785156 1105.46875 737.046875 1101.6875 707.101562 C 1097.917969 677.15625 1133.46875 658.480469 1146.75 655.867188" fill="inherit"/></g><g id="change3_35"><path d="M 1086.910156 387.390625 L 1086.929688 387.390625 Z M 1098.761719 384.511719 C 1098.101562 384.511719 1097.441406 384.578125 1096.78125 384.695312 C 1093.863281 385.214844 1091.320312 386.84375 1089.621094 389.277344 C 1087.933594 391.710938 1087.28125 394.667969 1087.8125 397.585938 C 1088.332031 400.503906 1089.960938 403.042969 1092.390625 404.746094 C 1097.421875 408.238281 1104.351562 407 1107.851562 401.972656 C 1109.550781 399.539062 1110.191406 396.582031 1109.671875 393.664062 C 1109.152344 390.75 1107.523438 388.210938 1105.082031 386.515625 C 1103.203125 385.203125 1101.011719 384.511719 1098.761719 384.511719 Z M 1098.710938 413.34375 C 1095.222656 413.34375 1091.691406 412.3125 1088.613281 410.164062 C 1084.730469 407.46875 1082.132812 403.40625 1081.292969 398.757812 C 1080.460938 394.09375 1081.492188 389.382812 1084.191406 385.5 C 1086.902344 381.621094 1090.953125 379.015625 1095.613281 378.183594 C 1100.273438 377.347656 1104.980469 378.378906 1108.863281 381.085938 C 1112.753906 383.78125 1115.351562 387.84375 1116.183594 392.507812 C 1117.023438 397.15625 1115.992188 401.871094 1113.28125 405.75 C 1109.84375 410.699219 1104.320312 413.34375 1098.710938 413.34375" fill="inherit"/></g><g id="change3_36"><path d="M 2109.570312 757.824219 C 2108.644531 757.824219 2107.71875 757.429688 2107.054688 756.664062 C 2105.867188 755.269531 2106.050781 753.183594 2107.417969 751.996094 L 2118.117188 742.890625 C 2119.5 741.703125 2121.597656 741.875 2122.769531 743.265625 C 2123.957031 744.648438 2123.800781 746.746094 2122.40625 747.933594 L 2111.71875 757.027344 C 2111.09375 757.5625 2110.339844 757.824219 2109.570312 757.824219" fill="inherit"/></g><g id="change3_37"><path d="M 2075.824219 786.613281 C 2074.875 786.613281 2073.949219 786.21875 2073.296875 785.449219 C 2072.105469 784.0625 2072.285156 781.972656 2073.667969 780.78125 L 2084.351562 771.675781 C 2085.75 770.496094 2087.824219 770.664062 2089.003906 772.046875 C 2090.199219 773.445312 2090.03125 775.523438 2088.632812 776.714844 L 2077.953125 785.820312 C 2077.335938 786.34375 2076.566406 786.613281 2075.824219 786.613281" fill="inherit"/></g><g id="change3_38"><path d="M 2088.195312 756.132812 C 2087.246094 756.132812 2086.324219 755.734375 2085.667969 754.976562 L 2076.570312 744.285156 C 2075.390625 742.898438 2075.542969 740.808594 2076.929688 739.628906 C 2078.328125 738.433594 2080.40625 738.613281 2081.601562 740 L 2090.699219 750.675781 C 2091.894531 752.074219 2091.726562 754.15625 2090.328125 755.347656 C 2089.710938 755.875 2088.953125 756.132812 2088.195312 756.132812" fill="inherit"/></g><g id="change3_39"><path d="M 2116.984375 789.886719 C 2116.035156 789.886719 2115.125 789.496094 2114.460938 788.730469 L 2105.351562 778.035156 C 2104.167969 776.65625 2104.324219 774.5625 2105.71875 773.378906 C 2107.121094 772.191406 2109.203125 772.363281 2110.386719 773.753906 L 2119.496094 784.4375 C 2120.679688 785.828125 2120.511719 787.910156 2119.117188 789.09375 C 2118.492188 789.625 2117.738281 789.886719 2116.984375 789.886719" fill="inherit"/></g><g id="change3_40"><path d="M 632.484375 1822.988281 C 630.714844 1822.988281 629.246094 1821.589844 629.179688 1819.808594 L 628.652344 1805.78125 C 628.582031 1803.949219 630.007812 1802.421875 631.832031 1802.351562 C 633.6875 1802.289062 635.191406 1803.699219 635.261719 1805.53125 L 635.789062 1819.558594 C 635.859375 1821.378906 634.433594 1822.921875 632.609375 1822.988281 C 632.566406 1822.988281 632.523438 1822.988281 632.484375 1822.988281" fill="inherit"/></g><g id="change3_41"><path d="M 634.15625 1867.320312 C 632.386719 1867.320312 630.921875 1865.921875 630.851562 1864.128906 L 630.324219 1850.109375 C 630.253906 1848.28125 631.679688 1846.75 633.503906 1846.679688 C 635.359375 1846.609375 636.863281 1848.03125 636.933594 1849.859375 L 637.464844 1863.878906 C 637.53125 1865.710938 636.109375 1867.25 634.28125 1867.308594 C 634.238281 1867.320312 634.199219 1867.320312 634.15625 1867.320312" fill="inherit"/></g><g id="change3_42"><path d="M 603.878906 1839.238281 C 602.109375 1839.238281 600.640625 1837.839844 600.574219 1836.058594 C 600.503906 1834.230469 601.929688 1832.699219 603.753906 1832.628906 L 617.78125 1832.101562 C 619.664062 1832.03125 621.144531 1833.449219 621.214844 1835.28125 C 621.28125 1837.101562 619.855469 1838.640625 618.03125 1838.710938 L 604.003906 1839.238281 C 603.960938 1839.238281 603.917969 1839.238281 603.878906 1839.238281" fill="inherit"/></g><g id="change3_43"><path d="M 648.203125 1837.570312 C 646.4375 1837.570312 644.96875 1836.171875 644.902344 1834.378906 C 644.832031 1832.558594 646.257812 1831.019531 648.082031 1830.960938 L 662.109375 1830.429688 C 663.960938 1830.359375 665.472656 1831.78125 665.539062 1833.609375 C 665.609375 1835.429688 664.183594 1836.96875 662.359375 1837.039062 L 648.332031 1837.570312 C 648.289062 1837.570312 648.246094 1837.570312 648.203125 1837.570312" fill="inherit"/></g><g id="change3_44"><path d="M 498.371094 1569.429688 C 497.171875 1569.429688 496.015625 1568.78125 495.429688 1567.640625 C 431.058594 1443.121094 404.972656 1303.300781 419.980469 1163.328125 C 423.761719 1128.078125 430.160156 1092.949219 439 1058.898438 C 439.457031 1057.140625 441.257812 1056.078125 443.03125 1056.53125 C 444.800781 1056.988281 445.859375 1058.800781 445.402344 1060.570312 C 436.644531 1094.300781 430.300781 1129.109375 426.558594 1164.03125 C 411.683594 1302.71875 437.53125 1441.230469 501.304688 1564.609375 C 502.144531 1566.230469 501.507812 1568.21875 499.886719 1569.058594 C 499.398438 1569.308594 498.882812 1569.429688 498.371094 1569.429688" fill="inherit"/></g><g id="change3_45"><path d="M 507.507812 1586.539062 C 506.34375 1586.539062 505.214844 1585.921875 504.609375 1584.828125 C 501.492188 1579.179688 498.40625 1573.398438 495.429688 1567.640625 C 494.589844 1566.019531 495.226562 1564.019531 496.847656 1563.191406 C 498.472656 1562.339844 500.464844 1562.980469 501.304688 1564.609375 C 504.253906 1570.308594 507.3125 1576.039062 510.402344 1581.628906 C 511.28125 1583.230469 510.703125 1585.238281 509.101562 1586.121094 C 508.597656 1586.398438 508.050781 1586.539062 507.507812 1586.539062" fill="inherit"/></g><g id="change3_46"><path d="M 468.339844 1656.539062 C 467.191406 1656.539062 466.078125 1655.941406 465.46875 1654.871094 C 420.894531 1576.980469 389.832031 1492.558594 373.136719 1403.960938 C 355.859375 1312.269531 354.472656 1218.441406 369.007812 1125.058594 C 369.289062 1123.25 370.976562 1122.019531 372.785156 1122.300781 C 374.589844 1122.578125 375.824219 1124.269531 375.542969 1126.070312 C 347.265625 1307.71875 381.242188 1494.351562 471.207031 1651.589844 C 472.113281 1653.171875 471.566406 1655.191406 469.980469 1656.101562 C 469.460938 1656.398438 468.898438 1656.539062 468.339844 1656.539062" fill="inherit"/></g><g id="change3_47"><path d="M 373.136719 1079.640625 L 391.972656 1086.261719 L 391.472656 1063.878906 Z M 395.386719 1094.269531 C 395.015625 1094.269531 394.644531 1094.210938 394.289062 1094.078125 L 365.542969 1083.988281 C 364.429688 1083.601562 363.605469 1082.640625 363.386719 1081.480469 C 363.167969 1080.320312 363.585938 1079.128906 364.480469 1078.359375 L 392.464844 1054.300781 C 393.433594 1053.460938 394.800781 1053.261719 395.96875 1053.78125 C 397.136719 1054.300781 397.898438 1055.449219 397.929688 1056.730469 L 398.691406 1090.890625 C 398.714844 1091.96875 398.207031 1093 397.328125 1093.640625 C 396.757812 1094.050781 396.074219 1094.269531 395.386719 1094.269531" fill="inherit"/></g><g id="change3_48"><path d="M 1376.851562 1073.828125 C 1375.839844 1073.828125 1374.839844 1073.371094 1374.191406 1072.488281 C 1373.109375 1071.019531 1373.410156 1068.949219 1374.878906 1067.859375 L 1471.269531 996.460938 C 1472.738281 995.371094 1474.808594 995.679688 1475.898438 997.148438 C 1476.980469 998.621094 1476.679688 1000.691406 1475.210938 1001.78125 L 1378.820312 1073.179688 C 1378.230469 1073.621094 1377.539062 1073.828125 1376.851562 1073.828125" fill="inherit"/></g><g id="change3_49"><path d="M 1372.4375 767.34375 C 1371.433594 767.34375 1370.433594 766.886719 1369.785156 766 C 1368.699219 764.539062 1369.007812 762.464844 1370.46875 761.378906 L 1616.410156 579.199219 C 1617.882812 578.117188 1619.949219 578.421875 1621.03125 579.894531 C 1622.117188 581.359375 1621.8125 583.433594 1620.335938 584.519531 L 1374.40625 766.695312 C 1373.816406 767.132812 1373.132812 767.34375 1372.4375 767.34375" fill="inherit"/></g><g id="change3_50"><path d="M 1546.347656 685.394531 C 1545.347656 685.394531 1544.347656 684.933594 1543.691406 684.066406 C 1542.609375 682.59375 1542.914062 680.523438 1544.382812 679.429688 L 1673.738281 583.617188 C 1675.195312 582.53125 1677.277344 582.839844 1678.347656 584.308594 C 1679.441406 585.78125 1679.136719 587.851562 1677.664062 588.933594 L 1548.3125 684.746094 C 1547.726562 685.183594 1547.03125 685.394531 1546.347656 685.394531" fill="inherit"/></g><g id="change3_51"><path d="M 636.746094 1093.960938 C 634.511719 1093.960938 632.277344 1093.550781 630.132812 1092.71875 C 625.472656 1090.898438 621.804688 1087.351562 619.800781 1082.699219 C 615.714844 1073.230469 619.960938 1062.128906 629.265625 1057.949219 C 630.929688 1057.199219 632.890625 1057.941406 633.636719 1059.609375 C 634.382812 1061.28125 633.640625 1063.230469 631.972656 1063.980469 C 625.949219 1066.691406 623.210938 1073.910156 625.875 1080.078125 C 627.171875 1083.089844 629.535156 1085.390625 632.53125 1086.550781 C 635.453125 1087.691406 638.640625 1087.601562 641.503906 1086.320312 C 647.53125 1083.609375 650.269531 1076.390625 647.605469 1070.21875 C 646.878906 1068.539062 647.652344 1066.589844 649.332031 1065.871094 C 651.003906 1065.140625 652.953125 1065.921875 653.679688 1067.601562 C 657.765625 1077.070312 653.519531 1088.171875 644.214844 1092.351562 C 641.820312 1093.429688 639.285156 1093.960938 636.746094 1093.960938" fill="inherit"/></g><g id="change2_14"><path d="M 831.679688 419.71875 C 864.515625 411.144531 898.082031 430.816406 906.652344 463.648438 C 915.21875 496.496094 895.546875 530.050781 862.710938 538.625 C 829.875 547.199219 796.3125 527.527344 787.742188 494.679688 C 779.171875 461.847656 798.84375 428.289062 831.679688 419.71875 Z M 724.707031 498.808594 L 730.734375 521.898438 L 756.789062 521.03125 C 759.140625 526.121094 761.878906 530.960938 764.984375 535.496094 L 750.933594 557.417969 L 767.699219 574.40625 L 789.835938 560.625 C 794.371094 563.804688 799.164062 566.621094 804.164062 569.015625 L 802.953125 595.0625 L 825.96875 601.398438 L 838.230469 578.429688 C 843.699219 578.914062 849.257812 578.941406 854.855469 578.507812 L 866.828125 601.664062 L 889.925781 595.640625 L 889.054688 569.578125 C 894.152344 567.226562 898.992188 564.492188 903.523438 561.386719 L 925.445312 575.429688 L 942.433594 558.664062 L 928.644531 536.535156 C 931.835938 532 934.644531 527.199219 937.046875 522.203125 L 963.09375 523.414062 L 969.421875 500.402344 L 946.449219 488.144531 C 946.945312 482.664062 946.96875 477.113281 946.53125 471.511719 L 969.6875 459.535156 L 963.660156 436.445312 L 937.605469 437.3125 C 935.25 432.210938 932.511719 427.371094 929.40625 422.847656 L 943.460938 400.925781 L 926.691406 383.9375 L 904.558594 397.71875 C 900.023438 394.523438 895.230469 391.722656 890.226562 389.316406 L 891.4375 363.269531 L 868.425781 356.945312 L 856.164062 379.914062 C 850.691406 379.429688 845.132812 379.402344 839.535156 379.835938 L 827.5625 356.679688 L 804.464844 362.703125 L 805.339844 388.765625 C 800.242188 391.117188 795.402344 393.851562 790.867188 396.957031 L 768.945312 382.914062 L 751.960938 399.679688 L 765.746094 421.808594 C 762.554688 426.34375 759.746094 431.144531 757.347656 436.140625 L 731.300781 434.929688 L 724.96875 457.941406 L 747.941406 470.199219 C 747.449219 475.679688 747.425781 481.230469 747.863281 486.832031 L 724.707031 498.808594" fill="#fff"/></g><g id="change3_52"><path d="M 841.8125 425.660156 L 842.644531 428.851562 C 827.621094 432.78125 815.019531 442.316406 807.167969 455.710938 C 799.316406 469.109375 797.152344 484.765625 801.070312 499.792969 C 809.167969 530.804688 840.992188 549.457031 872.007812 541.363281 C 887.035156 537.4375 899.632812 527.902344 907.484375 514.503906 C 915.339844 501.105469 917.503906 485.449219 913.582031 470.425781 C 905.488281 439.414062 873.667969 420.761719 842.644531 428.851562 Z M 857.335938 549.875 C 828.585938 549.875 802.265625 530.554688 794.671875 501.460938 C 790.304688 484.726562 792.714844 467.296875 801.460938 452.363281 C 810.207031 437.441406 824.238281 426.816406 840.976562 422.457031 C 875.523438 413.445312 910.964844 434.210938 919.980469 468.753906 C 924.351562 485.488281 921.9375 502.933594 913.191406 517.855469 C 904.449219 532.773438 890.414062 543.402344 873.679688 547.761719 C 868.21875 549.191406 862.734375 549.875 857.335938 549.875 Z M 864.988281 581.136719 C 866.21875 581.136719 867.355469 581.820312 867.925781 582.921875 L 878.683594 603.730469 L 896.660156 599.039062 L 895.878906 575.632812 C 895.835938 574.292969 896.59375 573.074219 897.800781 572.519531 C 902.730469 570.234375 907.433594 567.570312 911.785156 564.585938 C 912.882812 563.839844 914.320312 563.824219 915.4375 564.535156 L 935.132812 577.15625 L 948.359375 564.113281 L 935.96875 544.214844 C 935.269531 543.097656 935.308594 541.652344 936.074219 540.5625 C 939.148438 536.191406 941.878906 531.527344 944.195312 526.707031 C 944.769531 525.511719 946.019531 524.777344 947.332031 524.839844 L 970.738281 525.929688 L 975.664062 508.015625 L 955.023438 496.996094 C 953.851562 496.363281 953.167969 495.105469 953.285156 493.777344 C 953.761719 488.535156 953.785156 483.125 953.363281 477.714844 C 953.257812 476.386719 953.960938 475.125 955.140625 474.507812 L 975.949219 463.75 L 971.257812 445.769531 L 947.847656 446.558594 C 946.519531 446.609375 945.289062 445.847656 944.730469 444.640625 C 942.453125 439.703125 939.789062 435 936.8125 430.652344 C 936.058594 429.5625 936.039062 428.117188 936.753906 427 L 949.378906 407.296875 L 936.324219 394.085938 L 916.4375 406.46875 C 915.308594 407.167969 913.871094 407.128906 912.785156 406.367188 C 908.410156 403.292969 903.75 400.558594 898.929688 398.25 C 897.730469 397.671875 896.992188 396.433594 897.054688 395.109375 L 898.140625 371.703125 L 880.230469 366.777344 L 869.214844 387.410156 C 868.589844 388.582031 867.320312 389.277344 866 389.144531 C 860.75 388.671875 855.339844 388.648438 849.925781 389.078125 C 848.585938 389.183594 847.339844 388.476562 846.726562 387.292969 L 835.96875 366.488281 L 817.992188 371.175781 L 818.777344 394.597656 C 818.820312 395.921875 818.0625 397.144531 816.855469 397.710938 C 811.921875 399.980469 807.21875 402.648438 802.867188 405.628906 C 801.773438 406.378906 800.332031 406.40625 799.214844 405.683594 L 779.519531 393.058594 L 766.296875 406.117188 L 778.683594 426 C 779.386719 427.132812 779.34375 428.5625 778.582031 429.652344 C 775.503906 434.027344 772.773438 438.691406 770.460938 443.511719 C 769.886719 444.707031 768.632812 445.441406 767.324219 445.375 L 743.917969 444.296875 L 738.992188 462.214844 L 759.628906 473.222656 C 760.804688 473.851562 761.488281 475.113281 761.367188 476.441406 C 760.890625 481.679688 760.867188 487.09375 761.292969 492.515625 C 761.394531 493.84375 760.695312 495.105469 759.511719 495.707031 L 738.707031 506.464844 L 743.394531 524.449219 L 766.808594 523.660156 C 768.117188 523.621094 769.363281 524.367188 769.921875 525.578125 C 772.199219 530.515625 774.863281 535.21875 777.84375 539.566406 C 778.59375 540.667969 778.617188 542.101562 777.898438 543.21875 L 765.277344 562.917969 L 778.328125 576.144531 L 798.21875 563.757812 C 799.347656 563.050781 800.78125 563.089844 801.871094 563.851562 C 806.242188 566.925781 810.902344 569.65625 815.726562 571.980469 C 816.925781 572.546875 817.664062 573.78125 817.601562 575.109375 L 816.511719 598.515625 L 834.425781 603.441406 L 845.441406 582.804688 C 846.066406 581.636719 847.335938 580.953125 848.65625 581.070312 C 853.910156 581.542969 859.316406 581.570312 864.730469 581.148438 C 864.816406 581.136719 864.902344 581.136719 864.988281 581.136719 Z M 876.960938 610.914062 C 875.746094 610.914062 874.601562 610.242188 874.019531 609.113281 L 863.046875 587.886719 C 858.753906 588.136719 854.46875 588.113281 850.257812 587.835938 L 839.015625 608.890625 C 838.289062 610.257812 836.710938 610.941406 835.222656 610.519531 L 812.207031 604.203125 C 810.714844 603.78125 809.707031 602.402344 809.777344 600.851562 L 810.894531 576.972656 C 807.09375 575.042969 803.40625 572.886719 799.875 570.511719 L 779.578125 583.160156 C 778.265625 583.972656 776.5625 583.765625 775.476562 582.675781 L 758.710938 565.675781 C 757.625 564.585938 757.445312 562.878906 758.28125 561.578125 L 771.164062 541.484375 C 768.859375 537.949219 766.746094 534.21875 764.859375 530.34375 L 740.976562 531.144531 C 739.378906 531.199219 738.054688 530.175781 737.664062 528.675781 L 731.636719 505.574219 C 731.246094 504.089844 731.941406 502.511719 733.316406 501.804688 L 754.546875 490.835938 C 754.300781 486.527344 754.320312 482.246094 754.605469 478.042969 L 733.542969 466.796875 C 732.179688 466.078125 731.503906 464.5 731.914062 463.003906 L 738.242188 439.992188 C 738.648438 438.507812 739.980469 437.496094 741.585938 437.5625 L 765.46875 438.675781 C 767.390625 434.882812 769.550781 431.191406 771.925781 427.65625 L 759.28125 407.363281 C 758.464844 406.050781 758.667969 404.34375 759.765625 403.265625 L 776.753906 386.492188 C 777.855469 385.402344 779.5625 385.230469 780.863281 386.058594 L 800.960938 398.945312 C 804.492188 396.644531 808.222656 394.53125 812.09375 392.640625 L 811.292969 368.761719 C 811.242188 367.210938 812.265625 365.832031 813.761719 365.449219 L 836.859375 359.421875 C 838.359375 359.027344 839.921875 359.722656 840.632812 361.101562 L 851.609375 382.328125 C 855.90625 382.078125 860.191406 382.105469 864.398438 382.394531 L 875.636719 361.328125 C 876.363281 359.960938 877.9375 359.289062 879.429688 359.699219 L 902.445312 366.027344 C 903.9375 366.4375 904.941406 367.828125 904.875 369.363281 L 903.761719 393.257812 C 907.558594 395.175781 911.25 397.328125 914.777344 399.707031 L 935.074219 387.070312 C 936.382812 386.242188 938.089844 386.453125 939.175781 387.554688 L 955.945312 404.539062 C 957.03125 405.644531 957.210938 407.351562 956.375 408.652344 L 943.492188 428.746094 C 945.792969 432.265625 947.90625 435.996094 949.792969 439.871094 L 973.679688 439.070312 C 975.253906 439.019531 976.601562 440.054688 976.988281 441.539062 L 983.019531 464.644531 C 983.40625 466.140625 982.710938 467.703125 981.335938 468.414062 L 960.105469 479.394531 C 960.351562 483.691406 960.332031 487.972656 960.046875 492.175781 L 981.109375 503.417969 C 982.472656 504.140625 983.148438 505.71875 982.742188 507.214844 L 976.414062 530.226562 C 976.003906 531.722656 974.597656 532.722656 973.070312 532.65625 L 949.183594 531.539062 C 947.265625 535.335938 945.101562 539.027344 942.730469 542.558594 L 955.371094 562.851562 C 956.1875 564.167969 955.984375 565.875 954.886719 566.964844 L 937.898438 583.726562 C 936.800781 584.816406 935.09375 585 933.792969 584.15625 L 913.691406 571.273438 C 910.160156 573.585938 906.429688 575.6875 902.5625 577.578125 L 903.363281 601.457031 C 903.414062 603.007812 902.386719 604.386719 900.890625 604.78125 L 877.792969 610.796875 C 877.515625 610.875 877.238281 610.914062 876.960938 610.914062" fill="inherit"/></g><g id="change4_8"><path d="M 516.035156 593.125 C 572.226562 578.453125 629.664062 612.121094 644.324219 668.3125 C 658.988281 724.503906 625.328125 781.929688 569.140625 796.601562 C 512.953125 811.261719 455.511719 777.601562 440.851562 721.414062 C 426.183594 665.222656 459.847656 607.785156 516.035156 593.125 Z M 332.980469 728.457031 L 343.296875 767.972656 L 387.882812 766.492188 C 391.90625 775.203125 396.59375 783.488281 401.90625 791.25 L 377.863281 828.761719 L 406.554688 857.820312 L 444.433594 834.238281 C 452.191406 839.703125 460.394531 844.511719 468.953125 848.613281 L 466.878906 893.183594 L 506.261719 904.011719 L 527.238281 864.707031 C 536.605469 865.546875 546.117188 865.585938 555.699219 864.84375 L 576.183594 904.46875 L 615.703125 894.148438 L 614.214844 849.566406 C 622.9375 845.535156 631.21875 840.851562 638.976562 835.535156 L 676.488281 859.589844 L 705.554688 830.886719 L 681.964844 793.015625 C 687.425781 785.253906 692.234375 777.058594 696.339844 768.492188 L 740.910156 770.570312 L 751.738281 731.191406 L 712.429688 710.214844 C 713.277344 700.84375 713.316406 691.328125 712.566406 681.75 L 752.195312 661.265625 L 741.878906 621.738281 L 697.292969 623.234375 C 693.265625 614.507812 688.585938 606.226562 683.269531 598.476562 L 707.3125 560.960938 L 678.621094 531.890625 L 640.742188 555.488281 C 632.980469 550.023438 624.78125 545.214844 616.222656 541.113281 L 618.292969 496.539062 L 578.910156 485.710938 L 557.933594 525.019531 C 548.570312 524.175781 539.058594 524.128906 529.480469 524.882812 L 508.992188 485.253906 L 469.46875 495.5625 L 470.960938 540.160156 C 462.238281 544.175781 453.957031 548.863281 446.199219 554.175781 L 408.6875 530.136719 L 379.621094 558.824219 L 403.210938 596.707031 C 397.75 604.472656 392.941406 612.664062 388.839844 621.21875 L 344.265625 619.15625 L 333.4375 658.535156 L 372.746094 679.511719 C 371.898438 688.878906 371.859375 698.398438 372.609375 707.964844 L 332.980469 728.457031" fill="#99b9ff"/></g><g id="change3_53"><path d="M 534.207031 606.488281 C 507.886719 613.347656 485.816406 630.054688 472.0625 653.523438 C 458.308594 676.996094 454.515625 704.417969 461.386719 730.734375 C 468.253906 757.0625 484.960938 779.128906 508.429688 792.878906 C 531.898438 806.640625 559.320312 810.433594 585.640625 803.558594 C 611.960938 796.683594 634.03125 779.980469 647.785156 756.507812 C 661.539062 733.039062 665.332031 705.625 658.460938 679.296875 C 651.59375 652.984375 634.886719 630.917969 611.417969 617.15625 C 587.949219 603.40625 560.527344 599.613281 534.207031 606.488281 Z M 559.742188 813.515625 C 540.707031 813.515625 521.941406 808.460938 505.085938 798.59375 C 480.09375 783.945312 462.300781 760.4375 454.984375 732.410156 C 447.671875 704.382812 451.707031 675.171875 466.355469 650.1875 C 481.003906 625.1875 504.507812 607.398438 532.535156 600.082031 C 560.574219 592.761719 589.769531 596.804688 614.761719 611.453125 C 639.753906 626.101562 657.546875 649.605469 664.863281 677.636719 C 672.179688 705.664062 668.140625 734.863281 653.492188 759.859375 C 638.84375 784.84375 615.34375 802.648438 587.3125 809.953125 C 578.183594 812.34375 568.929688 813.515625 559.742188 813.515625 Z M 573.035156 871.6875 C 574.261719 871.6875 575.402344 872.378906 575.972656 873.476562 L 595.242188 910.757812 L 629.648438 901.773438 L 628.246094 859.835938 C 628.203125 858.507812 628.957031 857.273438 630.167969 856.71875 C 638.71875 852.777344 646.886719 848.144531 654.441406 842.972656 C 655.539062 842.21875 656.976562 842.195312 658.097656 842.910156 L 693.382812 865.527344 L 718.6875 840.554688 L 696.492188 804.925781 C 695.792969 803.792969 695.835938 802.363281 696.597656 801.269531 C 701.941406 793.679688 706.683594 785.585938 710.691406 777.230469 C 711.265625 776.023438 712.503906 775.285156 713.828125 775.359375 L 755.757812 777.304688 L 765.183594 743.019531 L 728.210938 723.28125 C 727.035156 722.664062 726.351562 721.394531 726.472656 720.066406 C 727.296875 710.960938 727.339844 701.574219 726.605469 692.171875 C 726.5 690.84375 727.203125 689.585938 728.382812 688.96875 L 765.660156 669.703125 L 756.683594 635.292969 L 714.742188 636.695312 C 713.417969 636.746094 712.1875 635.992188 711.628906 634.773438 C 707.675781 626.210938 703.046875 618.042969 697.875 610.503906 C 697.125 609.40625 697.101562 607.964844 697.820312 606.84375 L 720.4375 571.558594 L 695.460938 546.253906 L 659.828125 568.453125 C 658.703125 569.15625 657.265625 569.109375 656.175781 568.34375 C 648.589844 563.007812 640.5 558.265625 632.128906 554.25 C 630.933594 553.683594 630.195312 552.4375 630.253906 551.121094 L 632.203125 509.183594 L 597.921875 499.757812 L 578.191406 536.742188 C 577.5625 537.914062 576.292969 538.589844 574.972656 538.480469 C 565.863281 537.65625 556.472656 537.605469 547.074219 538.34375 C 545.746094 538.441406 544.488281 537.742188 543.878906 536.558594 L 524.605469 499.289062 L 490.199219 508.257812 L 491.601562 550.207031 C 491.648438 551.539062 490.890625 552.757812 489.683594 553.3125 C 481.121094 557.269531 472.953125 561.902344 465.40625 567.074219 C 464.308594 567.828125 462.871094 567.839844 461.75 567.125 L 426.464844 544.503906 L 401.164062 569.488281 L 423.355469 605.121094 C 424.054688 606.242188 424.015625 607.683594 423.25 608.765625 C 417.917969 616.355469 413.171875 624.4375 409.15625 632.816406 C 408.582031 634.011719 407.347656 634.75 406.019531 634.6875 L 364.089844 632.742188 L 354.664062 667.027344 L 391.640625 686.753906 C 392.8125 687.378906 393.496094 688.648438 393.378906 689.96875 C 392.554688 699.085938 392.507812 708.472656 393.246094 717.871094 C 393.347656 719.203125 392.648438 720.460938 391.464844 721.0625 L 354.1875 740.34375 L 363.164062 774.742188 L 405.109375 773.339844 C 406.4375 773.300781 407.664062 774.050781 408.222656 775.261719 C 412.171875 783.824219 416.796875 791.992188 421.972656 799.542969 C 422.722656 800.640625 422.746094 802.070312 422.027344 803.191406 L 399.410156 838.472656 L 424.386719 863.78125 L 460.019531 841.589844 C 461.144531 840.890625 462.585938 840.925781 463.671875 841.691406 C 471.265625 847.035156 479.355469 851.78125 487.71875 855.785156 C 488.917969 856.363281 489.65625 857.59375 489.59375 858.925781 L 487.644531 900.851562 L 521.925781 910.277344 L 541.660156 873.304688 C 542.285156 872.132812 543.554688 871.441406 544.875 871.566406 C 553.996094 872.390625 563.382812 872.441406 572.773438 871.703125 C 572.863281 871.6875 572.949219 871.6875 573.035156 871.6875 Z M 593.519531 917.9375 C 592.304688 917.9375 591.160156 917.261719 590.582031 916.140625 L 571.097656 878.453125 C 562.820312 878.996094 554.554688 878.957031 546.46875 878.34375 L 526.519531 915.734375 C 525.789062 917.089844 524.207031 917.765625 522.722656 917.359375 L 483.339844 906.53125 C 481.847656 906.125 480.839844 904.730469 480.914062 903.191406 L 482.882812 860.785156 C 475.546875 857.152344 468.429688 852.988281 461.667969 848.355469 L 425.636719 870.789062 C 424.328125 871.617188 422.621094 871.417969 421.539062 870.308594 L 392.84375 841.246094 C 391.757812 840.136719 391.578125 838.4375 392.414062 837.132812 L 415.285156 801.453125 C 410.792969 794.714844 406.722656 787.519531 403.152344 780.027344 L 360.742188 781.445312 C 359.132812 781.480469 357.824219 780.472656 357.433594 778.96875 L 347.117188 739.457031 C 346.726562 737.953125 347.425781 736.390625 348.800781 735.675781 L 386.492188 716.199219 C 385.945312 707.917969 385.984375 699.652344 386.605469 691.570312 L 349.214844 671.609375 C 347.851562 670.882812 347.175781 669.308594 347.585938 667.816406 L 358.414062 628.441406 C 358.820312 626.949219 360.171875 625.941406 361.757812 626.015625 L 404.15625 627.984375 C 407.792969 620.644531 411.964844 613.523438 416.589844 606.769531 L 394.148438 570.734375 C 393.332031 569.429688 393.535156 567.714844 394.632812 566.632812 L 423.699219 537.9375 C 424.800781 536.855469 426.507812 536.679688 427.808594 537.507812 L 463.488281 560.386719 C 470.230469 555.886719 477.421875 551.824219 484.917969 548.25 L 483.5 505.84375 C 483.449219 504.292969 484.476562 502.925781 485.96875 502.53125 L 525.492188 492.21875 C 526.992188 491.824219 528.554688 492.527344 529.265625 493.894531 L 548.753906 531.59375 C 557.039062 531.039062 565.300781 531.074219 573.378906 531.703125 L 593.328125 494.3125 C 594.058594 492.945312 595.632812 492.265625 597.125 492.6875 L 636.507812 503.515625 C 638 503.921875 639.007812 505.300781 638.933594 506.855469 L 636.964844 549.246094 C 644.304688 552.882812 651.425781 557.058594 658.179688 561.679688 L 694.210938 539.242188 C 695.519531 538.429688 697.222656 538.628906 698.3125 539.722656 L 727.003906 568.800781 C 728.089844 569.894531 728.269531 571.609375 727.433594 572.902344 L 704.5625 608.582031 C 709.050781 615.332031 713.125 622.515625 716.699219 630.019531 L 759.105469 628.601562 C 760.664062 628.539062 762.023438 629.574219 762.414062 631.066406 L 772.730469 670.589844 C 773.121094 672.078125 772.421875 673.65625 771.046875 674.359375 L 733.355469 693.847656 C 733.902344 702.140625 733.863281 710.394531 733.242188 718.476562 L 770.632812 738.421875 C 771.996094 739.148438 772.671875 740.726562 772.261719 742.21875 L 761.4375 781.605469 C 761.023438 783.09375 759.644531 784.105469 758.09375 784.03125 L 715.695312 782.0625 C 712.0625 789.390625 707.890625 796.511719 703.257812 803.277344 L 725.699219 839.300781 C 726.515625 840.617188 726.316406 842.316406 725.214844 843.402344 L 696.148438 872.097656 C 695.042969 873.179688 693.339844 873.363281 692.039062 872.527344 L 656.359375 849.660156 C 649.609375 854.15625 642.417969 858.222656 634.929688 861.796875 L 636.347656 904.203125 C 636.398438 905.742188 635.375 907.121094 633.878906 907.515625 L 594.355469 917.828125 C 594.078125 917.902344 593.796875 917.9375 593.519531 917.9375" fill="inherit"/></g></g></svg>