<?xml version="1.0" encoding="UTF-8"?><svg xmlns="http://www.w3.org/2000/svg" xmlns:xlink="http://www.w3.org/1999/xlink" height="499.8" preserveAspectRatio="xMidYMid meet" version="1.0" viewBox="-0.2 0.0 720.6 499.8" width="720.6" zoomAndPan="magnify"><g id="change1_1"><path d="M603.4,1.7h1.2c0,0.4,0,0.8,0,1.2h3.8c0,0,0,0.4,0,0.6l3.8-0.6c0,0.4,0,0.8,0,1.2c1.1,0.1,2.2-0.1,3.2-0.6 c0,0,0,0.4,0,0.6c0,0.2,0,0,0.6,1.3l4.4-0.6v0.6c1,0.5,2.1,0.7,3.2,0.7c0,0.6,0,1.2,0,1.9l3.2-0.6c0-0.5,0-0.8,0-1.2h3.2 c0,0,0,0.5,0,0.6h1.2c0,0,0,0.4,0,0.6l3.2-0.6c0,0,0-0.5,0-0.6h0.6c0,0,0,0.4,0,0.6h0.6V6.8h2.5c0,0,0,0.5,0,0.6h3.2 c0,0,0-0.4,0-0.6c0.8-0.4,1.7-0.6,2.5-0.6c1,3.5,0.8,0.7,3.1,2l0.6,1.3c1.4,1.1,3.2,1.6,5,1.4c2.5-3.4,3.2,0.3,5.6-1.7 c1.5-1.4,0.8-2.6,0.7-5.6h0.6c0,0,0,0.4,0,0.6c1.6,0.8,3.2-2.1,6.3-1.1c0,0,0,0.4,0,0.6h1.9c0,0,0,0.4,0,0.6c1.9,0.8,1.9,0.3,3.8,0 c0-0.5,0-0.8,0-1.2c1.7,1,2.4,1.7,2.4,4.4h-0.6l0.6,1.9h1.8c0,0,0,0.5,0,0.6h0.6v2.5h1.9v0.6c0.7,0.6,0,0,0.6,0.6 c0.6,0.6,0,0.5,0,0.6h0.6c0.6,0.8,0.5,1.1,0.6,2.5l3.8-0.6v2.5l3.2-0.6c0.4-0.5,0.8-0.9,1.3-1.2c0,0,0-0.4,0-0.6h0.6 c0,0,0,0.4,0,0.6l1.3-0.6c0,0,0,0.5,0,0.6s0,0,0.6,1.2c1.4,0,1.6,0,2.5,0.7c0,0,0,0.5,0,0.6h1.2c0,0,0,0.4,0,0.6 c1.8,0.5,3.8,0.5,5.6,0c0-0.4,0-0.8,0-1.2c3.1,1,5.4,3.8,5.6,7h-0.6c-0.5,1,2.5,4.5,1.1,5.6v1.1h-1.9c0,0.6,0,1.2,0,1.9 c0,0.6-1.1,1.1-1.3,1.2c-1.6,0.8-1.9,0-3.2,1.2h0.6c0,1.2,0,2.5,0,3.8c1,0.4,2.1,0.7,3.2,0.7c0-0.5,0-0.8,0-1.2 c2.4-0.3,3.5-1,3.8-3.7h1.9c1,1.9,1.8,1.9,1.8,5.1c2-0.5,1.4-0.9,3.8-1.2v2.5c1.9-0.5,2.5-0.5,3.1,2h0.6c0,0,0,0.4,0,0.6h-0.6 c0,0.5-0.5,2.1-0.7,2.5c-0.2,0.3-2.3,0.7-1.9,2.5l1.2,0.7c0,0.5,0,0.8,0,1.2h2.5l0.6,2.5h0.6c0.2,0.7-0.1,1.5-0.7,1.9l0.6,3.8h-2.5 c-0.7,2.1-0.8,1.2-2,2.5h-0.8c0,0.6,0,1.2,0,1.9h0.6c0,0.6,0,1.2,0,1.9l1.2,0.7v1.2h0.6c0.9,2.6-1.1,4.4-1.4,6.9h-1.9 c0,2.2-0.5,4.3-1.4,6.3h-2.5c-0.4,1.1-1.4,1.8-2.5,1.9v0.9h0.6c0.4,2-1.8,1.2-1.4,3.1l1.2,0.7c0.4,1.1,0.1,2.3-0.7,3.2 c0,0,0,0.4,0,0.6h1.2c0.7,0.8,0.5,1.7,0.6,3.2h-2.5c0,0.9-0.3,1.7-0.7,2.5h-0.6l0.5,5.6l1.2,0.7c0,0.4,0,0.8,0,1.2h0.6 c0,0.6,0,1.2,0,1.9c-1.5,0.7-3.4,2.3-1.4,3.1v3.2h1.2c0,1-0.6,3.2,0.6,3.2c0,0,0,0.4,0,0.6h-1.2c0,1.2-0.6,1.2-0.7,1.2 c-1.1,3,0.7,3.7-3.2,3.7v2.5h-0.6v0.6l1.2,0.7c0,1.5,0,2.9,0,4.4l-1.9,1.2l-0.7,5h-3.1c0,0,0,0.4,0,0.6c1.9,2,0,2.9,4.3,3.2 c0,3.1-1.2,3.3-1.4,6.9c-0.6,0.2-1,0.7-1.3,1.2c-1.2-0.4-0.6,0-1.2-0.7h-1.2l0.6,4.4h0.6c0,0,0,0.4,0,0.6h3.2c0,0,0,0.4,0,0.6h0.6 l-0.7,1.9l4.4-0.6l0.6,3.8h2.5c0.5,0.8,2.1,1.7,1.9,1.9h-0.6c0.6,1.9,0,2.5,0,5l1.9,0.7c0,0,0,0.5,0,0.6h1.9c0,0,0,0.4,0,0.6h-0.6 l0.6,3.8h-1.2l-0.7,3.2h0.6c0.1,1.5-0.1,3-0.7,4.4l-2.6,1.6c0,0,0,0.4,0,0.6h0.6c0.1,1.9-0.1,3.8-0.7,5.6c-1.6,0-3.1,0.4-4.4,1.2 l0.6,2.5h0.6c0,1.1-0.6,1.1-0.7,1.2c0,1.2,0,2.5,0,3.8c1.8,0,3.5,0.4,5,1.4c0,0.4,0,0.8,0,1.2c-3.2,1.7-2.1,3.7-2,8.1h-1.2 c-0.6,1.6-0.9,3.3-0.7,5c0.6,0.4,0.9,1.2,0.6,1.9h-0.6c-0.4,0.8-0.6,1.6-0.7,2.5h0.6c0.7-0.7,0,0,1.3-0.6c0,1.1,1.3,2.8,0.6,4.4 l-1.3,0.6c0,0.4,0,0.8,0,1.2h-0.6l-0.7,1.9H703v5.6l-1.3,0.6c0,0,0,0.4,0,0.6h0.6l0.6,3.2h0.6c0,0.4,0,0.8,0,1.2h0.3 c0,1.7,0,3.4,0,5l1.9,1.3c0,0.9-1.9,1.7-1.9,1.9c-0.1,0.2,2.1,4.7,2.4,6.4c-1.5-0.1-3-0.3-4.4-0.7v2.5h2.1l2.4,3.2h0.6v2.5l1.2,0.7 c0,0.6-1,1.1-0.7,2.5h0.6c0,0.8,0,1.7,0,2.5h-1.2l0.6,2.5l-1.3,0.6v0.6h0.6l-0.7,2.5l-1.9,0.6c1.1,1.3,3.8,2.6,2.4,4.4l-0.7,1.9 h-2.5c0,0.4,0,0.8,0,1.2h-1.2c-0.4,0.8-0.6,1.6-0.7,2.5h0.6c0,0.6,0,1.2,0,1.9h1.8c0,0.6,0,1.2,0,1.9h-0.6c-1.3,1.2-2.8,2-4.4,2.4 c0-0.4,0-0.8,0-1.2c-1.4-0.3-2.9-0.3-4.4,0l-0.7,3.2h-1.9v2.5h-1.2l0.6,3.2h3.8c0,0.6,0,1.2,0,1.9c1.3,0.9,2.8,1.6,4.4,2 c0,0.6,0,1.2,0,1.9h-1.2l-0.7,2.5h0.8v1.9h-1.9l0.6,3.8h0.6l-0.7,2.5h0.6c0,0.4,0,0.8,0,1.2h0.8c1.5,2,2.4,4.5,2.4,7 c-1.2-0.6-2.6-0.6-3.8,0c0.6,1.4,0.8,2.9,0.6,4.4c0,0-0.8,0-0.7,1.2h0.6c0,0.4,0,0.8,0,1.2h0.9l0.6,2.5h-0.6v0.6h-1.9l-0.7,3.2H695 c0,0.4,0,0.8,0,1.2h-0.6c0,1.2,0,2.5,0,3.8h0.6l-0.7,5l1.2,0.7c0,0.6,0,1.2,0,1.9h0.6c0.2,1.5-0.1,3-0.7,4.4h-0.6l0.5,8.2l-1.3,0.6 c0,1.1,0,2.1,0,3.2h1.2l0.6,1.9h0.6c0,1-1,0.7-1.3,1.2l0.6,1.9H695c0,0,0,0.4,0,0.6h-1.9c0,0.6,0,1.2,0,1.9h-1.2l-0.7,3.8h-0.6 c-0.6,1.7,0.5,3.6,0.6,4.4h-0.6c-0.4,0.8-0.6,1.6-0.7,2.5h1.2l0.5,6.3l2.5,0.7c0,0.6,0,1.2,0,1.9c3.6,0.9,0.6,3.4,2.4,4.4h-1.2 l0.6,3.2c1.9,0.5,1.6,0.4,1.9,2.5c-1.5,1.5-1.1,5-0.8,6.9h1.9c0,0.4,0,0.8,0,1.2h0.6c-0.3,0.8-0.5,1.6-0.7,2.5l2.5,0.7 c0,1.7,0.9,1.8,0,3.2h0.6c1.2,1.2,2.7,2.1,4.3,2.6c0,0.4,0,0.8,0,1.2h-0.6c0.3,0.8,0.4,1.7,0.6,2.5l-1.9,0.6l0.6,1.3h-1 c0,1.2,0,2.5,0,3.8h0.6l0.6,3.2h-1.2c0,0.6,0,1.2,0,1.9h-0.6c-0.2,0.5,0.1,1.1,0.6,1.3l-1.4,4.4c-1.6-0.9-1.1-1.1-3.8-1.4 c-0.5,1.7,0,1.4-1.9,1.9c0,0.8,0,1.7,0,2.5h1.4l-0.7,3.8H695l-0.7,3.2l-2.5-0.7l-0.7,1.2h-1.9c0,0.6,0,1.2,0,1.9h-1.2 c-0.7,1.3-1,1.1-1.4,3.1c0,0.4,1,0,0.6,1.3h-0.6v0.4h-1.9c-1.2,1.2-2.1,2.7-2.6,4.3h-1.9c0.3,1.6,0.6,1.4,1.2,2.5h-0.6 c-0.8,1.3-1.1,1.2-3.2,1.2V458l-1.3,0.6l-1.2-0.7l-0.7,1.9c-0.8-0.4-1.6-0.6-2.5-0.7l1.7,6.3h-3.2l1.1,5.6l-1.9,0.6c0,1.7,0,3.4,0,5 h-0.6v0.6c0,0,0.4,0,0.6,1.2h-1.9c0,0.4,0,0.8,0,1.2l-3.2-0.7c0,0,0,0.4,0,0.6c-0.8,0.7-1,1.1-1.3,2.5h-1.9l-1.4,3.8h-1.4 c0,1.2,0,2.5,0,3.8c-3.9,0-2.8,0.6-5.1,1.8h-1.2l-0.7,1.2h-4.4c-0.8,0,0,0.5-0.6,0.6c0,0,0-0.5,0-0.6h-0.6c0,0,0,0.4,0,0.6 s0,0-0.7,1.2l-7.5-1.4l-0.7,1.9l1.2,0.7c0,0.4,0,0.8,0,1.2c-0.9,0.1-1.7,0.3-2.5,0.6c0,0,0-0.4,0-0.6l-4.4-0.7c-0.6,0.7,0,0-0.6,0.6 c0.6,1.1,0.8,1,1.2,2.5h-1.6v0.6c-0.4,0-4.1-0.7-5.6-0.7l-0.6-3.2c-1.2-0.5-2.5-0.7-3.8-0.7c0,0.5,0,0.8,0,1.2l-3.8,0.6 c-0.5-0.7,0,0-0.6-0.6c0-0.6,1.2-1.4,0.7-2.5h-0.6c0,0,0-0.4,0-0.6l-3.2-0.7c0,0,0-0.5,0-0.6h-1.9l-1.2-1.9h-3.8v-0.8 c-1.3-0.5-2.1-0.3-3.2-0.7l0.7-1.9c-1.1,0.1-2.2-0.1-3.2-0.7c0,0,0-0.5,0-0.6h-1.2c0,0,0-0.4,0-0.6c-0.8,0,0,0-0.6,0.6 c-0.8-0.3-1.6-0.5-2.5-0.7v1.9h-2.5c0,0,0,0.5,0,0.6h-0.6l-0.6-1.3h-3.8l-0.6-1.9h-1.9c-0.6,3.2-2.3,6.5-5.6,6.8l-0.6-3.8 c-1.7-0.1-3.4-0.6-5-1.4V484h-0.8c0,0,0-0.5,0-0.6h-1.9v0.6h-2.5c0,0,0,0.4,0,0.6h-0.6c0,0,0-0.5,0-0.6c-1.2-0.5-0.4-0.8-1.2,0 c-0.8,0.8,0,0-0.7,1.2h-1.9l-0.7,1.2l-3.8-1.4v-0.8l-2.5,0.6c0-0.5,0-0.8,0-1.2H556l-0.6-1.2l-4.4,1.2c0,0,0-0.5,0-0.6h-1.2 c0,0,0-0.5,0-0.6h-1.2c0,0,0-0.4,0-0.6l-1.9,0.6c0,0,0,0.4,0,0.6h-0.4c0,0,0-0.4,0-0.6l-1.9,0.6c0,0.4,0,0.8,0,1.2 c-1.1,0-2.8-1.4-4.4-0.7l-0.7,1.2h-1.9l-0.7,1.2H536c0,0,0-0.4,0-0.6h-0.6c0,1.1,0,2.1,0,3.2h1.9c0,0.6,0,1.2,0,1.9l-1.3,0.6 c-1.7,1.1-3.6,1.7-5.6,1.8l-2,5.6h-1.2c-0.7-1.4-1.4-1.4-1.8-3.2c-0.8,0.1-1.5,0.5-1.9,1.2h-2.5c0,0,0-0.5,0-0.6l-1.9,0.6 c-0.5-2.1-1.3-1.6-1.8-3.8h0.6c-0.3-0.8-0.5-1.7-0.6-2.5c-1.1,0.1-2.2-0.2-3.2-0.7c0,0,0-0.5,0-0.6h-4.4c0,0,0-0.4,0-0.6h0.6 c0-1.1-1.1-1-1.2-1.3c-0.1-0.3,0-0.8,0-1.2c-3.6,0-3.2-1.5-6.3-2l-2,5.6c-1.6-0.5-3.3-1-5-1.4c-0.3-2.9-0.5-1.6-1.8-3.2h-0.6 c0-0.5,0-0.8,0-1.2h-1.9c-0.5,0,0,1.7-1.9,1.2l-0.6-1.3h-2.5c0,0,0-0.4,0-0.6h-1.2l-0.9-2.1h-1.2v-0.6h-1.2c0,0,0-0.5,0-0.6 c-0.8-0.6-1.1-0.5-2.5-0.7c0-0.6,0-1.2,0-1.9h-1.9l-0.6-1.3l-5.6,1.1c0,0.6,0,1.2,0,1.9h-1.2c0,0.4,0,0.8,0,1.2h-4.4 c0,0,0-0.5,0-0.6h-0.6c0,0,0,0.4,0,0.6h-1.2l-0.6-3.2c-1.9,0-3,0.8-4.4-0.7c-0.6-0.5-0.6-0.8-1.2-1.3l0.7-1.9h0.6 c0-0.8-0.6-1-0.6-2.5h-3.8c-1.6,2.4-2.9,1-3.3,5c0.6,0.4,1.7,0.6,1.2,1.9h-0.6c-1.5,0.9-3.3,1.3-5.1,1.2c0-0.4,0-0.8,0-1.2h-1.2 c0,0,0-0.4,0-0.6l-3.2,1.2c0-0.4,0-0.8,0-1.2h-1.9c0,0,0-0.5,0-0.6h-0.6c0,0,0,0.5,0,0.6H436l0.7-3.2h-5c0,0,0-0.4,0-0.6h-0.6 c0,0,0,0.4,0,0.6h-0.6l-0.7,1.9H426c0-0.9,0.3-1.7,0.7-2.5l-1.9,0.6V472l-3.2-0.7c0-0.8,0-1.7,0-2.5c-1.2-0.5-2.5-0.7-3.8-0.7v0.6 h-0.6c-0.3,1,0.7,2.5,0.6,2.5h-1.2c0,0,0,0.4,0,0.6l-3.8,0.6v0.7h-1.3l-1.9,2.5h-1.9v1.2l-1.9-0.7c0,0-0.6,0.8-1.3,0.6l-0.6-1.2 l-3.8,0.6v0.6c-0.7,0.7,0,0-0.7,1.2c-0.8-0.1-1.7-0.4-2.5-0.7c-0.4,0.6-1.2,0.9-1.9,0.6V477l-2.5-0.7l-0.7,1.9l-3.2-0.7v-0.6 l-5.6,1.1c0-0.4,0-0.8,0-1.2l-1.9-0.7l0.7-1.9l-1.2-0.7v-1.2h-1.9c-0.3,2.6-1,1.6-1.3,3.1l1.9,1.3c0,1.9,0,3.8,0,5.6h-2.3 c-0.5,0-0.5-2-2.5-1.3l-1.3,1.9h-1.9c0,0,0,1-1.3,0.6l-0.6-1.3h-1.9c0,0.4,0,0.8,0,1.2l-5-0.7c-0.7,2.3-2.1,2.1-3.2,3.7 c-1-0.4-2.1-0.7-3.2-0.7l-0.6-1.9h0.6c0,0,0-0.4,0-0.6c-1.3-1-0.8,0.9-2.5-1.3h-0.6c-0.7-1.4,0-4.2-1.2-5.1h-1.2v-0.6 c-1,0-0.8,1-1.3,1.2h-1.2v0.6h-1.9l-0.6-3.8c-3.2,0-2.2-0.9-5-1.4l-0.6-3.8c-2,0-1.9-0.6-3.1-1.3c0,0.6,0,1.2,0,1.9l-3.8-0.7 l-0.7,1.2h-1.9c0,0.5,0,0.8,0,1.2c-1.1-0.1-2.1-0.3-3.2-0.7v0.6h-2.4c0,0,0,0.4,0,0.6s-2.5,1.5-3.2,1.2s0-0.4,0-0.6 c-0.8-0.7-1-1.2-1.2-2.5h-1.3v1.9h-2.5c-0.5,0,0-1.7-1.9-1.3l-0.7,1.2h-1.9c0,0.4,0,0.8,0,1.2H309l-0.7,1.9 c-1.4,0.8-2.9,1.2-4.4,1.2l-0.6-1.9l-3.2-1.3c0.9-2.8,0-1-0.6-3.8l-1.9-0.7c0,0,0-0.4,0-0.6h-0.6c0,0.4,0,0.8,0,1.2h-1.9 c0-0.6,0-1.2,0-1.9h-1.2c0,0,0-0.4,0-0.6h-0.6c0,0,0,0.4,0,0.6h-2.5v-1.9l-5.1,1.2c0,0,0-0.5,0-0.6h-1.2c0,1.1,0,2.1,0,3.2h-3.8 c0.4,1.9,0.5,3.7,0.5,5.6c-1.7,0.3-1.8,1.2-1.9,1.2l-2.5-0.7c0,0,0,0.4,0,0.6l-1.9,0.6c-0.6-0.4-0.6-1.5-1.9-1.9c0,0,0,0.4,0,0.6 h-0.6c0,0,0-0.4,0-0.6c-2.4-0.8-5.6,0-7.5-0.8c-0.8-0.3-0.3,0-0.6,0.6s0,0-0.6,1.2h-1.2l-0.6-2.5c-1.2-0.4-0.6,0-1.2-0.7 c-0.9,0.2-1.8,0.6-2.5,1.2c0,0,0,0.4,0,0.6h-5c0-0.4,0-0.8,0-1.2c-1.6-0.8-3.9-1.8-5.6-2.6v-1.9h-1.2l-3.2,3.7c-0.7-0.6,0,0-0.6-0.6 c-0.6-0.6-1-0.7-1.2-2.5l-2.5,0.6c-0.4,2-1,1.3-1.3,1.9c-0.3,0.9-0.1,1.9,0.6,2.5h-3.2c-1.5-1.5-4.4-0.3-6.3,0 c-0.5-1.9-0.3-1.7-2.5-1.9c-0.8,1.1-3.4,3.1-4.4,1.8c0,0.6,0,1.2,0,1.9h-2.5c-1-1.6-0.6-0.4-1.9-1.3c0,0,0-0.5,0-0.6h-1.2l0.7-1.2 h-0.6c0,0,0-0.4,0-0.6h-2l-0.6-3.8c-1.1-0.3-2.1-0.7-3.1-1.3l0.7-1.9l-2.5,0.6c0.4,3.7,0.4,7.5,0,11.3c-2.1-0.5-2.4-1.4-4.3-2 c-0.9,1.4-1.5,1.2-3.8,1.2c-0.7-1.1-0.4-0.8-1.9-1.3c0-0.6,0-1.2,0-1.9c-1.1-0.1-2.2,0.1-3.2,0.6c0,0,0,0.4,0,0.6h-2.5 c0,0,0,0.4,0,0.6h-2.5l-0.7,1.2h-1.2l-1.3,1.9c-1.6,0.8-3.3,1.2-5.1,1.2c-0.3-3-1.1-1.9-1.8-4.4c-1.7,0.4-3.4,0.5-5.1,0.6 c-0.3-0.5-0.7-1-1.2-1.3l0.7-2.5h-0.6c-1-1.4-0.9-1.6-3.1-2c0,0.4,0,0.8,0,1.2l-2.5,0.6c0-0.6,0-1.2,0-1.9c-1.4,0.3-2.9,0.5-4.4,0.6 c0,0.4,0,0.8,0,1.2l-1.3,0.6l0.6,2.5l-6.4-1.2c0-0.4,0-0.8,0-1.2h-2.5c0-0.5,0-0.8,0-1.2h-1.9v-0.9l-2.5-0.7c0,0,0,0.4,0,0.6 l-1.9,1.2l0.6,2.5c-1.1,0.1-2.2-0.1-3.2-0.7c0,0,0-0.5,0-0.6h-1.2c0,0,0-0.5,0-0.6L139,472c-0.3,3.1-1.9,3.2-2.6,5.6h-1.9 c0-0.8,0-1.7,0-2.5c-0.8-0.4-1.6-0.6-2.5-0.7c-1.2,1.2-3.2,1.2-5.6,1.1c0-1,0-2.1,0-3.2h-5l-0.6-1.9h-0.6c0-0.4,0-0.8,0-1.2h-0.6 l0.7-3.2h-0.6l-0.6-1.9l-3.8-0.7l-0.7,1.9h0.6c0,0,0,0.5,0,0.6H112c0-0.4,0-0.8,0-1.2l-3.8-0.7c-0.8,0.7-1.6,1.3-2.5,1.8 c0,0,0,0.4,0,0.6h-4.5c0,0,0,0.4,0,0.6c-1.6,0.7-3.3,1.1-5.1,1.2l-0.6-3.2c-1.4-0.3-2.9-0.3-4.4,0l-0.7,1.9h0.6 c0.6,2.3,0.3,4.8-0.8,6.9c-1.3-0.5-2.4-1.4-3.1-2.6c-1.6,1.3-3.6,1.9-5.6,1.7c-0.7-1.1-0.4-0.8-1.9-1.3l0.7-2.5h-1.2 c-0.2-1.1-0.6-2.2-1.2-3.2l-2.5,0.6l-0.6-1.2c-1-0.4-2.1-0.4-3.2,0c0-0.4,0-0.8,0-1.2l-5.6-1.4c0-0.5,0-0.8,0-1.2h-1.9 c0-0.4,0-0.8,0-1.2l-3.2,0.6c0,0,0,0.4,0,0.6l-1.9-0.7c0,0,0,0.4,0,0.6c-1.9,0-2.2-2-4.4-1.4l-0.7,1.2l-5.1,0.5l-1.2-1.9l-3.2,0.6 c0,0,0-0.4,0-0.6s0,0-0.6-1.3c-1.7,0.3-3.4,0.5-5.1,0.5c0-0.4,0-0.8,0-1.2l-1.9-0.7v0.6l-5.1,0.5c0-0.4,0-0.8,0-1.2 c-2.3,0-1.9,0.7-3.8,1.2v1.9h-1.6V459c-0.7-0.8-1.3-1.8-1.8-2.8h-0.6v-4.4l-1.2-0.7l0.7-3.2h-0.6v-2.5h-0.7v-2.2H23l-0.6-3.2h-1.6 c0,0,0-0.4,0-0.6c0.6-0.5,1-1.2,1.3-1.9h-0.6c0,0,0-0.5,0-0.6c-1.1,0.3-2.1,0.7-3.2,1.2c0,0,0-0.4,0-0.6h-0.6l-0.6-3.2 c-2.1-0.5-2.4-1.4-4.3-2l-0.6-3.2l-4.4-0.7c0-0.6,0-1.2,0-1.9h1.9v-2.6H8.5l-0.6-3.2c-2.4,0-2.6,0.9-5.1,1.2c0,0,0-0.4,0-0.6h0.7 l-0.6-1.9h0.7v-1.9H1.1l-0.6-1.9h-0.7v-3.2h1.3l0.7-3.2h1.3c0-0.4,0-0.8,0-1.2h0.7c0.3-1.2-0.4-0.8-0.6-1.3c-0.2-0.5,0.5,0,0.6-0.6 v-5h0.7L4,398.8c0.5-0.7,0.8,0,0.6-0.6H4l-0.6-3.9c1.5-0.9,1.1-1.9,2-2.5l2.5-0.6c0,0,0-0.4,0-0.6c2.1-1.8,0-0.4,1.3-2.5h0.6 c0-0.4,0-0.8,0-1.2h0.6l1.9-2.5c1.4,1.1,0.3,1.3,2.5,1.9c0.2-1.8-0.2-3.6-1.2-5.1l3.8-1.2c0-1.1,0-2.1,0-3.2h0.6c0,0,0-0.4,0-0.6 h-0.5c0-0.6,0-1.2,0-1.9h-0.8c0-0.4,0-0.8,0-1.2h-0.3l-0.5-5.6c2.7,0.3,1.6,1,4.4,1.4l-0.6-1.3l1.9-1.2c0-0.3-1.2-1.9,0-3.8H21 c0-0.4,0-0.8,0-1.2c-0.8-1.5-2.3,0-3.1-3.2h0.6c0,0,0-0.5,0-0.6h1.9l0.7-3.8h-1.2c0.5-3.8,2.4-3.3,3.3-6.3c-3-2-0.7-1.9-1.8-5.1 h-0.6c0-0.4,0-0.8,0-1.2h-0.6c-1.1-1.9-1.7-4.1-1.7-6.3H21c0-1.2,0-2.5,0-3.8l-1.9-0.7l-0.6-3.2h-5v1.2c-0.7-0.7,0,0-0.6-1.2h-0.6 c-0.5-0.9,0.5-3.9,0.7-4.4h0.6c0-0.6,0-1.2,0-1.9h-1.2c-0.5-0.7,0.4-0.6,0.6-0.6c-0.8-1.4-0.8-3,0-4.4l1.4-0.6v-5H15l2.6-3.1H19 c0-1,0-2.1,0-3.2h-0.6v-0.6H19v-1.2h0.6v-3.2h0.6c0,0,0-0.4,0-0.6h-0.5v-0.6l1.3-0.6c0.5-1.8-0.9-1.3-1.2-1.9V294h-0.6v-3.2h0.6 l-0.5-5.1h0.6c0.4-0.8,0.7-1.6,0.7-2.5c-1.2-0.4-0.6,0-1.2-0.7c2.9-1.7,0.7-1.5,2-4.4H22v-1.2l2-1.1c0-0.6,0-1.2,0-1.9h0.6 c0-0.6,0-1.2,0-1.9l1.3-0.6c0-1,0-2.1,0-3.2h1.2l-0.6-3.2h0.6v-1.2l1.2-0.6c0-1.5-0.5-2.9-0.6-4.4h-1.6c-0.6-1-1.2-1.1-1.9-1.9H25 l-0.6-1.9l1.3-0.6l0.7-3.8h-0.7c0,0,0-0.4,0-0.6h-1.9l0.7-6.3l-1.2-0.7c0,0,0-0.4,0-0.6h0.7l-0.6-1.9c-0.8-0.4-1.6-0.6-2.5-0.7 l0.6-3.5l-1.2-0.7v-1.9c-1.6-0.2-2.8-1.5-3-3c1.7-1.2,0.8-1.7,0.7-4.4h1.2v-2.4c-2.5-0.7-2-2-1.8-5.1c0.7-0.6,0.8-1.1,1.3-1.9h0.6 l-0.6-1.2l1.2-0.6V214h0.6c0.7-2.1-0.8-1.9-1.2-2.5v-0.6h0.6l-0.6-3.2h-0.5l0.8-6.9h-1.3c0-3.3-0.6-1.9,0.7-4.4H18v-2.5 c-1.2-0.4-0.6,0-1.2-0.7c1.2-0.7,2.8-1.5,2.6-3.7c-0.5-0.2-0.8-0.7-0.6-1.2h0.6V187h-1.8v-0.6h-0.8c0-1.5,0-2.9,0-4.4h-0.3v-0.6h0.6 c1.8-2,2.5-0.8,2.6-5c-1-0.3-1.9-0.9-2.5-1.8c1.1-0.6,1-0.8,2.5-1.2c0-1.1,0-2.1,0-3.2h-0.5c0,0,0-0.5,0-0.6h0.6v-2.5h1.2 c-0.5-2.4-1.9-3.8-2.4-6.4h1.2l0.7-6.3c2,0.5,1.4,1,3.8,1.4l-0.6-4.4h1.2l0.7-3.8h-0.6V147h0.6l0.7-1.9H26l-0.6-2.5h-1.9 c0-2.3,0.8-1.9,1.4-3.8c-1.1-0.6-1-0.9-2.5-1.3c-0.1-1.4,0.4-2.7,1.4-3.8h0.6l-0.6-1.3h0.6L25,130l-1.9-0.7c0-0.6,0-1.2,0-1.9 l-3.8,0.6v-0.8l-1.3,0.6v-0.6h-0.6v-0.6c0,0,0-0.4,0-0.6l-1.2-0.7c0-0.8,1.1-1.1,0.7-2.5l-1.2-0.7v-0.6h0.6c0-0.8,0-1.7,0-2.5 c-1.7-0.1-3.3-0.3-5-0.8c0,0.4,0,0.8,0,1.2h-1.2c-0.1-1.9,0.2-3.8,0.7-5.6h-0.6c0,0,0-0.4,0-0.6h1.9l1.3-1.9h0.6c0-0.6,0-1.2,0-1.9 h0.6v-1.2h0.6c0.8-1,0.3-0.8,1.9-1.2c-0.2-0.9-0.6-1.8-1.2-2.5h-0.6l1.4-5.6c-1.9-0.7-3.3-2.4-3.7-4.4l3.8-0.6 c0.3-2.2,2.5-3.2,1.4-4.4c2.5-1.2,2.6,1.5,3.2-2.5h-0.6v-1.9c-0.3-0.8-0.7,0-0.6-0.6c0.5-0.1,0.8-0.6,0.7-1.1l0,0l-1.2-0.7 c0-0.5-0.3-2-0.6-2.5h-1.9l0.7-2.5h1.9c0,0,0-0.5,0-0.6h0.6l-0.6-1.9l1.3-0.6c0.9-2.3-1.4-7.2-1.7-8.8c-1.1-0.2-2.2-0.6-3.1-1.3 c0,0,0-0.4,0-0.6c-1-0.5-1,0-1.3,0.6c-1.2-0.5-0.8-0.6-1.2-1.9c0.9-0.8,2.4-3.5,1.4-4.4h3.8c0.7-2,2.4-3.4,4.5-3.7v0.6H24 c0,0.6,0,1.2,0,1.9s0.3,0,0.6,0.6h0.6c0,0,0-0.4,0-0.6c0-0.2,0,0,0.7-1.2H28v-0.7c0.7-0.7,0,0,0.7-1.2c-2.4-0.5-4-2.7-3.7-5.1h3.8 c0-1.1,0-2.1,0-3.2H30v-1.7h1.2l1.2-4.4H35v-0.6h0.6c0-0.6,0-1.2,0-1.9c1.1,0,2.6-1.2,3.2-1.2v0.6h0.5c0.3-2.3,0.8-1.9,1.4-3.8 c1.5,0.1,3,0.3,4.4,0.7l1.4-5.6h1.9l0.7-3.2h1.9v1.2l1.9-0.6c1.1-2.9,0.5-4.3,4.5-4.3c0,0.5,0,0.8,0,1.2l8.2-1.1v0.6h1.2l0.6,1.3H71 l1.4-3.8h1.9l1.4-3.8c1.1,0,2.2-0.2,3.1-0.8v-0.7l1.9,0.7c0.5-1.7,0-1.4,1.9-1.9v-1.5h3.2v-1c1.6-0.3,1.4-0.6,2.5-1.2 c0,0,0,0.4,0,0.6c1.7,1.5,0.3,1.7,3.7,2v0.6c1.9,0.9,2.3-1.6,3.2-1.2v0.6c1.4,1.1,0.3,1.3,2.5,1.9c0.3-2.3,0.8-1.9,1.4-3.8h1.2 l1.1-1.9h1.9c0,0.4,0,0.8,0,1.2h1.9V8.2l1.9,0.7V8.2h0.6v0.6l1.9,0.7V8.8c0.7-0.7,0,0,0.7-1.2c1.5-0.3,1.4-0.6,2.5-1.2V7h0.6 c0,0.6,0,1.2,0,1.9c1.1,0,2.2,0.2,3.2,0.7V9c1.8-1.4,0.4-1.7,3.8-1.8c0,0,0,0.4,0,0.6l3.8-0.6c0.4,0.5,0.8,0.9,1.2,1.3l-0.7,1.9 c0,0,0.8,0,1.2,1.9l1.3-0.6v0.6h0.6c0.3,0,0-1,1.2-0.6l0.6,1.3c0.7,0.3,1.5,0,1.9-0.6h0.6V13h2.5c0-0.6,0-1.2,0-1.9h1.2V10l5.1-1.2 l1.9,2.5c2.1,1.1,3.4-1,4.4-1.2l0.6,1.2h2.5v0.6c1.4,0.4,0.7-1.5,1.3-1.9h0.3v0.6h3.2l3.8,0.7c0,0,0-0.4,0-0.6h5l1.2,1.9l2.5-0.6 v-0.3c2.2,0.5,4.3,1.4,6.3,2.6v-0.7l2.5-1.2c0-0.4,0-0.8,0-1.2c0-0.4,1.2-0.4,2.5-0.6c0.2-1.5,0.6-3,1.4-4.4c0.8-0.3,0-0.3,0.6-0.6 h2.5l0.7-1.2h1.6c0,0,0-0.4,0-0.6c1.9-0.4,3.3,2.4,3.7,2.6l2.5-0.6c0,0,0-0.4,0-0.6c1,0,0.8,1.2,1.2,1.3l1.9-0.6 c0.6-0.7,0,0,0.7-0.6V3.7l3.2,0.7c0.4,1.7,0,1.4,1.9,1.9v1.2c1.7,1.3,3.6,2.2,5.6,2.6l-0.7,4.4h0.6c1.3-1,3.3,0.5,5.6-0.5 c0.3,0,0-0.8,1.9-1.2c0-1.6,0.5-3.1,1.4-4.4l6.9,1.4l1.9,2.5h1.9c1.6,0.8,1.7,1.6,4.4,2v1.2l2.5-0.6c0.9,0,0,0.6,0.6,0.6v-0.5h0.6 v0.6l4.4,0.7v1.2l8.8-0.5c0-1.7-0.1-3.4-0.5-5.1l6.6-0.5v0.6l2.5,0.7c0,0,0-0.5,0-0.6h1.2l1.3-1.9l1.9-0.6v0.6 c1.5,0.7,2,0.7,2.5,2.6c2.3-0.1,4.7-0.5,6.9-1.1l0.6,2.5l3.2,0.7c0-1.1,0-2.1,0-3.2c1.5-0.2,3,0.1,4.4,0.7l0.6,1.3h1.2 c0,0,0,0.4,0,0.6l6.9,0.8c0,0.6,0,1.2,0,1.9l4.4-0.6v-0.6l1.8,0.6c0-0.6,0-1.2,0-1.9c1.7,0.5,1.4,0.8,3.1,1.3v-0.6 c1.1-0.7,0.8-0.4,1.3-1.9h1.9c1.4-0.5,3.6-3.5,6.4-2.4l0.6,1.3h1.2v-0.6h-0.5l1.4-5.6h1.9v1.2h3.2c0.5,0.7,0,0,0.6,0.6s0,1.2,0,1.9 l2.5,0.7c0.4,1.7,0,1.4,1.9,1.9l0.7-1.6c2,0.7,1,0.4,3.2,0c0.4-1,0.7-2.1,0.7-3.2c0.8,0.1,1.7,0.4,2.5,0.7l0.7-1.2 c1.5-0.5,1.7,0.7,2.5,0.7V7.5h3.2c0,0,0,0.5,0,0.6l6.9-0.5v0.6h0.6c0,0.8,0,0-0.6,0.6c-0.6,0.6,0,0.4,0,0.6h0.6c0,0.6,0,1.2,0,1.9 h0.6c2-3,4.1,0,5.6,0.7V9.8c-0.7-0.7,0,0-0.6-1.3h3.2c0-0.6,0-1.2,0-1.9h0.6c1.8-0.7,3.7-1.1,5.6-1.1c0-0.6,0-1.2,0-1.9 c0.6-0.2,1-0.7,1.3-1.2l3.2,0.7c0,0,0-0.5,0-0.6c0.8-0.7,1-1.1,1.3-2.5h1.2c0,0.6,0,1.2,0,1.9c2-0.4,1.2-0.9,1.9-1.2h0.6v0.7 c1.1,0.1,2.2-0.1,3.2-0.6c0,0.4,0,0.8,0,1.2h2.5c0,0.9,0.2,1.7,0.6,2.5c1.2-0.4,2.5-0.6,3.8-0.6c0,1.1,0,2.1,0,3.2h0.6v0.6h-0.6 c0,0.8,0,1.7,0,2.5h-1.2v1.2c0.9,0,1.7,0.3,2.5,0.7v0.6l1.9-0.6c1-3.3,1.7-1.1,3.8-2.4l1.9-2.5l3.8,0.7l0.7-1.2h1.2 c0.6,1.1,0.8,1,1.2,2.5l4.4,0.7v0.6c0.5,0.2,1.1-0.1,1.3-0.6c0,0,0,0,0,0l2.5,0.7l0.6,1.9h1.7v-0.6c0.7-0.2,1.4,0.1,1.9,0.7l6.3-0.5 c0,0.6,0,1.2,0,1.9c1.4,0,1.7,0,2.5-0.6V13h1.2l0.7-1.2l2.5,0.7v-0.6h0.6c0,0,0-0.5,0-0.6h-0.6l0.7-1.9h2.5V8.7l1.9,0.7l0.7-1.2h3.2 l1.4-3.8l2.8,1.2v1.2l1.9,1.3l0.6,1.2c1.7,1,2.1-1.1,3.1,1.4l0.6,1.9c1.4-0.8,2.9-1.2,4.4-1.2c0-0.5,0-0.8,0-1.2l5.1-1.2l1.9-2.5 h2.5v0.6c1.5,0.2,3,0,4.4-0.6v1.9c1.3,0,1.8,0,2.5,0.7l-0.7,1.2h1.2v0.8c0.7,0.6,1.3,0.6,1.9,1.3c1-0.4,2.1-0.6,3.2-0.6v-1.2 c1.9,0.3,3.6,1.2,5,2.6l0.6,1.3l10.8-1.7v-2.5h1.7c0.7-2.4,1.9-1.9,2.6-4.3h1.2V5l1.8-0.6V5h0.6c0,0.8,0,1.7,0,2.5h0.6 c0,0,0-0.4,0-0.6c2.4,0.8,2.3,0,5.6,0c0.5-2,0.9-2.3,3.2-2.4l0.6,1.9c2,0.4,2.6,0.7,3.1,2.6c1.7-0.4,1.4,0,1.9-1.9h1.9l0.6,1.9h1.9 c0,0.4,0,0.8,0,1.2l4.4-0.6v0.6c1.4,0.9,3,2.3,4.4,1.4c1.4-0.9,0,0,0.7-1.2h1.9V8.1l2.4-0.6V6.9h0.6v0.6h2.5l0.6,1.2h3.2 c0-0.6,0-1.2,0-1.9c0.5-0.3,0.8-0.8,1-1.3c0.8,0.4,0.9,1.1,1.2,1.3c0.3,0.2,1-1,2.5-0.6c0,0,0,0.8,1.2,0.7c0,0,0-0.5,0-0.6h1.9V6 h0.6v0.6l1.9,0.7c0.2-0.5,0.7-0.8,1.2-0.6v0.6c2.8,0.7,3.4-1.7,5.1-0.5c0.7,0.7,0,0,0.6,1.3c1.1-0.1,2.2,0.2,3.2,0.7 c0,0,0,0.4,0,0.6c0.9,0,1.1-1,2.5-0.6v0.6c2.7,0.7,3-1.5,4.4-0.6c1.4,0.9,0,0,0.6,1.3c1.2,0,2.3-0.4,3.2-1.2V8.3 c2-0.7,2.3,1.2,2.5,1.3l3.2-0.6c0,0,0-0.5,0-0.6l2.5,0.7l0.7-1.9l1.9-1.2v1.9l2.5-0.6v0.6h1.2v0.6c0.9,0.6,1.1,0.5,2.5,0.7 c0,0.4,0,0.8,0,1.2h1.9l2.6-4.3h1.2c0,0.4,0,0.8,0,1.2h3.2c0.4,0.8,1,0.9,1.2,1.3l-0.7,1.2h1.9V7.6L588,7c0,0,0,0.4,0,0.6h1.9 c0.7-0.5,0-0.8,0.6-0.6c0,0,0,0.4,0,0.6l2.5,0.7c0-0.6,0-1.2,0-1.9h1.9c0.4,0,0.3-1.8,1.9-1.2c0,0,0,0.4,0,0.6c0,0.2,0,0,0.6,1.2 c1.9-0.4,2.1-0.7,2.6-2.5l2.5-0.6l0.7-2.5" fill="#d9d9d9"/></g></svg>