<?xml version="1.0" encoding="UTF-8" standalone="no"?><svg xmlns="http://www.w3.org/2000/svg" xmlns:xlink="http://www.w3.org/1999/xlink" fill="#ffffff" height="120" id="Layer_1" preserveAspectRatio="xMidYMid meet" version="1.1" viewBox="0.0 4.0 128.0 120.0" width="128" x="0" xml:space="preserve" y="0" zoomAndPan="magnify"><g id="change1_1"><path d="M8,17H7v-1c0-1.1-0.9-2-2-2s-2,0.9-2,2v1H2c-1.1,0-2,0.9-2,2s0.9,2,2,2h1v1c0,1.1,0.9,2,2,2s2-0.9,2-2v-1h1c1.1,0,2-0.9,2-2 S9.1,17,8,17z" fill="inherit"/></g><g id="change1_2"><path d="M68,7h-1V6c0-1.1-0.9-2-2-2s-2,0.9-2,2v1h-1c-1.1,0-2,0.9-2,2s0.9,2,2,2h1v1c0,1.1,0.9,2,2,2s2-0.9,2-2v-1h1 c1.1,0,2-0.9,2-2S69.1,7,68,7z" fill="inherit"/></g><g id="change1_3"><path d="M68,117h-1v-1c0-1.1-0.9-2-2-2s-2,0.9-2,2v1h-1c-1.1,0-2,0.9-2,2s0.9,2,2,2h1v1c0,1.1,0.9,2,2,2s2-0.9,2-2v-1h1 c1.1,0,2-0.9,2-2S69.1,117,68,117z" fill="inherit"/></g><g id="change1_4"><path d="M120,21h1v1c0,1.1,0.9,2,2,2s2-0.9,2-2v-1h1c1.1,0,2-0.9,2-2s-0.9-2-2-2h-1v-1c0-1.1-0.9-2-2-2s-2,0.9-2,2v1h-1 c-1.1,0-2,0.9-2,2S118.9,21,120,21z" fill="inherit"/></g><g id="change1_5"><path d="M8,107H7v-1c0-1.1-0.9-2-2-2s-2,0.9-2,2v1H2c-1.1,0-2,0.9-2,2s0.9,2,2,2h1v1c0,1.1,0.9,2,2,2s2-0.9,2-2v-1h1 c1.1,0,2-0.9,2-2S9.1,107,8,107z" fill="inherit"/></g><g id="change1_6"><path d="M126,107h-1v-1c0-1.1-0.9-2-2-2s-2,0.9-2,2v1h-1c-1.1,0-2,0.9-2,2s0.9,2,2,2h1v1c0,1.1,0.9,2,2,2s2-0.9,2-2v-1h1 c1.1,0,2-0.9,2-2S127.1,107,126,107z" fill="inherit"/></g><g id="change1_7"><path d="M24,24c-1.1,0-2,0.9-2,2v56c0,1.1,0.9,2,2,2s2-0.9,2-2V26C26,24.9,25.1,24,24,24z" fill="inherit"/></g><g id="change1_8"><path d="M44,24c-1.1,0-2,0.9-2,2v56c0,1.1,0.9,2,2,2s2-0.9,2-2V26C46,24.9,45.1,24,44,24z" fill="inherit"/></g><g id="change1_9"><path d="M54,34c-1.1,0-2,0.9-2,2v56c0,1.1,0.9,2,2,2s2-0.9,2-2V36C56,34.9,55.1,34,54,34z" fill="inherit"/></g><g id="change1_10"><path d="M34,37c-1.1,0-2,0.9-2,2v30c0,1.1,0.9,2,2,2s2-0.9,2-2V39C36,37.9,35.1,37,34,37z" fill="inherit"/></g><g id="change1_11"><path d="M14,44c-1.1,0-2,0.9-2,2v56c0,1.1,0.9,2,2,2s2-0.9,2-2V46C16,44.9,15.1,44,14,44z" fill="inherit"/></g><g id="change1_12"><path d="M6,89V59c0-1.1-0.9-2-2-2s-2,0.9-2,2v30c0,1.1,0.9,2,2,2S6,90.1,6,89z" fill="inherit"/></g><g id="change1_13"><path d="M114,44c-1.1,0-2,0.9-2,2v56c0,1.1,0.9,2,2,2s2-0.9,2-2V46C116,44.9,115.1,44,114,44z" fill="inherit"/></g><g id="change1_14"><path d="M122,59v30c0,1.1,0.9,2,2,2s2-0.9,2-2V59c0-1.1-0.9-2-2-2S122,57.9,122,59z" fill="inherit"/></g><g id="change1_15"><path d="M66,79V49c0-1.1-0.9-2-2-2s-2,0.9-2,2v30c0,1.1,0.9,2,2,2S66,80.1,66,79z" fill="inherit"/></g><g id="change1_16"><path d="M84,24c-1.1,0-2,0.9-2,2v56c0,1.1,0.9,2,2,2s2-0.9,2-2V26C86,24.9,85.1,24,84,24z" fill="inherit"/></g><g id="change1_17"><path d="M94,37c-1.1,0-2,0.9-2,2v30c0,1.1,0.9,2,2,2s2-0.9,2-2V39C96,37.9,95.1,37,94,37z" fill="inherit"/></g><g id="change1_18"><path d="M74,34c-1.1,0-2,0.9-2,2v56c0,1.1,0.9,2,2,2s2-0.9,2-2V36C76,34.9,75.1,34,74,34z" fill="inherit"/></g><g id="change1_19"><path d="M104,24c-1.1,0-2,0.9-2,2v56c0,1.1,0.9,2,2,2s2-0.9,2-2V26C106,24.9,105.1,24,104,24z" fill="inherit"/></g></svg>