<?xml version="1.0" encoding="UTF-8" standalone="no"?><svg xmlns="http://www.w3.org/2000/svg" xmlns:xlink="http://www.w3.org/1999/xlink" fill="#eefaff" height="126.8" preserveAspectRatio="xMidYMid meet" version="1" viewBox="0.0 -0.8 126.8 126.8" width="126.8" zoomAndPan="magnify"><g id="change1_1"><path d="M33.462,100.742l24.143-18.247c0.25-0.189,0.397-0.484,0.397-0.798s-0.147-0.608-0.397-0.798L33.462,62.652 c-0.356-0.27-0.849-0.27-1.206,0c-0.356,0.27-0.491,0.743-0.329,1.16l2.97,7.642H1c-0.552,0-1,0.447-1,1s0.448,1,1,1h35.358 c0.33,0,0.639-0.163,0.825-0.436s0.227-0.619,0.107-0.927l-2.223-5.719l20.276,15.324L35.068,97.021l2.223-5.719 c0.12-0.308,0.08-0.654-0.107-0.927s-0.495-0.436-0.825-0.436H1c-0.552,0-1,0.447-1,1s0.448,1,1,1h33.897l-2.97,7.642 c-0.162,0.417-0.027,0.891,0.329,1.16c0.179,0.135,0.391,0.202,0.603,0.202S33.284,100.876,33.462,100.742z" fill="inherit"/><path d="M117.016,98.505c0.552,0,1-0.447,1-1s-0.448-1-1-1h-6.558c-0.552,0-1,0.447-1,1s0.448,1,1,1H117.016z" fill="inherit"/><path d="M121.517,114.991h-10.968c-0.552,0-1,0.447-1,1s0.448,1,1,1h10.968c0.552,0,1-0.447,1-1S122.069,114.991,121.517,114.991z" fill="inherit"/><path d="M106.396,114.991H54.11c-0.33,0-0.639,0.163-0.825,0.436s-0.227,0.619-0.107,0.927l2.223,5.719l-20.275-15.323 l20.276-15.324l-2.223,5.719c-0.12,0.308-0.08,0.654,0.107,0.927s0.495,0.436,0.825,0.436h52.286c0.552,0,1-0.447,1-1s-0.448-1-1-1 H55.572l2.97-7.642c0.162-0.417,0.027-0.891-0.329-1.16c-0.357-0.27-0.85-0.27-1.206,0l-24.143,18.247 c-0.25,0.189-0.397,0.484-0.397,0.798s0.147,0.608,0.397,0.798l24.143,18.246c0.179,0.135,0.391,0.202,0.603,0.202 s0.425-0.067,0.603-0.202c0.356-0.27,0.491-0.743,0.329-1.16l-2.97-7.642h50.825c0.552,0,1-0.447,1-1 S106.949,114.991,106.396,114.991z" fill="inherit"/><path d="M53.594,67.765h35.669l15.036,8.356c0.151,0.084,0.318,0.126,0.486,0.126c0.175,0,0.351-0.046,0.507-0.138 c0.306-0.18,0.493-0.508,0.493-0.862v-7.482h3.368c4.589,0,8.323-3.733,8.323-8.322V17.858l6.235-5.677 c2.856-2.601,3.064-7.04,0.463-9.897c-2.601-2.854-7.041-3.062-9.897-0.462l-7.931,7.222H53.594c-4.589,0-8.323,3.733-8.323,8.323 v42.076C45.271,64.032,49.005,67.765,53.594,67.765z M115.624,3.3c1.788-1.627,4.443-1.714,6.323-0.341L94.275,28.158 c-0.408,0.372-0.438,1.004-0.066,1.412c0.197,0.217,0.468,0.327,0.74,0.327c0.24,0,0.481-0.086,0.673-0.261l27.672-25.198 c1.193,2.001,0.858,4.636-0.93,6.264L92.399,37.988l-1.219,0.11l-5.746-6.31l0.224-1.202L115.624,3.3z M84.977,34.254l3.706,4.07 l-4.539,0.411L84.977,34.254z M47.271,17.367c0-3.486,2.836-6.323,6.323-6.323h50.556l-20.086,18.29 c-0.161,0.146-0.27,0.342-0.31,0.557l-1.818,9.777c-0.058,0.308,0.033,0.624,0.244,0.855c0.19,0.21,0.459,0.327,0.739,0.327 c0.03,0,0.06-0.001,0.09-0.004l9.905-0.896c0.217-0.02,0.422-0.11,0.583-0.257l21.979-20.013v39.763 c0,3.486-2.836,6.322-6.323,6.322h-4.368c-0.552,0-1,0.447-1,1v6.782l-13.777-7.656c-0.148-0.083-0.316-0.126-0.486-0.126H53.594 c-3.486,0-6.323-2.836-6.323-6.322V17.367z" fill="inherit"/><path d="M56.16,23.121h31.065c0.552,0,1-0.447,1-1s-0.448-1-1-1H56.16c-0.552,0-1,0.447-1,1S55.607,23.121,56.16,23.121z" fill="inherit"/><path d="M56.16,31.255h24.247c0.552,0,1-0.447,1-1s-0.448-1-1-1H56.16c-0.552,0-1,0.447-1,1S55.607,31.255,56.16,31.255z" fill="inherit"/><path d="M56.16,38.953h22.488c0.552,0,1-0.447,1-1s-0.448-1-1-1H56.16c-0.552,0-1,0.447-1,1S55.607,38.953,56.16,38.953z" fill="inherit"/><path d="M56.16,47.31h48.384c0.552,0,1-0.447,1-1s-0.448-1-1-1H56.16c-0.552,0-1,0.447-1,1S55.607,47.31,56.16,47.31z" fill="inherit"/><path d="M56.16,55.562h53.497c0.552,0,1-0.447,1-1s-0.448-1-1-1H56.16c-0.552,0-1,0.447-1,1S55.607,55.562,56.16,55.562z" fill="inherit"/><circle cx="120.831" cy="97.505" fill="inherit" r="1"/><circle cx="125" cy="115.991" fill="inherit" r="1"/><circle cx="124.48" cy="102.22" fill="inherit" r="1"/><path d="M83.151,102.22c0,0.553,0.448,1,1,1h29.586c0.552,0,1-0.447,1-1s-0.448-1-1-1H84.151 C83.599,101.22,83.151,101.667,83.151,102.22z" fill="inherit"/><path d="M122.517,102.22c0-0.553-0.448-1-1-1h-4.027c-0.552,0-1,0.447-1,1s0.448,1,1,1h4.027 C122.069,103.22,122.517,102.773,122.517,102.22z" fill="inherit"/><circle cx="122.046" cy="106.748" fill="inherit" r="1"/><path d="M79.716,106.748c0,0.553,0.448,1,1,1h29.585c0.552,0,1-0.447,1-1s-0.448-1-1-1H80.716 C80.164,105.748,79.716,106.196,79.716,106.748z" fill="inherit"/><path d="M119.082,106.748c0-0.553-0.448-1-1-1h-4.028c-0.552,0-1,0.447-1,1s0.448,1,1,1h4.028 C118.634,107.748,119.082,107.301,119.082,106.748z" fill="inherit"/><circle cx="120.046" cy="111.803" fill="inherit" r="1"/><path d="M108.302,110.803H84.921c-0.552,0-1,0.447-1,1s0.448,1,1,1h23.381c0.552,0,1-0.447,1-1S108.854,110.803,108.302,110.803z" fill="inherit"/><path d="M112.054,112.803h4.028c0.552,0,1-0.447,1-1s-0.448-1-1-1h-4.028c-0.552,0-1,0.447-1,1S111.502,112.803,112.054,112.803z" fill="inherit"/></g></svg>